AGaramondPro-Bold.ufo
<glyph name="percent" format="1">
  <advance width="866"/>
  <unicode hex="0025"/>
  <outline>
    <contour>
      <point x="663" y="-12" type="curve" smooth="yes" name="hr00"/>
      <point x="781" y="-12"/>
      <point x="824" y="103"/>
      <point x="824" y="182" type="curve" smooth="yes"/>
      <point x="824" y="262"/>
      <point x="781" y="376"/>
      <point x="663" y="376" type="curve" smooth="yes"/>
      <point x="545" y="376"/>
      <point x="502" y="262"/>
      <point x="502" y="182" type="curve" smooth="yes"/>
      <point x="502" y="103"/>
      <point x="545" y="-12"/>
    </contour>
    <contour>
      <point x="601" y="183" type="curve" smooth="yes"/>
      <point x="601" y="238"/>
      <point x="609" y="336"/>
      <point x="665" y="336" type="curve" smooth="yes"/>
      <point x="720" y="336"/>
      <point x="725" y="235"/>
      <point x="725" y="183" type="curve" smooth="yes"/>
      <point x="725" y="131"/>
      <point x="720" y="28"/>
      <point x="665" y="28" type="curve" smooth="yes"/>
      <point x="609" y="28"/>
      <point x="601" y="129"/>
    </contour>
    <contour>
      <point x="204" y="252" type="curve" smooth="yes"/>
      <point x="322" y="252"/>
      <point x="365" y="367"/>
      <point x="365" y="446" type="curve" smooth="yes"/>
      <point x="365" y="526"/>
      <point x="322" y="640"/>
      <point x="204" y="640" type="curve" smooth="yes"/>
      <point x="86" y="640"/>
      <point x="43" y="526"/>
      <point x="43" y="446" type="curve" smooth="yes"/>
      <point x="43" y="367"/>
      <point x="86" y="252"/>
    </contour>
    <contour>
      <point x="142" y="447" type="curve" smooth="yes"/>
      <point x="142" y="502"/>
      <point x="150" y="600"/>
      <point x="206" y="600" type="curve" smooth="yes"/>
      <point x="261" y="600"/>
      <point x="266" y="499"/>
      <point x="266" y="447" type="curve" smooth="yes"/>
      <point x="266" y="395"/>
      <point x="261" y="292"/>
      <point x="206" y="292" type="curve" smooth="yes"/>
      <point x="150" y="292"/>
      <point x="142" y="393"/>
    </contour>
    <contour>
      <point x="268" y="-40" type="curve"/>
      <point x="389" y="183"/>
      <point x="513" y="407"/>
      <point x="638" y="630" type="curve"/>
      <point x="633" y="647"/>
      <point x="608" y="656"/>
      <point x="593" y="654" type="curve"/>
      <point x="472" y="431"/>
      <point x="348" y="207"/>
      <point x="223" y="-16" type="curve"/>
      <point x="230" y="-33"/>
      <point x="250" y="-44"/>
    </contour>
  </outline>
</glyph>
<glyph name="zero" format="1">
  <advance width="520"/>
  <unicode hex="0030"/>
  <outline>
    <contour>
      <point x="260" y="640" type="curve" smooth="yes" name="hr00"/>
      <point x="98" y="640"/>
      <point x="29" y="468"/>
      <point x="29" y="313" type="curve" smooth="yes"/>
      <point x="29" y="152"/>
      <point x="98" y="-14"/>
      <point x="260" y="-14" type="curve" smooth="yes"/>
      <point x="422" y="-14"/>
      <point x="491" y="152"/>
      <point x="491" y="313" type="curve" smooth="yes"/>
      <point x="491" y="468"/>
      <point x="422" y="640"/>
    </contour>
    <contour>
      <point x="175" y="313" type="curve" smooth="yes"/>
      <point x="175" y="402"/>
      <point x="184" y="594"/>
      <point x="260" y="594" type="curve" smooth="yes"/>
      <point x="336" y="594"/>
      <point x="345" y="402"/>
      <point x="345" y="313" type="curve" smooth="yes"/>
      <point x="345" y="224"/>
      <point x="336" y="32"/>
      <point x="260" y="32" type="curve" smooth="yes"/>
      <point x="184" y="32"/>
      <point x="175" y="224"/>
    </contour>
  </outline>
</glyph>
<glyph name="seven" format="1">
  <advance width="520"/>
  <unicode hex="0037"/>
  <outline>
    <contour>
      <point x="169" y="626" type="line" smooth="yes" name="hr01"/>
      <point x="106" y="626"/>
      <point x="82" y="627"/>
      <point x="49" y="629" type="curve" name="hr02"/>
      <point x="40" y="591"/>
      <point x="27" y="528"/>
      <point x="10" y="479" type="curve" name="hr03"/>
      <point x="14" y="468"/>
      <point x="36" y="463"/>
      <point x="44" y="472" type="curve"/>
      <point x="67" y="514"/>
      <point x="77" y="521"/>
      <point x="135" y="521" type="curve" smooth="yes"/>
      <point x="347" y="521" type="line" smooth="yes"/>
      <point x="362" y="521"/>
      <point x="376" y="518"/>
      <point x="376" y="505" type="curve" smooth="yes"/>
      <point x="376" y="488"/>
      <point x="365" y="465"/>
      <point x="343" y="426" type="curve" smooth="yes"/>
      <point x="80" y="-31" type="line"/>
      <point x="82" y="-53"/>
      <point x="111" y="-65"/>
      <point x="128" y="-62" type="curve"/>
      <point x="416" y="448" type="line" smooth="yes"/>
      <point x="458" y="522"/>
      <point x="490" y="576"/>
      <point x="515" y="613" type="curve" name="hr04"/>
      <point x="516" y="619"/>
      <point x="513" y="627"/>
      <point x="506" y="629" type="curve"/>
      <point x="493" y="627"/>
      <point x="424" y="626"/>
      <point x="361" y="626" type="curve" smooth="yes" name="hr05"/>
    </contour>
  </outline>
</glyph>
<glyph name="semicolon" format="1">
  <advance width="260"/>
  <unicode hex="003B"/>
  <outline>
    <contour>
      <point x="116" y="168" type="curve" smooth="yes" name="hr01"/>
      <point x="76" y="168"/>
      <point x="44" y="139"/>
      <point x="44" y="103" type="curve" smooth="yes"/>
      <point x="44" y="80"/>
      <point x="58" y="63"/>
      <point x="75" y="58" type="curve" smooth="yes"/>
      <point x="100" y="51"/>
      <point x="133" y="37"/>
      <point x="133" y="-7" type="curve" smooth="yes"/>
      <point x="133" y="-56"/>
      <point x="82" y="-90"/>
      <point x="44" y="-104" type="curve"/>
      <point x="33" y="-111"/>
      <point x="37" y="-134"/>
      <point x="55" y="-136" type="curve"/>
      <point x="141" y="-116"/>
      <point x="219" y="-60"/>
      <point x="219" y="39" type="curve" smooth="yes"/>
      <point x="219" y="132"/>
      <point x="159" y="168"/>
    </contour>
    <contour>
      <point x="130" y="230" type="curve" smooth="yes" name="hr02"/>
      <point x="178" y="230"/>
      <point x="211" y="263"/>
      <point x="211" y="308" type="curve" smooth="yes"/>
      <point x="211" y="354"/>
      <point x="178" y="394"/>
      <point x="130" y="394" type="curve" smooth="yes"/>
      <point x="85" y="394"/>
      <point x="49" y="357"/>
      <point x="49" y="308" type="curve" smooth="yes"/>
      <point x="49" y="260"/>
      <point x="90" y="230"/>
    </contour>
  </outline>
</glyph>
<glyph name="equal" format="1">
  <advance width="520"/>
  <unicode hex="003D"/>
  <outline>
    <contour>
      <point x="461" y="106" type="line" name="hr00"/>
      <point x="461" y="178" type="line"/>
      <point x="60" y="178" type="line"/>
      <point x="60" y="106" type="line"/>
    </contour>
    <contour>
      <point x="461" y="250" type="line"/>
      <point x="461" y="322" type="line"/>
      <point x="60" y="322" type="line"/>
      <point x="60" y="250" type="line"/>
    </contour>
  </outline>
</glyph>
<glyph name="E" format="1">
  <advance width="593"/>
  <unicode hex="0045"/>
  <outline>
    <contour>
      <point x="257" y="575" type="line" smooth="yes" name="hr01"/>
      <point x="257" y="612"/>
      <point x="257" y="614"/>
      <point x="290" y="614" type="curve" smooth="yes"/>
      <point x="370" y="614" type="line" smooth="yes"/>
      <point x="419" y="614"/>
      <point x="449" y="602"/>
      <point x="468" y="583" type="curve" smooth="yes"/>
      <point x="481" y="569"/>
      <point x="495" y="539"/>
      <point x="506" y="504" type="curve"/>
      <point x="516" y="495"/>
      <point x="539" y="497"/>
      <point x="543" y="508" type="curve"/>
      <point x="538" y="575"/>
      <point x="531" y="647"/>
      <point x="530" y="663" type="curve" name="hr02"/>
      <point x="517" y="661"/>
      <point x="460" y="660"/>
      <point x="396" y="660" type="curve" smooth="yes" name="hr03"/>
      <point x="184" y="660" type="line" smooth="yes"/>
      <point x="136" y="660"/>
      <point x="87" y="661"/>
      <point x="40" y="663" type="curve" name="hr04"/>
      <point x="30" y="657"/>
      <point x="29" y="634"/>
      <point x="38" y="628" type="curve"/>
      <point x="63" y="623" type="line" smooth="yes"/>
      <point x="108" y="614"/>
      <point x="114" y="608"/>
      <point x="114" y="517" type="curve" smooth="yes"/>
      <point x="114" y="144" type="line" smooth="yes"/>
      <point x="114" y="52"/>
      <point x="108" y="46"/>
      <point x="63" y="39" type="curve" smooth="yes"/>
      <point x="16" y="32" type="line"/>
      <point x="8" y="27"/>
      <point x="8" y="3"/>
      <point x="16" y="-3" type="curve" name="hr05"/>
      <point x="91" y="-1"/>
      <point x="140" y="0"/>
      <point x="188" y="0" type="curve" smooth="yes" name="hr06"/>
      <point x="318" y="0" type="line" smooth="yes"/>
      <point x="400" y="0"/>
      <point x="496" y="-1"/>
      <point x="549" y="-3" type="curve"/>
      <point x="563" y="24"/>
      <point x="587" y="105"/>
      <point x="591" y="157" type="curve"/>
      <point x="587" y="169"/>
      <point x="562" y="173"/>
      <point x="554" y="162" type="curve"/>
      <point x="499" y="49"/>
      <point x="465" y="46"/>
      <point x="378" y="46" type="curve" smooth="yes"/>
      <point x="305" y="46"/>
      <point x="286" y="54"/>
      <point x="273" y="72" type="curve" smooth="yes"/>
      <point x="261" y="89"/>
      <point x="257" y="121"/>
      <point x="257" y="167" type="curve" smooth="yes"/>
      <point x="257" y="286" type="line" smooth="yes"/>
      <point x="257" y="316"/>
      <point x="258" y="317"/>
      <point x="285" y="317" type="curve" smooth="yes"/>
      <point x="354" y="317" type="line" smooth="yes"/>
      <point x="406" y="317"/>
      <point x="418" y="309"/>
      <point x="428" y="261" type="curve" smooth="yes"/>
      <point x="433" y="236" type="line"/>
      <point x="440" y="227"/>
      <point x="465" y="228"/>
      <point x="470" y="237" type="curve"/>
      <point x="468" y="269"/>
      <point x="467" y="305"/>
      <point x="467" y="343" type="curve" smooth="yes"/>
      <point x="467" y="381"/>
      <point x="468" y="417"/>
      <point x="470" y="449" type="curve"/>
      <point x="465" y="458"/>
      <point x="440" y="458"/>
      <point x="433" y="450" type="curve"/>
      <point x="428" y="425" type="line" smooth="yes"/>
      <point x="418" y="377"/>
      <point x="406" y="370"/>
      <point x="354" y="370" type="curve" smooth="yes"/>
      <point x="285" y="370" type="line" smooth="yes"/>
      <point x="258" y="370"/>
      <point x="257" y="372"/>
      <point x="257" y="400" type="curve" smooth="yes"/>
    </contour>
  </outline>
</glyph>
<glyph name="M" format="1">
  <advance width="908"/>
  <unicode hex="004D"/>
  <outline>
    <contour>
      <point x="56" y="624" type="line" smooth="yes" name="hr01"/>
      <point x="96" y="617"/>
      <point x="118" y="602"/>
      <point x="118" y="545" type="curve" smooth="yes"/>
      <point x="118" y="491"/>
      <point x="116" y="410"/>
      <point x="112" y="343" type="curve" smooth="yes"/>
      <point x="106" y="248"/>
      <point x="103" y="161"/>
      <point x="98" y="112" type="curve" smooth="yes"/>
      <point x="92" y="50"/>
      <point x="86" y="44"/>
      <point x="35" y="35" type="curve" smooth="yes"/>
      <point x="17" y="32" type="line"/>
      <point x="8" y="27"/>
      <point x="8" y="1"/>
      <point x="21" y="-3" type="curve"/>
      <point x="61" y="-1"/>
      <point x="99" y="0"/>
      <point x="131" y="0" type="curve" smooth="yes"/>
      <point x="169" y="0"/>
      <point x="212" y="-1"/>
      <point x="249" y="-3" type="curve"/>
      <point x="257" y="2"/>
      <point x="259" y="25"/>
      <point x="251" y="32" type="curve"/>
      <point x="212" y="38" type="line" smooth="yes"/>
      <point x="172" y="44"/>
      <point x="166" y="58"/>
      <point x="166" y="108" type="curve" smooth="yes"/>
      <point x="166" y="168"/>
      <point x="167" y="268"/>
      <point x="168" y="333" type="curve" smooth="yes"/>
      <point x="169" y="385"/>
      <point x="170" y="429"/>
      <point x="174" y="494" type="curve"/>
      <point x="176" y="494" type="line"/>
      <point x="232" y="364"/>
      <point x="355" y="116"/>
      <point x="394" y="-8" type="curve" name="hr02"/>
      <point x="400" y="-12"/>
      <point x="411" y="-14"/>
      <point x="420" y="-14" type="curve" smooth="yes"/>
      <point x="428" y="-14"/>
      <point x="435" y="-11"/>
      <point x="440" y="-7" type="curve"/>
      <point x="506" y="162"/>
      <point x="586" y="329"/>
      <point x="660" y="489" type="curve"/>
      <point x="662" y="489" type="line"/>
      <point x="662" y="375" type="line"/>
      <point x="664" y="115" type="line" smooth="yes" name="hr03"/>
      <point x="664" y="54"/>
      <point x="664" y="42"/>
      <point x="618" y="36" type="curve" smooth="yes"/>
      <point x="588" y="32" type="line"/>
      <point x="578" y="25"/>
      <point x="579" y="2"/>
      <point x="591" y="-3" type="curve"/>
      <point x="639" y="-1"/>
      <point x="694" y="0"/>
      <point x="739" y="0" type="curve" smooth="yes"/>
      <point x="788" y="0"/>
      <point x="831" y="-1"/>
      <point x="877" y="-3" type="curve"/>
      <point x="887" y="1"/>
      <point x="887" y="24"/>
      <point x="879" y="32" type="curve"/>
      <point x="847" y="36" type="line" smooth="yes"/>
      <point x="808" y="41"/>
      <point x="804" y="65"/>
      <point x="802" y="111" type="curve" smooth="yes"/>
      <point x="796" y="237"/>
      <point x="794" y="345"/>
      <point x="794" y="551" type="curve" smooth="yes"/>
      <point x="794" y="604"/>
      <point x="814" y="616"/>
      <point x="855" y="623" type="curve" smooth="yes"/>
      <point x="884" y="628" type="line"/>
      <point x="892" y="638"/>
      <point x="892" y="657"/>
      <point x="881" y="663" type="curve"/>
      <point x="845" y="661"/>
      <point x="799" y="660"/>
      <point x="766" y="660" type="curve" smooth="yes"/>
      <point x="736" y="660"/>
      <point x="713" y="659"/>
      <point x="667" y="663" type="curve"/>
      <point x="645" y="577"/>
      <point x="620" y="524"/>
      <point x="572" y="421" type="curve" smooth="yes"/>
      <point x="521" y="311" type="line" smooth="yes"/>
      <point x="494" y="252"/>
      <point x="478" y="221"/>
      <point x="465" y="197" type="curve"/>
      <point x="451" y="222"/>
      <point x="415" y="285"/>
      <point x="406" y="305" type="curve" smooth="yes"/>
      <point x="340" y="446" type="line" smooth="yes"/>
      <point x="296" y="540"/>
      <point x="261" y="601"/>
      <point x="261" y="663" type="curve"/>
      <point x="225" y="660"/>
      <point x="196" y="660"/>
      <point x="163" y="660" type="curve" smooth="yes"/>
      <point x="114" y="660"/>
      <point x="71" y="661"/>
      <point x="37" y="663" type="curve"/>
      <point x="26" y="660"/>
      <point x="26" y="636"/>
      <point x="34" y="628" type="curve"/>
    </contour>
  </outline>
</glyph>
<glyph name="W" format="1">
  <advance width="960"/>
  <unicode hex="0057"/>
  <outline>
    <contour>
      <point x="1011" y="628" type="line" name="hr01"/>
      <point x="1018" y="636"/>
      <point x="1017" y="658"/>
      <point x="1008" y="663" type="curve"/>
      <point x="980" y="661"/>
      <point x="951" y="660"/>
      <point x="916" y="660" type="curve" smooth="yes"/>
      <point x="886" y="660"/>
      <point x="845" y="661"/>
      <point x="813" y="663" type="curve"/>
      <point x="804" y="658"/>
      <point x="802" y="637"/>
      <point x="810" y="628" type="curve"/>
      <point x="832" y="622" type="line" smooth="yes"/>
      <point x="845" y="618"/>
      <point x="861" y="614"/>
      <point x="861" y="604" type="curve" smooth="yes"/>
      <point x="861" y="593"/>
      <point x="842" y="540"/>
      <point x="835" y="523" type="curve" smooth="yes"/>
      <point x="787" y="401"/>
      <point x="732" y="274"/>
      <point x="684" y="158" type="curve"/>
      <point x="678" y="172"/>
      <point x="664" y="204"/>
      <point x="638" y="259" type="curve" smooth="yes"/>
      <point x="591" y="360" type="line" smooth="yes"/>
      <point x="584" y="376"/>
      <point x="583" y="382"/>
      <point x="583" y="385" type="curve" smooth="yes"/>
      <point x="583" y="390"/>
      <point x="596" y="419"/>
      <point x="605" y="437" type="curve" smooth="yes"/>
      <point x="618" y="463"/>
      <point x="643" y="513"/>
      <point x="667" y="554" type="curve" smooth="yes" name="hr02"/>
      <point x="702" y="614"/>
      <point x="709" y="614"/>
      <point x="743" y="621" type="curve" smooth="yes"/>
      <point x="771" y="627" type="line"/>
      <point x="780" y="634"/>
      <point x="778" y="658"/>
      <point x="770" y="663" type="curve" name="hr03"/>
      <point x="744" y="661"/>
      <point x="707" y="660"/>
      <point x="668" y="660" type="curve" smooth="yes"/>
      <point x="635" y="660"/>
      <point x="599" y="661"/>
      <point x="570" y="663" type="curve"/>
      <point x="561" y="658"/>
      <point x="560" y="635"/>
      <point x="567" y="628" type="curve"/>
      <point x="603" y="621" type="line"/>
      <point x="619" y="617"/>
      <point x="623" y="614"/>
      <point x="623" y="607" type="curve" smooth="yes"/>
      <point x="623" y="601"/>
      <point x="611" y="571"/>
      <point x="594" y="533" type="curve" smooth="yes"/>
      <point x="585" y="513" type="line"/>
      <point x="554" y="445" type="line"/>
      <point x="545" y="463"/>
      <point x="532" y="490"/>
      <point x="523" y="511" type="curve" smooth="yes"/>
      <point x="493" y="580" type="line" smooth="yes"/>
      <point x="488" y="591"/>
      <point x="484" y="602"/>
      <point x="484" y="610" type="curve" smooth="yes"/>
      <point x="484" y="617"/>
      <point x="499" y="621"/>
      <point x="511" y="624" type="curve" smooth="yes"/>
      <point x="528" y="628" type="line"/>
      <point x="535" y="633"/>
      <point x="536" y="660"/>
      <point x="524" y="663" type="curve"/>
      <point x="498" y="661"/>
      <point x="460" y="660"/>
      <point x="409" y="660" type="curve" smooth="yes"/>
      <point x="365" y="660"/>
      <point x="326" y="661"/>
      <point x="283" y="663" type="curve"/>
      <point x="272" y="659"/>
      <point x="270" y="636"/>
      <point x="280" y="628" type="curve"/>
      <point x="290" y="627" type="line" smooth="yes"/>
      <point x="328" y="623"/>
      <point x="335" y="616"/>
      <point x="358" y="566" type="curve" smooth="yes"/>
      <point x="454" y="355" type="line" smooth="yes"/>
      <point x="458" y="345"/>
      <point x="465" y="324"/>
      <point x="465" y="318" type="curve" smooth="yes"/>
      <point x="465" y="312"/>
      <point x="462" y="299"/>
      <point x="455" y="283" type="curve" smooth="yes"/>
      <point x="442" y="254" type="line" smooth="yes"/>
      <point x="426" y="218"/>
      <point x="403" y="171"/>
      <point x="391" y="151" type="curve"/>
      <point x="379" y="175"/>
      <point x="364" y="203"/>
      <point x="336" y="265" type="curve" smooth="yes"/>
      <point x="237" y="486" type="line" smooth="yes"/>
      <point x="206" y="556"/>
      <point x="185" y="603"/>
      <point x="185" y="610" type="curve" smooth="yes"/>
      <point x="185" y="617"/>
      <point x="192" y="622"/>
      <point x="210" y="625" type="curve" smooth="yes"/>
      <point x="228" y="628" type="line"/>
      <point x="238" y="634"/>
      <point x="234" y="659"/>
      <point x="226" y="663" type="curve"/>
      <point x="188" y="661"/>
      <point x="149" y="660"/>
      <point x="105" y="660" type="curve" smooth="yes"/>
      <point x="54" y="660"/>
      <point x="12" y="661"/>
      <point x="-25" y="663" type="curve"/>
      <point x="-36" y="658"/>
      <point x="-37" y="638"/>
      <point x="-29" y="628" type="curve"/>
      <point x="-4" y="623" type="line" smooth="yes"/>
      <point x="29" y="616"/>
      <point x="35" y="611"/>
      <point x="62" y="552" type="curve" smooth="yes"/>
      <point x="225" y="199" type="line" smooth="yes"/>
      <point x="259" y="124"/>
      <point x="299" y="34"/>
      <point x="315" y="-8" type="curve"/>
      <point x="324" y="-13"/>
      <point x="331" y="-16"/>
      <point x="342" y="-16" type="curve" smooth="yes"/>
      <point x="357" y="-16"/>
      <point x="371" y="-13"/>
      <point x="376" y="-8" type="curve"/>
      <point x="392" y="25"/>
      <point x="403" y="54"/>
      <point x="418" y="86" type="curve" smooth="yes"/>
      <point x="464" y="183" type="line" smooth="yes"/>
      <point x="477" y="211"/>
      <point x="489" y="235"/>
      <point x="498" y="252" type="curve"/>
      <point x="507" y="237"/>
      <point x="520" y="207"/>
      <point x="534" y="175" type="curve" smooth="yes"/>
      <point x="576" y="80" type="line" smooth="yes"/>
      <point x="588" y="52"/>
      <point x="603" y="16"/>
      <point x="614" y="-8" type="curve"/>
      <point x="621" y="-13"/>
      <point x="630" y="-16"/>
      <point x="641" y="-16" type="curve" smooth="yes"/>
      <point x="654" y="-16"/>
      <point x="668" y="-13"/>
      <point x="674" y="-8" type="curve"/>
      <point x="723" y="122"/>
      <point x="832" y="371"/>
      <point x="881" y="488" type="curve" smooth="yes"/>
      <point x="908" y="551"/>
      <point x="925" y="583"/>
      <point x="936" y="599" type="curve" smooth="yes" name="hr04"/>
      <point x="943" y="608"/>
      <point x="958" y="616"/>
      <point x="981" y="621" type="curve" smooth="yes"/>
    </contour>
  </outline>
</glyph>
<glyph name="X" format="1">
  <advance width="665"/>
  <unicode hex="0058"/>
  <outline>
    <contour>
      <point x="-12" y="30" type="line" name="hr00"/>
      <point x="-21" y="24"/>
      <point x="-18" y="2"/>
      <point x="-8" y="-3" type="curve"/>
      <point x="22" y="-1"/>
      <point x="64" y="0"/>
      <point x="97" y="0" type="curve" smooth="yes"/>
      <point x="139" y="0"/>
      <point x="184" y="-1"/>
      <point x="228" y="-3" type="curve"/>
      <point x="239" y="1"/>
      <point x="240" y="25"/>
      <point x="231" y="32" type="curve"/>
      <point x="205" y="35" type="line" smooth="yes"/>
      <point x="184" y="37"/>
      <point x="173" y="42"/>
      <point x="173" y="48" type="curve" smooth="yes"/>
      <point x="173" y="54"/>
      <point x="175" y="61"/>
      <point x="182" y="75" type="curve" smooth="yes"/>
      <point x="215" y="138"/>
      <point x="262" y="214"/>
      <point x="301" y="271" type="curve"/>
      <point x="316" y="252"/>
      <point x="392" y="135"/>
      <point x="407" y="108" type="curve" smooth="yes"/>
      <point x="432" y="66"/>
      <point x="436" y="57"/>
      <point x="436" y="49" type="curve" smooth="yes"/>
      <point x="436" y="43"/>
      <point x="424" y="38"/>
      <point x="399" y="35" type="curve" smooth="yes"/>
      <point x="372" y="32" type="line"/>
      <point x="362" y="27"/>
      <point x="366" y="1"/>
      <point x="375" y="-3" type="curve"/>
      <point x="429" y="-1"/>
      <point x="474" y="0"/>
      <point x="543" y="0" type="curve" smooth="yes"/>
      <point x="624" y="0"/>
      <point x="655" y="-1"/>
      <point x="699" y="-3" type="curve"/>
      <point x="709" y="4"/>
      <point x="709" y="25"/>
      <point x="702" y="32" type="curve"/>
      <point x="671" y="36" type="line" smooth="yes"/>
      <point x="633" y="41"/>
      <point x="608" y="55"/>
      <point x="573" y="108" type="curve" smooth="yes"/>
      <point x="537" y="162"/>
      <point x="488" y="237"/>
      <point x="413" y="353" type="curve" smooth="yes"/>
      <point x="403" y="368"/>
      <point x="399" y="379"/>
      <point x="399" y="384" type="curve" smooth="yes"/>
      <point x="399" y="389"/>
      <point x="409" y="404"/>
      <point x="419" y="418" type="curve" smooth="yes"/>
      <point x="466" y="482"/>
      <point x="510" y="548"/>
      <point x="558" y="597" type="curve" smooth="yes"/>
      <point x="576" y="615"/>
      <point x="594" y="619"/>
      <point x="615" y="622" type="curve" smooth="yes"/>
      <point x="657" y="628" type="line"/>
      <point x="664" y="637"/>
      <point x="663" y="658"/>
      <point x="653" y="663" type="curve"/>
      <point x="621" y="661"/>
      <point x="580" y="660"/>
      <point x="532" y="660" type="curve" smooth="yes"/>
      <point x="485" y="660"/>
      <point x="453" y="661"/>
      <point x="422" y="663" type="curve"/>
      <point x="411" y="658"/>
      <point x="411" y="635"/>
      <point x="419" y="628" type="curve"/>
      <point x="459" y="621" type="line" smooth="yes"/>
      <point x="472" y="619"/>
      <point x="479" y="614"/>
      <point x="479" y="611" type="curve" smooth="yes"/>
      <point x="479" y="606"/>
      <point x="479" y="599"/>
      <point x="468" y="581" type="curve" smooth="yes"/>
      <point x="437" y="528"/>
      <point x="404" y="479"/>
      <point x="367" y="423" type="curve"/>
      <point x="336" y="468"/>
      <point x="300" y="523"/>
      <point x="273" y="570" type="curve" smooth="yes"/>
      <point x="261" y="591"/>
      <point x="257" y="600"/>
      <point x="257" y="609" type="curve" smooth="yes"/>
      <point x="257" y="616"/>
      <point x="275" y="621"/>
      <point x="291" y="624" type="curve" smooth="yes"/>
      <point x="313" y="628" type="line"/>
      <point x="320" y="636"/>
      <point x="320" y="658"/>
      <point x="309" y="663" type="curve"/>
      <point x="278" y="661"/>
      <point x="238" y="660"/>
      <point x="157" y="660" type="curve" smooth="yes"/>
      <point x="96" y="660"/>
      <point x="33" y="661"/>
      <point x="1" y="663" type="curve"/>
      <point x="-9" y="657"/>
      <point x="-9" y="636"/>
      <point x="0" y="628" type="curve"/>
      <point x="17" y="625" type="line" smooth="yes"/>
      <point x="62" y="617"/>
      <point x="83" y="604"/>
      <point x="106" y="571" type="curve" smooth="yes"/>
      <point x="153" y="504"/>
      <point x="216" y="405"/>
      <point x="249" y="356" type="curve" smooth="yes"/>
      <point x="262" y="338"/>
      <point x="267" y="325"/>
      <point x="267" y="321" type="curve" smooth="yes"/>
      <point x="267" y="315"/>
      <point x="262" y="303"/>
      <point x="253" y="290" type="curve" smooth="yes"/>
      <point x="210" y="226"/>
      <point x="156" y="148"/>
      <point x="127" y="110" type="curve" smooth="yes"/>
      <point x="94" y="65"/>
      <point x="71" y="41"/>
      <point x="11" y="33" type="curve" smooth="yes"/>
    </contour>
  </outline>
</glyph>
<glyph name="Y" format="1">
  <advance width="575"/>
  <unicode hex="0059"/>
  <outline>
    <contour>
      <point x="367" y="214" type="line" smooth="yes" name="hr00"/>
      <point x="367" y="271"/>
      <point x="374" y="296"/>
      <point x="400" y="343" type="curve" smooth="yes"/>
      <point x="463" y="457" type="line" smooth="yes"/>
      <point x="511" y="544"/>
      <point x="535" y="580"/>
      <point x="550" y="599" type="curve" smooth="yes"/>
      <point x="561" y="613"/>
      <point x="584" y="620"/>
      <point x="602" y="623" type="curve" smooth="yes"/>
      <point x="628" y="628" type="line"/>
      <point x="636" y="635"/>
      <point x="636" y="659"/>
      <point x="624" y="663" type="curve"/>
      <point x="595" y="661"/>
      <point x="564" y="660"/>
      <point x="526" y="660" type="curve" smooth="yes"/>
      <point x="490" y="660"/>
      <point x="454" y="661"/>
      <point x="414" y="663" type="curve"/>
      <point x="404" y="658"/>
      <point x="405" y="633"/>
      <point x="413" y="628" type="curve"/>
      <point x="432" y="624" type="line" smooth="yes"/>
      <point x="456" y="620"/>
      <point x="472" y="614"/>
      <point x="472" y="608" type="curve" smooth="yes"/>
      <point x="472" y="596"/>
      <point x="460" y="566"/>
      <point x="424" y="495" type="curve" smooth="yes"/>
      <point x="398" y="444"/>
      <point x="367" y="379"/>
      <point x="338" y="330" type="curve"/>
      <point x="326" y="355"/>
      <point x="303" y="401"/>
      <point x="288" y="434" type="curve" smooth="yes"/>
      <point x="241" y="541" type="line" smooth="yes"/>
      <point x="220" y="588"/>
      <point x="215" y="603"/>
      <point x="215" y="611" type="curve" smooth="yes"/>
      <point x="215" y="612"/>
      <point x="221" y="616"/>
      <point x="239" y="620" type="curve" smooth="yes"/>
      <point x="273" y="628" type="line"/>
      <point x="282" y="636"/>
      <point x="280" y="659"/>
      <point x="271" y="663" type="curve"/>
      <point x="237" y="661"/>
      <point x="186" y="660"/>
      <point x="125" y="660" type="curve" smooth="yes"/>
      <point x="66" y="660"/>
      <point x="29" y="661"/>
      <point x="-16" y="663" type="curve"/>
      <point x="-28" y="660"/>
      <point x="-29" y="636"/>
      <point x="-20" y="628" type="curve"/>
      <point x="14" y="622" type="line" smooth="yes"/>
      <point x="49" y="616"/>
      <point x="58" y="600"/>
      <point x="78" y="559" type="curve" smooth="yes"/>
      <point x="197" y="313" type="line" smooth="yes"/>
      <point x="223" y="260"/>
      <point x="224" y="244"/>
      <point x="224" y="194" type="curve" smooth="yes"/>
      <point x="224" y="144" type="line" smooth="yes"/>
      <point x="224" y="51"/>
      <point x="218" y="44"/>
      <point x="173" y="37" type="curve" smooth="yes"/>
      <point x="139" y="32" type="line"/>
      <point x="131" y="26"/>
      <point x="131" y="3"/>
      <point x="139" y="-3" type="curve"/>
      <point x="198" y="-1"/>
      <point x="248" y="0"/>
      <point x="296" y="0" type="curve" smooth="yes"/>
      <point x="344" y="0"/>
      <point x="393" y="-1"/>
      <point x="458" y="-3" type="curve"/>
      <point x="465" y="3"/>
      <point x="465" y="26"/>
      <point x="458" y="32" type="curve"/>
      <point x="418" y="37" type="line" smooth="yes"/>
      <point x="373" y="43"/>
      <point x="367" y="51"/>
      <point x="367" y="144" type="curve" smooth="yes"/>
    </contour>
  </outline>
</glyph>
<glyph name="Z" format="1">
  <advance width="614"/>
  <unicode hex="005A"/>
  <outline>
    <contour>
      <point x="360" y="614" type="line" smooth="yes" name="hr01"/>
      <point x="385" y="614"/>
      <point x="394" y="612"/>
      <point x="394" y="608" type="curve" smooth="yes"/>
      <point x="394" y="602"/>
      <point x="391" y="597"/>
      <point x="384" y="584" type="curve" smooth="yes"/>
      <point x="366" y="551"/>
      <point x="318" y="476"/>
      <point x="300" y="448" type="curve" smooth="yes"/>
      <point x="103" y="148" type="line" smooth="yes"/>
      <point x="73" y="103"/>
      <point x="26" y="31"/>
      <point x="11" y="14" type="curve" name="hr02"/>
      <point x="9" y="8"/>
      <point x="12" y="0"/>
      <point x="19" y="-3" type="curve"/>
      <point x="35" y="-1"/>
      <point x="67" y="0"/>
      <point x="120" y="0" type="curve" smooth="yes" name="hr03"/>
      <point x="372" y="0" type="line" smooth="yes"/>
      <point x="442" y="0"/>
      <point x="497" y="-1"/>
      <point x="581" y="-3" type="curve"/>
      <point x="597" y="22"/>
      <point x="619" y="110"/>
      <point x="625" y="165" type="curve"/>
      <point x="618" y="176"/>
      <point x="598" y="180"/>
      <point x="586" y="172" type="curve"/>
      <point x="531" y="59"/>
      <point x="497" y="46"/>
      <point x="399" y="46" type="curve" smooth="yes"/>
      <point x="306" y="46" type="line" smooth="yes"/>
      <point x="225" y="46"/>
      <point x="214" y="51"/>
      <point x="214" y="59" type="curve" smooth="yes"/>
      <point x="214" y="71"/>
      <point x="239" y="108"/>
      <point x="340" y="265" type="curve" smooth="yes"/>
      <point x="449" y="434" type="line" smooth="yes"/>
      <point x="528" y="556"/>
      <point x="583" y="631"/>
      <point x="599" y="648" type="curve"/>
      <point x="600" y="654"/>
      <point x="598" y="660"/>
      <point x="593" y="663" type="curve"/>
      <point x="576" y="661"/>
      <point x="545" y="660"/>
      <point x="476" y="660" type="curve" smooth="yes" name="hr04"/>
      <point x="190" y="660" type="line" smooth="yes"/>
      <point x="116" y="660"/>
      <point x="111" y="664"/>
      <point x="105" y="684" type="curve"/>
      <point x="97" y="687"/>
      <point x="83" y="687"/>
      <point x="79" y="683" type="curve"/>
      <point x="69" y="630"/>
      <point x="59" y="576"/>
      <point x="40" y="506" type="curve"/>
      <point x="46" y="495"/>
      <point x="68" y="491"/>
      <point x="81" y="499" type="curve"/>
      <point x="115" y="583"/>
      <point x="136" y="614"/>
      <point x="252" y="614" type="curve" smooth="yes"/>
    </contour>
  </outline>
</glyph>
<glyph name="bracketright" format="1">
  <advance width="340"/>
  <unicode hex="005D"/>
  <outline>
    <contour>
      <point x="219" y="688" type="line" name="hr00"/>
      <point x="196" y="689"/>
      <point x="174" y="689"/>
      <point x="141" y="689" type="curve" smooth="yes"/>
      <point x="86" y="689"/>
      <point x="46" y="687"/>
      <point x="31" y="685" type="curve"/>
      <point x="23" y="681"/>
      <point x="23" y="658"/>
      <point x="30" y="654" type="curve"/>
      <point x="99" y="643" type="line" smooth="yes"/>
      <point x="131" y="638"/>
      <point x="137" y="623"/>
      <point x="137" y="483" type="curve" smooth="yes"/>
      <point x="137" y="53" type="line" smooth="yes"/>
      <point x="137" y="-87"/>
      <point x="131" y="-102"/>
      <point x="99" y="-107" type="curve" smooth="yes"/>
      <point x="30" y="-118" type="line"/>
      <point x="23" y="-122"/>
      <point x="23" y="-145"/>
      <point x="31" y="-149" type="curve"/>
      <point x="46" y="-151"/>
      <point x="86" y="-153"/>
      <point x="141" y="-153" type="curve" smooth="yes"/>
      <point x="174" y="-153"/>
      <point x="196" y="-153"/>
      <point x="219" y="-152" type="curve"/>
    </contour>
  </outline>
</glyph>
<glyph name="c" format="1">
  <advance width="416"/>
  <unicode hex="0063"/>
  <outline>
    <contour>
      <point x="281" y="414" type="curve" smooth="yes" name="hr00"/>
      <point x="146" y="414"/>
      <point x="31" y="330"/>
      <point x="31" y="188" type="curve" smooth="yes"/>
      <point x="31" y="70"/>
      <point x="117" y="-14"/>
      <point x="243" y="-14" type="curve" smooth="yes"/>
      <point x="338" y="-14"/>
      <point x="398" y="43"/>
      <point x="420" y="93" type="curve"/>
      <point x="420" y="109"/>
      <point x="406" y="116"/>
      <point x="394" y="115" type="curve"/>
      <point x="372" y="78"/>
      <point x="342" y="66"/>
      <point x="305" y="66" type="curve" smooth="yes"/>
      <point x="213" y="66"/>
      <point x="162" y="146"/>
      <point x="162" y="225" type="curve" smooth="yes"/>
      <point x="162" y="294"/>
      <point x="197" y="368"/>
      <point x="262" y="368" type="curve" smooth="yes"/>
      <point x="298" y="368"/>
      <point x="337" y="333"/>
      <point x="365" y="293" type="curve" smooth="yes"/>
      <point x="367" y="290"/>
      <point x="376" y="288"/>
      <point x="381" y="288" type="curve" smooth="yes"/>
      <point x="393" y="288"/>
      <point x="407" y="315"/>
      <point x="407" y="345" type="curve" smooth="yes"/>
      <point x="407" y="372"/>
      <point x="399" y="386"/>
      <point x="386" y="397" type="curve"/>
      <point x="359" y="407"/>
      <point x="315" y="414"/>
    </contour>
  </outline>
</glyph>
<glyph name="j" format="1">
  <advance width="281"/>
  <unicode hex="006A"/>
  <outline>
    <contour>
      <point x="215" y="300" type="line" smooth="yes" name="hr01"/>
      <point x="215" y="345"/>
      <point x="216" y="389"/>
      <point x="218" y="419" type="curve"/>
      <point x="214" y="425"/>
      <point x="208" y="428"/>
      <point x="200" y="428" type="curve"/>
      <point x="169" y="410"/>
      <point x="99" y="383"/>
      <point x="52" y="370" type="curve"/>
      <point x="45" y="364"/>
      <point x="45" y="346"/>
      <point x="52" y="340" type="curve"/>
      <point x="66" y="331" type="line" smooth="yes"/>
      <point x="85" y="319"/>
      <point x="85" y="307"/>
      <point x="85" y="267" type="curve" smooth="yes"/>
      <point x="85" y="32" type="line" smooth="yes"/>
      <point x="85" y="-90"/>
      <point x="67" y="-161"/>
      <point x="28" y="-200" type="curve" smooth="yes"/>
      <point x="19" y="-210"/>
      <point x="0" y="-225"/>
      <point x="-21" y="-236" type="curve"/>
      <point x="-27" y="-245"/>
      <point x="-22" y="-264"/>
      <point x="-7" y="-269" type="curve"/>
      <point x="122" y="-226"/>
      <point x="167" y="-179"/>
      <point x="194" y="-108" type="curve" smooth="yes"/>
      <point x="209" y="-70"/>
      <point x="215" y="-16"/>
      <point x="215" y="53" type="curve" smooth="yes"/>
    </contour>
    <contour>
      <point x="153" y="639" type="curve" smooth="yes" name="hr02"/>
      <point x="113" y="639"/>
      <point x="78" y="610"/>
      <point x="78" y="566" type="curve" smooth="yes"/>
      <point x="78" y="525"/>
      <point x="104" y="495"/>
      <point x="148" y="495" type="curve" smooth="yes"/>
      <point x="186" y="495"/>
      <point x="223" y="520"/>
      <point x="223" y="568" type="curve" smooth="yes"/>
      <point x="223" y="608"/>
      <point x="195" y="639"/>
    </contour>
  </outline>
</glyph>
<glyph name="l" format="1">
  <advance width="278"/>
  <unicode hex="006C"/>
  <outline>
    <contour>
      <point x="76" y="116" type="line" smooth="yes" name="hr00"/>
      <point x="76" y="46"/>
      <point x="72" y="37"/>
      <point x="39" y="34" type="curve" smooth="yes"/>
      <point x="20" y="32" type="line"/>
      <point x="12" y="26"/>
      <point x="12" y="3"/>
      <point x="21" y="-3" type="curve"/>
      <point x="56" y="-1"/>
      <point x="98" y="0"/>
      <point x="141" y="0" type="curve" smooth="yes"/>
      <point x="186" y="0"/>
      <point x="228" y="-1"/>
      <point x="261" y="-3" type="curve"/>
      <point x="270" y="3"/>
      <point x="270" y="26"/>
      <point x="262" y="32" type="curve"/>
      <point x="245" y="34" type="line" smooth="yes"/>
      <point x="210" y="38"/>
      <point x="206" y="46"/>
      <point x="206" y="116" type="curve" smooth="yes"/>
      <point x="206" y="562" type="line" smooth="yes"/>
      <point x="206" y="625"/>
      <point x="207" y="667"/>
      <point x="209" y="708" type="curve"/>
      <point x="205" y="713"/>
      <point x="198" y="715"/>
      <point x="192" y="715" type="curve"/>
      <point x="142" y="693"/>
      <point x="82" y="669"/>
      <point x="39" y="659" type="curve"/>
      <point x="32" y="653"/>
      <point x="32" y="635"/>
      <point x="39" y="629" type="curve"/>
      <point x="56" y="619" type="line" smooth="yes"/>
      <point x="76" y="607"/>
      <point x="76" y="596"/>
      <point x="76" y="556" type="curve" smooth="yes"/>
    </contour>
  </outline>
</glyph>
<glyph name="r" format="1">
  <advance width="371"/>
  <unicode hex="0072"/>
  <outline>
    <contour>
      <point x="84" y="116" type="line" smooth="yes" name="hr01"/>
      <point x="84" y="46"/>
      <point x="80" y="37"/>
      <point x="47" y="34" type="curve" smooth="yes"/>
      <point x="28" y="32" type="line"/>
      <point x="20" y="26"/>
      <point x="20" y="3"/>
      <point x="29" y="-3" type="curve"/>
      <point x="62" y="-1"/>
      <point x="106" y="0"/>
      <point x="147" y="0" type="curve" smooth="yes"/>
      <point x="194" y="0"/>
      <point x="234" y="-1"/>
      <point x="282" y="-3" type="curve"/>
      <point x="291" y="3"/>
      <point x="291" y="26"/>
      <point x="283" y="32" type="curve"/>
      <point x="251" y="35" type="line" smooth="yes"/>
      <point x="218" y="38"/>
      <point x="214" y="46"/>
      <point x="214" y="116" type="curve" smooth="yes"/>
      <point x="214" y="268" type="line" smooth="yes" name="hr02"/>
      <point x="214" y="306"/>
      <point x="219" y="328"/>
      <point x="233" y="328" type="curve" smooth="yes"/>
      <point x="239" y="328"/>
      <point x="248" y="327"/>
      <point x="271" y="308" type="curve" smooth="yes"/>
      <point x="284" y="296"/>
      <point x="296" y="290"/>
      <point x="310" y="290" type="curve" smooth="yes"/>
      <point x="342" y="290"/>
      <point x="374" y="309"/>
      <point x="374" y="355" type="curve" smooth="yes"/>
      <point x="374" y="393"/>
      <point x="346" y="414"/>
      <point x="319" y="414" type="curve" smooth="yes"/>
      <point x="277" y="414"/>
      <point x="248" y="381"/>
      <point x="221" y="364" type="curve"/>
      <point x="213" y="366"/>
      <point x="211" y="369"/>
      <point x="211" y="376" type="curve" smooth="yes"/>
      <point x="211" y="385"/>
      <point x="213" y="399"/>
      <point x="215" y="419" type="curve"/>
      <point x="211" y="425"/>
      <point x="205" y="428"/>
      <point x="197" y="428" type="curve"/>
      <point x="166" y="408"/>
      <point x="97" y="381"/>
      <point x="51" y="368" type="curve"/>
      <point x="44" y="362"/>
      <point x="44" y="344"/>
      <point x="51" y="338" type="curve"/>
      <point x="65" y="329" type="line" smooth="yes"/>
      <point x="84" y="317"/>
      <point x="84" y="305"/>
      <point x="84" y="265" type="curve" smooth="yes"/>
    </contour>
  </outline>
</glyph>
<glyph name="s" format="1">
  <advance width="358"/>
  <unicode hex="0073"/>
  <outline>
    <contour>
      <point x="164" y="-14" type="curve" smooth="yes" name="hr00"/>
      <point x="258" y="-14"/>
      <point x="334" y="31"/>
      <point x="335" y="120" type="curve" smooth="yes"/>
      <point x="335" y="185"/>
      <point x="293" y="227"/>
      <point x="225" y="260" type="curve" smooth="yes"/>
      <point x="180" y="282"/>
      <point x="161" y="301"/>
      <point x="161" y="324" type="curve" smooth="yes"/>
      <point x="161" y="351"/>
      <point x="182" y="368"/>
      <point x="211" y="368" type="curve" smooth="yes"/>
      <point x="244" y="368"/>
      <point x="269" y="347"/>
      <point x="289" y="289" type="curve"/>
      <point x="295" y="282"/>
      <point x="320" y="282"/>
      <point x="324" y="293" type="curve"/>
      <point x="324" y="331"/>
      <point x="319" y="371"/>
      <point x="309" y="393" type="curve"/>
      <point x="298" y="401"/>
      <point x="253" y="414"/>
      <point x="202" y="414" type="curve" smooth="yes"/>
      <point x="116" y="414"/>
      <point x="43" y="372"/>
      <point x="43" y="285" type="curve" smooth="yes"/>
      <point x="43" y="225"/>
      <point x="86" y="189"/>
      <point x="146" y="159" type="curve" smooth="yes"/>
      <point x="180" y="142"/>
      <point x="212" y="121"/>
      <point x="212" y="84" type="curve" smooth="yes"/>
      <point x="212" y="50"/>
      <point x="190" y="32"/>
      <point x="160" y="32" type="curve" smooth="yes"/>
      <point x="109" y="32"/>
      <point x="71" y="91"/>
      <point x="58" y="132" type="curve"/>
      <point x="52" y="141"/>
      <point x="30" y="140"/>
      <point x="24" y="130" type="curve"/>
      <point x="22" y="85"/>
      <point x="29" y="37"/>
      <point x="40" y="17" type="curve"/>
      <point x="67" y="-4"/>
      <point x="107" y="-14"/>
    </contour>
  </outline>
</glyph>
<glyph name="u" format="1">
  <advance width="544"/>
  <unicode hex="0075"/>
  <outline>
    <contour>
      <point x="471" y="314" type="line" smooth="yes" name="hr01"/>
      <point x="471" y="351"/>
      <point x="473" y="384"/>
      <point x="474" y="402" type="curve"/>
      <point x="473" y="409"/>
      <point x="468" y="414"/>
      <point x="464" y="414" type="curve" smooth="yes"/>
      <point x="458" y="414"/>
      <point x="428" y="403"/>
      <point x="393" y="398" type="curve" smooth="yes"/>
      <point x="361" y="394"/>
      <point x="325" y="390"/>
      <point x="289" y="388" type="curve" name="hr02"/>
      <point x="277" y="384"/>
      <point x="276" y="360"/>
      <point x="284" y="353" type="curve"/>
      <point x="298" y="351" type="line" smooth="yes"/>
      <point x="334" y="346"/>
      <point x="341" y="337"/>
      <point x="341" y="297" type="curve" smooth="yes"/>
      <point x="341" y="108" type="line" smooth="yes"/>
      <point x="341" y="98"/>
      <point x="337" y="83"/>
      <point x="330" y="78" type="curve" smooth="yes"/>
      <point x="322" y="72"/>
      <point x="306" y="59"/>
      <point x="278" y="59" type="curve" smooth="yes"/>
      <point x="214" y="59"/>
      <point x="207" y="101"/>
      <point x="207" y="149" type="curve" smooth="yes"/>
      <point x="207" y="314" type="line" smooth="yes" name="hr03"/>
      <point x="207" y="350"/>
      <point x="208" y="377"/>
      <point x="210" y="402" type="curve"/>
      <point x="209" y="407"/>
      <point x="204" y="414"/>
      <point x="198" y="414" type="curve" smooth="yes"/>
      <point x="194" y="414"/>
      <point x="165" y="402"/>
      <point x="135" y="397" type="curve" smooth="yes"/>
      <point x="106" y="392"/>
      <point x="71" y="389"/>
      <point x="38" y="388" type="curve" name="hr04"/>
      <point x="28" y="381"/>
      <point x="27" y="362"/>
      <point x="34" y="353" type="curve"/>
      <point x="47" y="349" type="line" smooth="yes"/>
      <point x="71" y="342"/>
      <point x="77" y="337"/>
      <point x="77" y="284" type="curve" smooth="yes"/>
      <point x="77" y="114" type="line" smooth="yes"/>
      <point x="77" y="29"/>
      <point x="111" y="-14"/>
      <point x="194" y="-14" type="curve" smooth="yes"/>
      <point x="256" y="-14"/>
      <point x="291" y="9"/>
      <point x="330" y="34" type="curve"/>
      <point x="336" y="34"/>
      <point x="341" y="30"/>
      <point x="341" y="24" type="curve" smooth="yes"/>
      <point x="341" y="16"/>
      <point x="340" y="0"/>
      <point x="338" y="-12" type="curve"/>
      <point x="339" y="-18"/>
      <point x="343" y="-23"/>
      <point x="350" y="-24" type="curve" smooth="yes"/>
      <point x="353" y="-24"/>
      <point x="437" y="8"/>
      <point x="535" y="12" type="curve"/>
      <point x="548" y="17"/>
      <point x="547" y="53"/>
      <point x="538" y="55" type="curve"/>
      <point x="526" y="51"/>
      <point x="511" y="47"/>
      <point x="498" y="47" type="curve" smooth="yes"/>
      <point x="474" y="47"/>
      <point x="471" y="73"/>
      <point x="471" y="132" type="curve" smooth="yes"/>
    </contour>
  </outline>
</glyph>
<glyph name="y" format="1">
  <advance width="469"/>
  <unicode hex="0079"/>
  <outline>
    <contour>
      <point x="12" y="365" type="line" smooth="yes" name="hr01"/>
      <point x="44" y="360"/>
      <point x="53" y="342"/>
      <point x="72" y="294" type="curve" smooth="yes"/>
      <point x="168" y="52" type="line" smooth="yes"/>
      <point x="184" y="11"/>
      <point x="187" y="-8"/>
      <point x="187" y="-21" type="curve" smooth="yes"/>
      <point x="187" y="-33"/>
      <point x="179" y="-51"/>
      <point x="173" y="-63" type="curve" smooth="yes"/>
      <point x="163" y="-84"/>
      <point x="155" y="-103"/>
      <point x="144" y="-118" type="curve" smooth="yes"/>
      <point x="134" y="-131"/>
      <point x="119" y="-139"/>
      <point x="95" y="-139" type="curve" smooth="yes"/>
      <point x="71" y="-139" type="line" smooth="yes"/>
      <point x="36" y="-139"/>
      <point x="14" y="-161"/>
      <point x="14" y="-191" type="curve" smooth="yes"/>
      <point x="14" y="-218"/>
      <point x="24" y="-252"/>
      <point x="78" y="-251" type="curve" smooth="yes"/>
      <point x="115" y="-250"/>
      <point x="143" y="-230"/>
      <point x="164" y="-185" type="curve" smooth="yes"/>
      <point x="316" y="130" type="line"/>
      <point x="369" y="239" type="line" smooth="yes"/>
      <point x="391" y="285"/>
      <point x="416" y="328"/>
      <point x="428" y="344" type="curve" smooth="yes" name="hr02"/>
      <point x="437" y="356"/>
      <point x="454" y="364"/>
      <point x="474" y="366" type="curve" smooth="yes"/>
      <point x="493" y="368" type="line"/>
      <point x="502" y="374"/>
      <point x="501" y="399"/>
      <point x="491" y="403" type="curve"/>
      <point x="465" y="401"/>
      <point x="439" y="400"/>
      <point x="413" y="400" type="curve" smooth="yes"/>
      <point x="368" y="400"/>
      <point x="338" y="401"/>
      <point x="316" y="403" type="curve"/>
      <point x="305" y="400"/>
      <point x="304" y="375"/>
      <point x="313" y="368" type="curve"/>
      <point x="333" y="364" type="line" smooth="yes"/>
      <point x="345" y="362"/>
      <point x="355" y="357"/>
      <point x="355" y="350" type="curve" smooth="yes"/>
      <point x="355" y="339"/>
      <point x="339" y="297"/>
      <point x="318" y="249" type="curve" smooth="yes"/>
      <point x="300" y="208" type="line" smooth="yes"/>
      <point x="290" y="186"/>
      <point x="280" y="163"/>
      <point x="269" y="142" type="curve"/>
      <point x="257" y="167"/>
      <point x="235" y="228"/>
      <point x="224" y="256" type="curve" smooth="yes"/>
      <point x="205" y="307"/>
      <point x="194" y="333"/>
      <point x="194" y="345" type="curve" smooth="yes"/>
      <point x="194" y="354"/>
      <point x="196" y="358"/>
      <point x="224" y="364" type="curve" smooth="yes"/>
      <point x="244" y="368" type="line"/>
      <point x="252" y="375"/>
      <point x="251" y="399"/>
      <point x="241" y="403" type="curve"/>
      <point x="204" y="401"/>
      <point x="166" y="400"/>
      <point x="129" y="400" type="curve" smooth="yes"/>
      <point x="76" y="400"/>
      <point x="33" y="401"/>
      <point x="-3" y="403" type="curve"/>
      <point x="-13" y="399"/>
      <point x="-13" y="375"/>
      <point x="-6" y="368" type="curve"/>
    </contour>
  </outline>
</glyph>
<glyph name="yen" format="1">
  <advance width="520"/>
  <unicode hex="00A5"/>
  <outline>
    <contour>
      <point x="325" y="243" type="line" name="hr01"/>
      <point x="325" y="319" type="line"/>
      <point x="475" y="319" type="line"/>
      <point x="486" y="329"/>
      <point x="486" y="355"/>
      <point x="475" y="364" type="curve"/>
      <point x="338" y="364" type="line"/>
      <point x="432" y="514" type="line" smooth="yes" name="hr02"/>
      <point x="468" y="571"/>
      <point x="477" y="581"/>
      <point x="510" y="590" type="curve" smooth="yes"/>
      <point x="532" y="596" type="line"/>
      <point x="540" y="602"/>
      <point x="541" y="625"/>
      <point x="531" y="629" type="curve"/>
      <point x="497" y="627"/>
      <point x="465" y="626"/>
      <point x="443" y="626" type="curve" smooth="yes"/>
      <point x="416" y="626"/>
      <point x="387" y="627"/>
      <point x="347" y="629" type="curve"/>
      <point x="332" y="624"/>
      <point x="332" y="603"/>
      <point x="343" y="596" type="curve"/>
      <point x="361" y="591" type="line" smooth="yes"/>
      <point x="380" y="586"/>
      <point x="390" y="580"/>
      <point x="390" y="572" type="curve" smooth="yes"/>
      <point x="390" y="562"/>
      <point x="369" y="523"/>
      <point x="354" y="494" type="curve" smooth="yes"/>
      <point x="333" y="453"/>
      <point x="302" y="402"/>
      <point x="298" y="393" type="curve"/>
      <point x="273" y="437"/>
      <point x="254" y="469"/>
      <point x="230" y="516" type="curve" smooth="yes"/>
      <point x="222" y="532"/>
      <point x="207" y="562"/>
      <point x="207" y="572" type="curve" smooth="yes"/>
      <point x="207" y="580"/>
      <point x="212" y="585"/>
      <point x="227" y="589" type="curve" smooth="yes"/>
      <point x="254" y="596" type="line"/>
      <point x="262" y="604"/>
      <point x="265" y="626"/>
      <point x="253" y="629" type="curve"/>
      <point x="228" y="627"/>
      <point x="192" y="626"/>
      <point x="135" y="626" type="curve" smooth="yes"/>
      <point x="84" y="626"/>
      <point x="39" y="627"/>
      <point x="-7" y="629" type="curve"/>
      <point x="-17" y="624"/>
      <point x="-18" y="603"/>
      <point x="-10" y="596" type="curve"/>
      <point x="8" y="593" type="line" smooth="yes"/>
      <point x="44" y="587"/>
      <point x="59" y="563"/>
      <point x="76" y="534" type="curve" smooth="yes"/>
      <point x="172" y="364" type="line"/>
      <point x="41" y="364" type="line"/>
      <point x="31" y="355"/>
      <point x="31" y="329"/>
      <point x="41" y="319" type="curve"/>
      <point x="191" y="319" type="line" name="hr03"/>
      <point x="191" y="243" type="line"/>
      <point x="41" y="243" type="line"/>
      <point x="31" y="234"/>
      <point x="31" y="208"/>
      <point x="41" y="198" type="curve"/>
      <point x="191" y="198" type="line"/>
      <point x="191" y="116" type="line" smooth="yes"/>
      <point x="191" y="44"/>
      <point x="187" y="36"/>
      <point x="154" y="33" type="curve" smooth="yes"/>
      <point x="118" y="30" type="line"/>
      <point x="110" y="24"/>
      <point x="110" y="3"/>
      <point x="119" y="-3" type="curve"/>
      <point x="171" y="-1"/>
      <point x="214" y="0"/>
      <point x="259" y="0" type="curve" smooth="yes"/>
      <point x="302" y="0"/>
      <point x="344" y="-1"/>
      <point x="394" y="-3" type="curve"/>
      <point x="403" y="3"/>
      <point x="403" y="24"/>
      <point x="395" y="30" type="curve"/>
      <point x="362" y="33" type="line" smooth="yes"/>
      <point x="329" y="36"/>
      <point x="325" y="44"/>
      <point x="325" y="116" type="curve" smooth="yes"/>
      <point x="325" y="198" type="line"/>
      <point x="475" y="198" type="line"/>
      <point x="486" y="208"/>
      <point x="486" y="234"/>
      <point x="475" y="243" type="curve"/>
    </contour>
  </outline>
</glyph>
<glyph name="section" format="1">
  <advance width="525"/>
  <unicode hex="00A7"/>
  <outline>
    <contour>
      <point x="320" y="676" type="curve" smooth="yes" name="hr00"/>
      <point x="174" y="676"/>
      <point x="40" y="534"/>
      <point x="40" y="390" type="curve" smooth="yes"/>
      <point x="40" y="292"/>
      <point x="89" y="223"/>
      <point x="175" y="155" type="curve" smooth="yes"/>
      <point x="241" y="103"/>
      <point x="312" y="30"/>
      <point x="312" y="-20" type="curve" smooth="yes"/>
      <point x="312" y="-52"/>
      <point x="291" y="-69"/>
      <point x="267" y="-69" type="curve" smooth="yes"/>
      <point x="243" y="-69"/>
      <point x="227" y="-61"/>
      <point x="201" y="-43" type="curve" smooth="yes"/>
      <point x="175" y="-25"/>
      <point x="158" y="-20"/>
      <point x="146" y="-20" type="curve" smooth="yes"/>
      <point x="115" y="-20"/>
      <point x="98" y="-41"/>
      <point x="98" y="-65" type="curve" smooth="yes"/>
      <point x="98" y="-103"/>
      <point x="132" y="-124"/>
      <point x="187" y="-124" type="curve" smooth="yes"/>
      <point x="360" y="-124"/>
      <point x="485" y="44"/>
      <point x="485" y="180" type="curve" smooth="yes"/>
      <point x="485" y="292"/>
      <point x="439" y="360"/>
      <point x="363" y="416" type="curve" smooth="yes"/>
      <point x="235" y="510"/>
      <point x="218" y="544"/>
      <point x="218" y="579" type="curve" smooth="yes"/>
      <point x="218" y="604"/>
      <point x="241" y="626"/>
      <point x="260" y="626" type="curve" smooth="yes"/>
      <point x="271" y="626"/>
      <point x="284" y="623"/>
      <point x="327" y="591" type="curve" smooth="yes"/>
      <point x="339" y="582"/>
      <point x="354" y="575"/>
      <point x="368" y="575" type="curve" smooth="yes"/>
      <point x="391" y="575"/>
      <point x="420" y="587"/>
      <point x="420" y="618" type="curve" smooth="yes"/>
      <point x="420" y="639"/>
      <point x="402" y="676"/>
    </contour>
    <contour>
      <point x="248" y="240" type="curve" smooth="yes"/>
      <point x="109" y="355"/>
      <point x="107" y="413"/>
      <point x="107" y="453" type="curve" smooth="yes"/>
      <point x="107" y="493"/>
      <point x="131" y="533"/>
      <point x="158" y="554" type="curve"/>
      <point x="153" y="464"/>
      <point x="180" y="420"/>
      <point x="290" y="333" type="curve" smooth="yes"/>
      <point x="378" y="263"/>
      <point x="418" y="203"/>
      <point x="418" y="128" type="curve" smooth="yes"/>
      <point x="418" y="80"/>
      <point x="404" y="42"/>
      <point x="368" y="4" type="curve"/>
      <point x="366" y="6" type="line"/>
      <point x="376" y="95"/>
      <point x="341" y="163"/>
    </contour>
  </outline>
</glyph>
<glyph name="degree" format="1">
  <advance width="374"/>
  <unicode hex="00B0"/>
  <outline>
    <contour>
      <point x="187" y="640" type="curve" smooth="yes" name="hr00"/>
      <point x="107" y="640"/>
      <point x="40" y="584"/>
      <point x="40" y="498" type="curve" smooth="yes"/>
      <point x="40" y="408"/>
      <point x="107" y="356"/>
      <point x="187" y="356" type="curve" smooth="yes"/>
      <point x="267" y="356"/>
      <point x="334" y="408"/>
      <point x="334" y="498" type="curve" smooth="yes"/>
      <point x="334" y="584"/>
      <point x="267" y="640"/>
    </contour>
    <contour>
      <point x="265" y="498" type="curve" smooth="yes"/>
      <point x="265" y="440"/>
      <point x="237" y="400"/>
      <point x="187" y="400" type="curve" smooth="yes"/>
      <point x="142" y="400"/>
      <point x="109" y="440"/>
      <point x="109" y="498" type="curve" smooth="yes"/>
      <point x="109" y="555"/>
      <point x="142" y="596"/>
      <point x="187" y="596" type="curve" smooth="yes"/>
      <point x="232" y="596"/>
      <point x="265" y="555"/>
    </contour>
  </outline>
</glyph>
<glyph name="plusminus" format="1">
  <advance width="520"/>
  <unicode hex="00B1"/>
  <outline>
    <contour>
      <point x="305" y="100" type="line" name="hr00"/>
      <point x="305" y="247" type="line"/>
      <point x="461" y="247" type="line"/>
      <point x="461" y="319" type="line"/>
      <point x="305" y="319" type="line"/>
      <point x="305" y="458" type="line"/>
      <point x="217" y="458" type="line"/>
      <point x="217" y="319" type="line"/>
      <point x="60" y="319" type="line"/>
      <point x="60" y="247" type="line"/>
      <point x="217" y="247" type="line"/>
      <point x="217" y="100" type="line"/>
    </contour>
    <contour>
      <point x="461" y="0" type="line"/>
      <point x="461" y="72" type="line"/>
      <point x="60" y="72" type="line"/>
      <point x="60" y="0" type="line"/>
    </contour>
  </outline>
</glyph>
<glyph name="acute" format="1">
  <advance width="380"/>
  <unicode hex="00B4"/>
  <outline>
    <contour>
      <point x="96" y="473" type="line" name="hr00"/>
      <point x="98" y="461"/>
      <point x="107" y="455"/>
      <point x="121" y="457" type="curve"/>
      <point x="262" y="596" type="line" smooth="yes"/>
      <point x="275" y="609"/>
      <point x="284" y="622"/>
      <point x="284" y="633" type="curve" smooth="yes"/>
      <point x="284" y="644"/>
      <point x="275" y="655"/>
      <point x="257" y="669" type="curve" smooth="yes"/>
      <point x="240" y="681"/>
      <point x="229" y="685"/>
      <point x="218" y="685" type="curve" smooth="yes"/>
      <point x="208" y="685"/>
      <point x="198" y="678"/>
      <point x="187" y="655" type="curve" smooth="yes"/>
    </contour>
  </outline>
</glyph>
<glyph name="ordmasculine" format="1">
  <advance width="404"/>
  <unicode hex="00BA"/>
  <outline>
    <contour>
      <point x="205" y="540" type="curve" smooth="yes" name="hr00"/>
      <point x="114" y="540"/>
      <point x="34" y="485"/>
      <point x="34" y="383" type="curve" smooth="yes"/>
      <point x="34" y="290"/>
      <point x="107" y="240"/>
      <point x="200" y="240" type="curve" smooth="yes"/>
      <point x="295" y="240"/>
      <point x="371" y="291"/>
      <point x="371" y="392" type="curve" smooth="yes"/>
      <point x="371" y="482"/>
      <point x="303" y="540"/>
    </contour>
    <contour>
      <point x="257" y="370" type="curve" smooth="yes"/>
      <point x="257" y="320"/>
      <point x="241" y="276"/>
      <point x="207" y="276" type="curve" smooth="yes"/>
      <point x="170" y="276"/>
      <point x="148" y="326"/>
      <point x="148" y="405" type="curve" smooth="yes"/>
      <point x="148" y="473"/>
      <point x="172" y="504"/>
      <point x="201" y="504" type="curve" smooth="yes"/>
      <point x="239" y="504"/>
      <point x="257" y="446"/>
    </contour>
  </outline>
</glyph>
<glyph name="onehalf" format="1">
  <advance width="840"/>
  <unicode hex="00BD"/>
  <outline>
    <contour>
      <point x="616" y="630" type="line" name="hr00"/>
      <point x="611" y="647"/>
      <point x="584" y="656"/>
      <point x="569" y="654" type="curve"/>
      <point x="199" y="-16" type="line"/>
      <point x="206" y="-33"/>
      <point x="228" y="-44"/>
      <point x="246" y="-40" type="curve"/>
    </contour>
    <contour>
      <point x="129" y="344" type="line" smooth="yes"/>
      <point x="129" y="293"/>
      <point x="130" y="280"/>
      <point x="99" y="276" type="curve" smooth="yes"/>
      <point x="69" y="272" type="line"/>
      <point x="63" y="266"/>
      <point x="64" y="249"/>
      <point x="71" y="245" type="curve"/>
      <point x="108" y="246"/>
      <point x="148" y="247"/>
      <point x="185" y="247" type="curve" smooth="yes"/>
      <point x="223" y="247"/>
      <point x="263" y="246"/>
      <point x="300" y="245" type="curve"/>
      <point x="307" y="249"/>
      <point x="308" y="266"/>
      <point x="302" y="272" type="curve"/>
      <point x="272" y="276" type="line" smooth="yes"/>
      <point x="241" y="280"/>
      <point x="242" y="293"/>
      <point x="242" y="344" type="curve" smooth="yes"/>
      <point x="242" y="544" type="line" smooth="yes"/>
      <point x="242" y="577"/>
      <point x="244" y="615"/>
      <point x="245" y="632" type="curve"/>
      <point x="244" y="637"/>
      <point x="240" y="640"/>
      <point x="233" y="640" type="curve"/>
      <point x="194" y="619"/>
      <point x="125" y="598"/>
      <point x="66" y="590" type="curve"/>
      <point x="58" y="585"/>
      <point x="58" y="567"/>
      <point x="66" y="562" type="curve"/>
      <point x="97" y="558" type="line" smooth="yes"/>
      <point x="126" y="554"/>
      <point x="129" y="539"/>
      <point x="129" y="504" type="curve" smooth="yes"/>
    </contour>
    <contour>
      <point x="653" y="0" type="line" smooth="yes"/>
      <point x="712" y="0"/>
      <point x="740" y="-1"/>
      <point x="767" y="-2" type="curve"/>
      <point x="780" y="18"/>
      <point x="800" y="72"/>
      <point x="806" y="105" type="curve"/>
      <point x="801" y="110"/>
      <point x="791" y="112"/>
      <point x="783" y="109" type="curve"/>
      <point x="766" y="77"/>
      <point x="745" y="75"/>
      <point x="699" y="75" type="curve" smooth="yes"/>
      <point x="637" y="75" type="line" smooth="yes"/>
      <point x="624" y="75"/>
      <point x="619" y="83"/>
      <point x="629" y="92" type="curve" smooth="yes"/>
      <point x="654" y="113" type="line"/>
      <point x="685" y="136" type="line" smooth="yes"/>
      <point x="763" y="194"/>
      <point x="783" y="239"/>
      <point x="783" y="281" type="curve" smooth="yes"/>
      <point x="783" y="345"/>
      <point x="736" y="393"/>
      <point x="648" y="393" type="curve" smooth="yes"/>
      <point x="587" y="393"/>
      <point x="527" y="360"/>
      <point x="493" y="293" type="curve"/>
      <point x="493" y="277"/>
      <point x="511" y="269"/>
      <point x="521" y="276" type="curve"/>
      <point x="541" y="312"/>
      <point x="569" y="335"/>
      <point x="602" y="335" type="curve" smooth="yes"/>
      <point x="639" y="335"/>
      <point x="661" y="307"/>
      <point x="661" y="266" type="curve" smooth="yes"/>
      <point x="661" y="205"/>
      <point x="622" y="146"/>
      <point x="586" y="108" type="curve" smooth="yes"/>
      <point x="532" y="53"/>
      <point x="508" y="35"/>
      <point x="485" y="17" type="curve"/>
      <point x="483" y="11"/>
      <point x="485" y="2"/>
      <point x="492" y="-2" type="curve"/>
      <point x="503" y="-1"/>
      <point x="520" y="0"/>
      <point x="557" y="0" type="curve" smooth="yes"/>
    </contour>
  </outline>
</glyph>
<glyph name="Ntilde" format="1">
  <advance width="748"/>
  <unicode hex="00D1"/>
  <outline>
    <contour>
      <point x="652" y="409" type="line" smooth="yes" name="hr01"/>
      <point x="652" y="490"/>
      <point x="656" y="565"/>
      <point x="667" y="592" type="curve" smooth="yes"/>
      <point x="676" y="613"/>
      <point x="695" y="621"/>
      <point x="721" y="625" type="curve" smooth="yes"/>
      <point x="739" y="628" type="line"/>
      <point x="747" y="636"/>
      <point x="745" y="657"/>
      <point x="739" y="663" type="curve"/>
      <point x="700" y="661"/>
      <point x="664" y="660"/>
      <point x="627" y="660" type="curve" smooth="yes"/>
      <point x="586" y="660"/>
      <point x="547" y="661"/>
      <point x="493" y="663" type="curve"/>
      <point x="487" y="657"/>
      <point x="485" y="636"/>
      <point x="493" y="628" type="curve"/>
      <point x="520" y="624" type="line" smooth="yes"/>
      <point x="547" y="620"/>
      <point x="569" y="613"/>
      <point x="578" y="592" type="curve" smooth="yes"/>
      <point x="589" y="565"/>
      <point x="593" y="490"/>
      <point x="593" y="409" type="curve" smooth="yes"/>
      <point x="593" y="271" type="line" smooth="yes"/>
      <point x="593" y="253"/>
      <point x="593" y="236"/>
      <point x="589" y="226" type="curve"/>
      <point x="566" y="249"/>
      <point x="537" y="284"/>
      <point x="493" y="336" type="curve" smooth="yes"/>
      <point x="409" y="435" type="line" smooth="yes"/>
      <point x="319" y="542"/>
      <point x="254" y="618"/>
      <point x="244" y="663" type="curve"/>
      <point x="223" y="661"/>
      <point x="194" y="660"/>
      <point x="160" y="660" type="curve" smooth="yes"/>
      <point x="119" y="660"/>
      <point x="69" y="661"/>
      <point x="22" y="663" type="curve"/>
      <point x="12" y="660"/>
      <point x="11" y="636"/>
      <point x="18" y="628" type="curve"/>
      <point x="46" y="624" type="line" smooth="yes"/>
      <point x="81" y="619"/>
      <point x="95" y="607"/>
      <point x="103" y="590" type="curve" smooth="yes"/>
      <point x="109" y="576"/>
      <point x="110" y="560"/>
      <point x="110" y="505" type="curve" smooth="yes"/>
      <point x="110" y="251" type="line" smooth="yes"/>
      <point x="110" y="170"/>
      <point x="107" y="95"/>
      <point x="96" y="68" type="curve" smooth="yes"/>
      <point x="88" y="47"/>
      <point x="68" y="40"/>
      <point x="41" y="35" type="curve" smooth="yes"/>
      <point x="24" y="32" type="line"/>
      <point x="16" y="24"/>
      <point x="18" y="3"/>
      <point x="24" y="-3" type="curve"/>
      <point x="62" y="-1"/>
      <point x="99" y="0"/>
      <point x="136" y="0" type="curve" smooth="yes"/>
      <point x="176" y="0"/>
      <point x="216" y="-1"/>
      <point x="270" y="-3" type="curve"/>
      <point x="276" y="3"/>
      <point x="278" y="24"/>
      <point x="270" y="32" type="curve"/>
      <point x="242" y="36" type="line" smooth="yes"/>
      <point x="216" y="40"/>
      <point x="193" y="47"/>
      <point x="184" y="68" type="curve" smooth="yes"/>
      <point x="173" y="95"/>
      <point x="169" y="170"/>
      <point x="169" y="251" type="curve" smooth="yes"/>
      <point x="169" y="445" type="line" smooth="yes"/>
      <point x="169" y="482"/>
      <point x="169" y="499"/>
      <point x="174" y="509" type="curve"/>
      <point x="192" y="494"/>
      <point x="225" y="452"/>
      <point x="283" y="381" type="curve" smooth="yes"/>
      <point x="514" y="95" type="line" smooth="yes"/>
      <point x="561" y="37"/>
      <point x="594" y="-14"/>
      <point x="595" y="-14" type="curve" smooth="yes" name="hr02"/>
      <point x="619" y="-14"/>
      <point x="647" y="-3"/>
      <point x="654" y="9" type="curve"/>
      <point x="652" y="42"/>
      <point x="652" y="105"/>
      <point x="652" y="170" type="curve" smooth="yes"/>
    </contour>
    <contour>
      <point x="443" y="746" type="line" smooth="yes"/>
      <point x="478" y="746"/>
      <point x="493" y="753"/>
      <point x="509" y="775" type="curve" smooth="yes"/>
      <point x="526" y="799"/>
      <point x="538" y="832"/>
      <point x="546" y="865" type="curve"/>
      <point x="541" y="871"/>
      <point x="525" y="873"/>
      <point x="511" y="870" type="curve"/>
      <point x="494" y="828"/>
      <point x="470" y="821"/>
      <point x="437" y="821" type="curve" smooth="yes"/>
      <point x="375" y="821" type="line" smooth="yes"/>
      <point x="346" y="821"/>
      <point x="327" y="814"/>
      <point x="308" y="792" type="curve" smooth="yes"/>
      <point x="291" y="771"/>
      <point x="270" y="721"/>
      <point x="263" y="696" type="curve"/>
      <point x="268" y="687"/>
      <point x="288" y="685"/>
      <point x="298" y="690" type="curve"/>
      <point x="323" y="732"/>
      <point x="343" y="746"/>
      <point x="392" y="746" type="curve" smooth="yes"/>
    </contour>
  </outline>
</glyph>
<glyph name="Ocircumflex" format="1">
  <advance width="788"/>
  <unicode hex="00D4"/>
  <outline>
    <contour>
      <point x="397" y="676" type="curve" smooth="yes" name="hr00"/>
      <point x="188" y="676"/>
      <point x="40" y="523"/>
      <point x="40" y="325" type="curve" smooth="yes"/>
      <point x="40" y="116"/>
      <point x="186" y="-16"/>
      <point x="387" y="-16" type="curve" smooth="yes"/>
      <point x="602" y="-16"/>
      <point x="748" y="115"/>
      <point x="748" y="333" type="curve" smooth="yes"/>
      <point x="748" y="536"/>
      <point x="605" y="676"/>
    </contour>
    <contour>
      <point x="588" y="320" type="curve" smooth="yes"/>
      <point x="588" y="158"/>
      <point x="537" y="30"/>
      <point x="406" y="30" type="curve" smooth="yes"/>
      <point x="243" y="30"/>
      <point x="200" y="226"/>
      <point x="200" y="348" type="curve" smooth="yes"/>
      <point x="200" y="515"/>
      <point x="266" y="630"/>
      <point x="389" y="630" type="curve" smooth="yes"/>
      <point x="513" y="630"/>
      <point x="588" y="491"/>
    </contour>
    <contour>
      <point x="537" y="706" type="line"/>
      <point x="544" y="707"/>
      <point x="554" y="719"/>
      <point x="550" y="730" type="curve"/>
      <point x="423" y="849" type="line" smooth="yes"/>
      <point x="409" y="862"/>
      <point x="390" y="863"/>
      <point x="376" y="849" type="curve" smooth="yes"/>
      <point x="249" y="730" type="line"/>
      <point x="245" y="719"/>
      <point x="254" y="706"/>
      <point x="263" y="706" type="curve"/>
      <point x="383" y="757" type="line"/>
      <point x="394" y="763"/>
      <point x="405" y="762"/>
      <point x="416" y="756" type="curve"/>
    </contour>
  </outline>
</glyph>
<glyph name="Otilde" format="1">
  <advance width="788"/>
  <unicode hex="00D5"/>
  <outline>
    <contour>
      <point x="397" y="676" type="curve" smooth="yes" name="hr00"/>
      <point x="188" y="676"/>
      <point x="40" y="523"/>
      <point x="40" y="325" type="curve" smooth="yes"/>
      <point x="40" y="116"/>
      <point x="186" y="-16"/>
      <point x="387" y="-16" type="curve" smooth="yes"/>
      <point x="602" y="-16"/>
      <point x="748" y="115"/>
      <point x="748" y="333" type="curve" smooth="yes"/>
      <point x="748" y="536"/>
      <point x="605" y="676"/>
    </contour>
    <contour>
      <point x="588" y="320" type="curve" smooth="yes"/>
      <point x="588" y="158"/>
      <point x="537" y="30"/>
      <point x="406" y="30" type="curve" smooth="yes"/>
      <point x="243" y="30"/>
      <point x="200" y="226"/>
      <point x="200" y="348" type="curve" smooth="yes"/>
      <point x="200" y="515"/>
      <point x="266" y="630"/>
      <point x="389" y="630" type="curve" smooth="yes"/>
      <point x="513" y="630"/>
      <point x="588" y="491"/>
    </contour>
    <contour>
      <point x="433" y="746" type="line" smooth="yes"/>
      <point x="468" y="746"/>
      <point x="485" y="753"/>
      <point x="500" y="775" type="curve" smooth="yes"/>
      <point x="517" y="800"/>
      <point x="529" y="832"/>
      <point x="536" y="866" type="curve"/>
      <point x="532" y="872"/>
      <point x="515" y="874"/>
      <point x="502" y="871" type="curve"/>
      <point x="485" y="828"/>
      <point x="461" y="822"/>
      <point x="427" y="822" type="curve" smooth="yes"/>
      <point x="365" y="822" type="line" smooth="yes"/>
      <point x="336" y="822"/>
      <point x="317" y="814"/>
      <point x="298" y="792" type="curve" smooth="yes"/>
      <point x="280" y="771"/>
      <point x="259" y="721"/>
      <point x="253" y="696" type="curve"/>
      <point x="257" y="687"/>
      <point x="277" y="685"/>
      <point x="288" y="689" type="curve"/>
      <point x="313" y="732"/>
      <point x="333" y="746"/>
      <point x="382" y="746" type="curve" smooth="yes"/>
    </contour>
  </outline>
</glyph>
<glyph name="multiply" format="1">
  <advance width="520"/>
  <unicode hex="00D7"/>
  <outline>
    <contour>
      <point x="458" y="351" type="line" name="hr00"/>
      <point x="406" y="404" type="line"/>
      <point x="260" y="256" type="line"/>
      <point x="114" y="402" type="line"/>
      <point x="63" y="348" type="line"/>
      <point x="207" y="203" type="line"/>
      <point x="63" y="58" type="line"/>
      <point x="114" y="4" type="line"/>
      <point x="259" y="151" type="line"/>
      <point x="406" y="4" type="line"/>
      <point x="458" y="58" type="line"/>
      <point x="312" y="204" type="line"/>
    </contour>
  </outline>
</glyph>
<glyph name="germandbls" format="1">
  <advance width="573"/>
  <unicode hex="00DF"/>
  <outline>
    <contour>
      <point x="214" y="423" type="line" smooth="yes" name="hr01"/>
      <point x="214" y="578"/>
      <point x="258" y="669"/>
      <point x="333" y="669" type="curve" smooth="yes"/>
      <point x="380" y="669"/>
      <point x="420" y="622"/>
      <point x="420" y="547" type="curve" smooth="yes"/>
      <point x="420" y="493"/>
      <point x="391" y="458"/>
      <point x="361" y="426" type="curve" smooth="yes"/>
      <point x="331" y="393"/>
      <point x="300" y="363"/>
      <point x="300" y="306" type="curve" smooth="yes" name="hr02"/>
      <point x="300" y="251"/>
      <point x="341" y="211"/>
      <point x="386" y="173" type="curve" smooth="yes"/>
      <point x="422" y="142"/>
      <point x="446" y="108"/>
      <point x="446" y="77" type="curve" smooth="yes"/>
      <point x="446" y="48"/>
      <point x="429" y="32"/>
      <point x="410" y="32" type="curve" smooth="yes"/>
      <point x="369" y="32"/>
      <point x="331" y="103"/>
      <point x="311" y="103" type="curve" smooth="yes"/>
      <point x="290" y="103"/>
      <point x="282" y="75"/>
      <point x="282" y="52" type="curve" smooth="yes"/>
      <point x="282" y="-1"/>
      <point x="336" y="-14"/>
      <point x="378" y="-14" type="curve" smooth="yes"/>
      <point x="488" y="-14"/>
      <point x="556" y="48"/>
      <point x="556" y="137" type="curve" smooth="yes"/>
      <point x="556" y="194"/>
      <point x="521" y="240"/>
      <point x="481" y="277" type="curve" smooth="yes"/>
      <point x="444" y="312"/>
      <point x="408" y="338"/>
      <point x="408" y="374" type="curve" smooth="yes"/>
      <point x="408" y="398"/>
      <point x="425" y="424"/>
      <point x="453" y="447" type="curve" smooth="yes"/>
      <point x="469" y="460" type="line" smooth="yes" name="hr03"/>
      <point x="507" y="491"/>
      <point x="533" y="513"/>
      <point x="533" y="572" type="curve" smooth="yes"/>
      <point x="533" y="641"/>
      <point x="478" y="715"/>
      <point x="346" y="715" type="curve" smooth="yes"/>
      <point x="224" y="715"/>
      <point x="145" y="642"/>
      <point x="110" y="565" type="curve" smooth="yes"/>
      <point x="93" y="529"/>
      <point x="84" y="474"/>
      <point x="84" y="421" type="curve" smooth="yes"/>
      <point x="84" y="408"/>
      <point x="75" y="402"/>
      <point x="62" y="395" type="curve" smooth="yes"/>
      <point x="19" y="373" type="line"/>
      <point x="14" y="368"/>
      <point x="16" y="350"/>
      <point x="22" y="346" type="curve"/>
      <point x="59" y="346" type="line" smooth="yes"/>
      <point x="81" y="346"/>
      <point x="84" y="345"/>
      <point x="84" y="318" type="curve" smooth="yes"/>
      <point x="84" y="116" type="line" smooth="yes"/>
      <point x="84" y="46"/>
      <point x="80" y="38"/>
      <point x="44" y="34" type="curve" smooth="yes"/>
      <point x="28" y="32" type="line"/>
      <point x="20" y="26"/>
      <point x="20" y="3"/>
      <point x="30" y="-3" type="curve"/>
      <point x="61" y="-1"/>
      <point x="103" y="0"/>
      <point x="147" y="0" type="curve" smooth="yes"/>
      <point x="194" y="0"/>
      <point x="236" y="-1"/>
      <point x="255" y="-3" type="curve"/>
      <point x="264" y="3"/>
      <point x="264" y="26"/>
      <point x="256" y="32" type="curve"/>
      <point x="251" y="33" type="line" smooth="yes"/>
      <point x="218" y="40"/>
      <point x="214" y="46"/>
      <point x="214" y="116" type="curve" smooth="yes"/>
    </contour>
  </outline>
</glyph>
<glyph name="ccedilla" format="1">
  <advance width="416"/>
  <unicode hex="00E7"/>
  <outline>
    <contour>
      <point x="153" y="-106" type="line" name="hr01"/>
      <point x="156" y="-114" type="line"/>
      <point x="192" y="-129"/>
      <point x="232" y="-154"/>
      <point x="232" y="-186" type="curve" smooth="yes"/>
      <point x="232" y="-202"/>
      <point x="217" y="-211"/>
      <point x="206" y="-211" type="curve" smooth="yes"/>
      <point x="184" y="-211"/>
      <point x="166" y="-174"/>
      <point x="138" y="-174" type="curve" smooth="yes"/>
      <point x="119" y="-174"/>
      <point x="106" y="-189"/>
      <point x="106" y="-207" type="curve" smooth="yes"/>
      <point x="106" y="-235"/>
      <point x="135" y="-251"/>
      <point x="183" y="-251" type="curve" smooth="yes"/>
      <point x="248" y="-251"/>
      <point x="310" y="-213"/>
      <point x="310" y="-158" type="curve" smooth="yes"/>
      <point x="310" y="-119"/>
      <point x="286" y="-93"/>
      <point x="249" y="-73" type="curve" smooth="yes"/>
      <point x="234" y="-65"/>
      <point x="232" y="-62"/>
      <point x="240" y="-52" type="curve" smooth="yes"/>
      <point x="269" y="-12" type="line" name="hr02"/>
      <point x="349" y="-3"/>
      <point x="400" y="48"/>
      <point x="420" y="93" type="curve"/>
      <point x="420" y="109"/>
      <point x="406" y="116"/>
      <point x="394" y="115" type="curve"/>
      <point x="372" y="78"/>
      <point x="342" y="66"/>
      <point x="305" y="66" type="curve" smooth="yes"/>
      <point x="213" y="66"/>
      <point x="162" y="146"/>
      <point x="162" y="225" type="curve" smooth="yes"/>
      <point x="162" y="294"/>
      <point x="197" y="368"/>
      <point x="262" y="368" type="curve" smooth="yes"/>
      <point x="298" y="368"/>
      <point x="337" y="333"/>
      <point x="365" y="293" type="curve" smooth="yes"/>
      <point x="367" y="290"/>
      <point x="376" y="288"/>
      <point x="381" y="288" type="curve" smooth="yes"/>
      <point x="393" y="288"/>
      <point x="407" y="315"/>
      <point x="407" y="345" type="curve" smooth="yes"/>
      <point x="407" y="372"/>
      <point x="399" y="386"/>
      <point x="386" y="397" type="curve"/>
      <point x="359" y="407"/>
      <point x="315" y="414"/>
      <point x="281" y="414" type="curve" smooth="yes"/>
      <point x="146" y="414"/>
      <point x="31" y="330"/>
      <point x="31" y="188" type="curve" smooth="yes"/>
      <point x="31" y="78"/>
      <point x="105" y="-2"/>
      <point x="217" y="-12" type="curve"/>
    </contour>
  </outline>
</glyph>
<glyph name="egrave" format="1">
  <advance width="420"/>
  <unicode hex="00E8"/>
  <outline>
    <contour>
      <point x="372" y="237" type="line" smooth="yes" name="hr00"/>
      <point x="403" y="237"/>
      <point x="408" y="251"/>
      <point x="408" y="270" type="curve" smooth="yes"/>
      <point x="408" y="347"/>
      <point x="352" y="414"/>
      <point x="248" y="414" type="curve" smooth="yes"/>
      <point x="123" y="414"/>
      <point x="32" y="316"/>
      <point x="32" y="190" type="curve" smooth="yes"/>
      <point x="32" y="81"/>
      <point x="105" y="-14"/>
      <point x="240" y="-14" type="curve" smooth="yes"/>
      <point x="300" y="-14"/>
      <point x="374" y="15"/>
      <point x="415" y="100" type="curve"/>
      <point x="415" y="117"/>
      <point x="400" y="125"/>
      <point x="389" y="123" type="curve"/>
      <point x="362" y="77"/>
      <point x="324" y="71"/>
      <point x="296" y="71" type="curve" smooth="yes"/>
      <point x="203" y="71"/>
      <point x="155" y="144"/>
      <point x="155" y="219" type="curve" smooth="yes"/>
      <point x="155" y="235"/>
      <point x="157" y="237"/>
      <point x="180" y="237" type="curve" smooth="yes"/>
    </contour>
    <contour>
      <point x="209" y="281" type="line" smooth="yes"/>
      <point x="177" y="281"/>
      <point x="163" y="282"/>
      <point x="163" y="296" type="curve" smooth="yes"/>
      <point x="163" y="328"/>
      <point x="199" y="368"/>
      <point x="241" y="368" type="curve" smooth="yes"/>
      <point x="275" y="368"/>
      <point x="294" y="346"/>
      <point x="294" y="313" type="curve" smooth="yes"/>
      <point x="294" y="303"/>
      <point x="292" y="293"/>
      <point x="287" y="290" type="curve" smooth="yes"/>
      <point x="276" y="283"/>
      <point x="260" y="281"/>
      <point x="246" y="281" type="curve" smooth="yes"/>
    </contour>
    <contour>
      <point x="199" y="655" type="line" smooth="yes"/>
      <point x="188" y="678"/>
      <point x="178" y="685"/>
      <point x="168" y="685" type="curve" smooth="yes"/>
      <point x="157" y="685"/>
      <point x="146" y="681"/>
      <point x="129" y="669" type="curve" smooth="yes"/>
      <point x="111" y="655"/>
      <point x="102" y="644"/>
      <point x="102" y="633" type="curve" smooth="yes"/>
      <point x="102" y="622"/>
      <point x="111" y="609"/>
      <point x="124" y="596" type="curve" smooth="yes"/>
      <point x="265" y="457" type="line"/>
      <point x="279" y="455"/>
      <point x="288" y="461"/>
      <point x="290" y="473" type="curve"/>
    </contour>
  </outline>
</glyph>
<glyph name="ecircumflex" format="1">
  <advance width="420"/>
  <unicode hex="00EA"/>
  <outline>
    <contour>
      <point x="372" y="237" type="line" smooth="yes" name="hr00"/>
      <point x="403" y="237"/>
      <point x="408" y="251"/>
      <point x="408" y="270" type="curve" smooth="yes"/>
      <point x="408" y="347"/>
      <point x="352" y="414"/>
      <point x="248" y="414" type="curve" smooth="yes"/>
      <point x="123" y="414"/>
      <point x="32" y="316"/>
      <point x="32" y="190" type="curve" smooth="yes"/>
      <point x="32" y="81"/>
      <point x="105" y="-14"/>
      <point x="240" y="-14" type="curve" smooth="yes"/>
      <point x="300" y="-14"/>
      <point x="374" y="15"/>
      <point x="415" y="100" type="curve"/>
      <point x="415" y="117"/>
      <point x="400" y="125"/>
      <point x="389" y="123" type="curve"/>
      <point x="362" y="77"/>
      <point x="324" y="71"/>
      <point x="296" y="71" type="curve" smooth="yes"/>
      <point x="203" y="71"/>
      <point x="155" y="144"/>
      <point x="155" y="219" type="curve" smooth="yes"/>
      <point x="155" y="235"/>
      <point x="157" y="237"/>
      <point x="180" y="237" type="curve" smooth="yes"/>
    </contour>
    <contour>
      <point x="209" y="281" type="line" smooth="yes"/>
      <point x="177" y="281"/>
      <point x="163" y="282"/>
      <point x="163" y="296" type="curve" smooth="yes"/>
      <point x="163" y="328"/>
      <point x="199" y="368"/>
      <point x="241" y="368" type="curve" smooth="yes"/>
      <point x="275" y="368"/>
      <point x="294" y="346"/>
      <point x="294" y="313" type="curve" smooth="yes"/>
      <point x="294" y="303"/>
      <point x="292" y="293"/>
      <point x="287" y="290" type="curve" smooth="yes"/>
      <point x="276" y="283"/>
      <point x="260" y="281"/>
      <point x="246" y="281" type="curve" smooth="yes"/>
    </contour>
    <contour>
      <point x="103" y="463" type="line"/>
      <point x="108" y="451"/>
      <point x="121" y="446"/>
      <point x="131" y="445" type="curve"/>
      <point x="211" y="538" type="line" smooth="yes"/>
      <point x="222" y="550"/>
      <point x="229" y="556"/>
      <point x="232" y="556" type="curve" smooth="yes"/>
      <point x="235" y="556"/>
      <point x="241" y="550"/>
      <point x="252" y="537" type="curve" smooth="yes"/>
      <point x="332" y="445" type="line"/>
      <point x="343" y="446"/>
      <point x="356" y="451"/>
      <point x="361" y="463" type="curve"/>
      <point x="255" y="654" type="line" smooth="yes"/>
      <point x="249" y="665"/>
      <point x="244" y="667"/>
      <point x="232" y="667" type="curve" smooth="yes"/>
      <point x="220" y="667"/>
      <point x="215" y="665"/>
      <point x="209" y="654" type="curve" smooth="yes"/>
    </contour>
  </outline>
</glyph>
<glyph name="igrave" format="1">
  <advance width="286"/>
  <unicode hex="00EC"/>
  <outline>
    <contour>
      <point x="214" y="300" type="line" smooth="yes" name="hr00"/>
      <point x="214" y="345"/>
      <point x="215" y="389"/>
      <point x="217" y="419" type="curve"/>
      <point x="213" y="425"/>
      <point x="207" y="428"/>
      <point x="199" y="428" type="curve"/>
      <point x="169" y="410"/>
      <point x="98" y="383"/>
      <point x="51" y="370" type="curve"/>
      <point x="44" y="364"/>
      <point x="44" y="346"/>
      <point x="51" y="340" type="curve"/>
      <point x="65" y="331" type="line" smooth="yes"/>
      <point x="84" y="319"/>
      <point x="84" y="307"/>
      <point x="84" y="267" type="curve" smooth="yes"/>
      <point x="84" y="116" type="line" smooth="yes"/>
      <point x="84" y="46"/>
      <point x="80" y="37"/>
      <point x="47" y="34" type="curve" smooth="yes"/>
      <point x="28" y="32" type="line"/>
      <point x="20" y="26"/>
      <point x="20" y="3"/>
      <point x="29" y="-3" type="curve"/>
      <point x="62" y="-1"/>
      <point x="104" y="0"/>
      <point x="149" y="0" type="curve" smooth="yes"/>
      <point x="195" y="0"/>
      <point x="234" y="-1"/>
      <point x="269" y="-3" type="curve"/>
      <point x="278" y="3"/>
      <point x="278" y="26"/>
      <point x="270" y="32" type="curve"/>
      <point x="251" y="34" type="line" smooth="yes"/>
      <point x="218" y="37"/>
      <point x="214" y="46"/>
      <point x="214" y="116" type="curve" smooth="yes"/>
    </contour>
    <contour>
      <point x="111" y="655" type="line" smooth="yes"/>
      <point x="100" y="678"/>
      <point x="90" y="685"/>
      <point x="80" y="685" type="curve" smooth="yes"/>
      <point x="69" y="685"/>
      <point x="58" y="681"/>
      <point x="41" y="669" type="curve" smooth="yes"/>
      <point x="23" y="655"/>
      <point x="14" y="644"/>
      <point x="14" y="633" type="curve" smooth="yes"/>
      <point x="14" y="622"/>
      <point x="23" y="609"/>
      <point x="36" y="596" type="curve" smooth="yes"/>
      <point x="177" y="457" type="line"/>
      <point x="191" y="455"/>
      <point x="200" y="461"/>
      <point x="202" y="473" type="curve"/>
    </contour>
  </outline>
</glyph>
<glyph name="eth" format="1">
  <advance width="516"/>
  <unicode hex="00F0"/>
  <outline>
    <contour>
      <point x="491" y="630" type="line" name="hr01"/>
      <point x="496" y="645"/>
      <point x="488" y="670"/>
      <point x="472" y="677" type="curve"/>
      <point x="338" y="613" type="line"/>
      <point x="306" y="643"/>
      <point x="271" y="666"/>
      <point x="234" y="683" type="curve" smooth="yes"/>
      <point x="199" y="700"/>
      <point x="143" y="715"/>
      <point x="85" y="715" type="curve"/>
      <point x="70" y="710"/>
      <point x="74" y="687"/>
      <point x="84" y="682" type="curve"/>
      <point x="115" y="678"/>
      <point x="146" y="661"/>
      <point x="166" y="649" type="curve" smooth="yes"/>
      <point x="197" y="630"/>
      <point x="228" y="602"/>
      <point x="253" y="570" type="curve"/>
      <point x="122" y="507" type="line"/>
      <point x="116" y="493"/>
      <point x="119" y="467"/>
      <point x="138" y="459" type="curve"/>
      <point x="282" y="529" type="line"/>
      <point x="310" y="485"/>
      <point x="330" y="446"/>
      <point x="335" y="402" type="curve" name="hr02"/>
      <point x="319" y="409"/>
      <point x="298" y="414"/>
      <point x="268" y="414" type="curve" smooth="yes" name="hr03"/>
      <point x="143" y="414"/>
      <point x="30" y="335"/>
      <point x="31" y="192" type="curve" smooth="yes"/>
      <point x="32" y="54"/>
      <point x="134" y="-14"/>
      <point x="247" y="-14" type="curve" smooth="yes"/>
      <point x="378" y="-14"/>
      <point x="486" y="59"/>
      <point x="486" y="282" type="curve" smooth="yes"/>
      <point x="486" y="341"/>
      <point x="472" y="427"/>
      <point x="426" y="506" type="curve" smooth="yes"/>
      <point x="410" y="533"/>
      <point x="392" y="556"/>
      <point x="376" y="575" type="curve"/>
    </contour>
    <contour>
      <point x="269" y="368" type="curve" smooth="yes"/>
      <point x="287" y="368"/>
      <point x="306" y="360"/>
      <point x="322" y="345" type="curve" smooth="yes"/>
      <point x="334" y="333"/>
      <point x="345" y="314"/>
      <point x="346" y="277" type="curve" smooth="yes"/>
      <point x="347" y="196"/>
      <point x="342" y="135"/>
      <point x="329" y="94" type="curve" smooth="yes"/>
      <point x="316" y="53"/>
      <point x="294" y="32"/>
      <point x="265" y="32" type="curve" smooth="yes"/>
      <point x="206" y="32"/>
      <point x="175" y="102"/>
      <point x="175" y="199" type="curve" smooth="yes"/>
      <point x="175" y="323"/>
      <point x="219" y="368"/>
    </contour>
  </outline>
</glyph>
<glyph name="odieresis" format="1">
  <advance width="516"/>
  <unicode hex="00F6"/>
  <outline>
    <contour>
      <point x="255" y="-14" type="curve" smooth="yes" name="hr01"/>
      <point x="378" y="-14"/>
      <point x="485" y="55"/>
      <point x="485" y="201" type="curve" smooth="yes"/>
      <point x="485" y="342"/>
      <point x="379" y="414"/>
      <point x="261" y="414" type="curve" smooth="yes"/>
      <point x="143" y="414"/>
      <point x="30" y="335"/>
      <point x="31" y="192" type="curve" smooth="yes"/>
      <point x="32" y="54"/>
      <point x="136" y="-14"/>
    </contour>
    <contour>
      <point x="255" y="368" type="curve" smooth="yes"/>
      <point x="312" y="368"/>
      <point x="340" y="284"/>
      <point x="341" y="187" type="curve" smooth="yes"/>
      <point x="342" y="97"/>
      <point x="323" y="32"/>
      <point x="266" y="32" type="curve" smooth="yes"/>
      <point x="208" y="32"/>
      <point x="175" y="109"/>
      <point x="175" y="214" type="curve" smooth="yes"/>
      <point x="175" y="323"/>
      <point x="211" y="368"/>
    </contour>
    <contour>
      <point x="169" y="482" type="curve" smooth="yes" name="hr02"/>
      <point x="204" y="482"/>
      <point x="230" y="507"/>
      <point x="230" y="546" type="curve" smooth="yes"/>
      <point x="230" y="577"/>
      <point x="204" y="605"/>
      <point x="169" y="605" type="curve" smooth="yes"/>
      <point x="133" y="605"/>
      <point x="106" y="578"/>
      <point x="106" y="541" type="curve" smooth="yes"/>
      <point x="107" y="502"/>
      <point x="134" y="482"/>
    </contour>
    <contour>
      <point x="349" y="482" type="curve" smooth="yes"/>
      <point x="384" y="482"/>
      <point x="410" y="507"/>
      <point x="410" y="546" type="curve" smooth="yes"/>
      <point x="410" y="577"/>
      <point x="384" y="605"/>
      <point x="349" y="605" type="curve" smooth="yes"/>
      <point x="313" y="605"/>
      <point x="286" y="578"/>
      <point x="286" y="541" type="curve" smooth="yes"/>
      <point x="287" y="502"/>
      <point x="314" y="482"/>
    </contour>
  </outline>
</glyph>
<glyph name="dcroat" format="1">
  <advance width="537"/>
  <unicode hex="0111"/>
  <outline>
    <contour>
      <point x="336" y="103" type="line" smooth="yes" name="hr01"/>
      <point x="336" y="85"/>
      <point x="335" y="72"/>
      <point x="324" y="65" type="curve" smooth="yes"/>
      <point x="311" y="57"/>
      <point x="297" y="53"/>
      <point x="283" y="53" type="curve" smooth="yes"/>
      <point x="201" y="53"/>
      <point x="171" y="144"/>
      <point x="171" y="210" type="curve" smooth="yes"/>
      <point x="171" y="315"/>
      <point x="221" y="368"/>
      <point x="272" y="368" type="curve" smooth="yes"/>
      <point x="295" y="368"/>
      <point x="317" y="352"/>
      <point x="329" y="331" type="curve" smooth="yes"/>
      <point x="333" y="323"/>
      <point x="336" y="313"/>
      <point x="336" y="297" type="curve" smooth="yes"/>
    </contour>
    <contour>
      <point x="532" y="562" type="line"/>
      <point x="466" y="562" type="line"/>
      <point x="466" y="625"/>
      <point x="467" y="667"/>
      <point x="469" y="708" type="curve"/>
      <point x="465" y="713"/>
      <point x="459" y="715"/>
      <point x="452" y="715" type="curve"/>
      <point x="403" y="693"/>
      <point x="342" y="669"/>
      <point x="299" y="659" type="curve"/>
      <point x="292" y="653"/>
      <point x="291" y="635"/>
      <point x="299" y="629" type="curve"/>
      <point x="316" y="619" type="line" smooth="yes"/>
      <point x="335" y="608"/>
      <point x="336" y="598"/>
      <point x="336" y="562" type="curve"/>
      <point x="242" y="562" type="line"/>
      <point x="242" y="510" type="line"/>
      <point x="336" y="510" type="line"/>
      <point x="336" y="428" type="line" smooth="yes" name="hr02"/>
      <point x="336" y="420"/>
      <point x="333" y="412"/>
      <point x="326" y="409" type="curve"/>
      <point x="315" y="412"/>
      <point x="291" y="414"/>
      <point x="269" y="414" type="curve" smooth="yes" name="hr03"/>
      <point x="137" y="414"/>
      <point x="31" y="324"/>
      <point x="31" y="183" type="curve" smooth="yes"/>
      <point x="31" y="75"/>
      <point x="108" y="-14"/>
      <point x="222" y="-14" type="curve" smooth="yes"/>
      <point x="259" y="-14"/>
      <point x="295" y="7"/>
      <point x="330" y="29" type="curve" smooth="yes"/>
      <point x="334" y="32"/>
      <point x="338" y="29"/>
      <point x="339" y="21" type="curve"/>
      <point x="336" y="-10" type="line"/>
      <point x="338" y="-18"/>
      <point x="346" y="-24"/>
      <point x="353" y="-24" type="curve" smooth="yes"/>
      <point x="356" y="-24"/>
      <point x="434" y="6"/>
      <point x="533" y="12" type="curve"/>
      <point x="543" y="21"/>
      <point x="543" y="46"/>
      <point x="532" y="55" type="curve"/>
      <point x="515" y="49"/>
      <point x="507" y="47"/>
      <point x="489" y="47" type="curve" smooth="yes"/>
      <point x="470" y="47"/>
      <point x="466" y="70"/>
      <point x="466" y="164" type="curve" smooth="yes"/>
      <point x="466" y="510" type="line"/>
      <point x="532" y="510" type="line"/>
    </contour>
  </outline>
</glyph>
<glyph name="gbreve" format="1">
  <advance width="479"/>
  <unicode hex="011F"/>
  <outline>
    <contour>
      <point x="377" y="377" type="line" name="hr01"/>
      <point x="340" y="397"/>
      <point x="287" y="414"/>
      <point x="228" y="414" type="curve" smooth="yes" name="hr02"/>
      <point x="98" y="414"/>
      <point x="33" y="336"/>
      <point x="33" y="253" type="curve" smooth="yes"/>
      <point x="33" y="192"/>
      <point x="68" y="144"/>
      <point x="118" y="124" type="curve"/>
      <point x="123" y="115"/>
      <point x="119" y="109"/>
      <point x="110" y="102" type="curve" smooth="yes" name="hr03"/>
      <point x="104" y="96"/>
      <point x="74" y="73"/>
      <point x="46" y="55" type="curve"/>
      <point x="41" y="50"/>
      <point x="39" y="42"/>
      <point x="39" y="34" type="curve" smooth="yes"/>
      <point x="39" y="-1"/>
      <point x="64" y="-34"/>
      <point x="101" y="-46" type="curve" smooth="yes"/>
      <point x="109" y="-48"/>
      <point x="112" y="-53"/>
      <point x="100" y="-60" type="curve" smooth="yes"/>
      <point x="89" y="-66"/>
      <point x="71" y="-79"/>
      <point x="51" y="-91" type="curve" smooth="yes"/>
      <point x="34" y="-101"/>
      <point x="19" y="-117"/>
      <point x="19" y="-141" type="curve" smooth="yes"/>
      <point x="19" y="-203"/>
      <point x="71" y="-269"/>
      <point x="215" y="-269" type="curve" smooth="yes"/>
      <point x="273" y="-269"/>
      <point x="338" y="-256"/>
      <point x="390" y="-225" type="curve" smooth="yes"/>
      <point x="442" y="-193"/>
      <point x="480" y="-137"/>
      <point x="480" y="-74" type="curve" smooth="yes"/>
      <point x="480" y="27"/>
      <point x="400" y="47"/>
      <point x="325" y="47" type="curve" smooth="yes"/>
      <point x="278" y="47"/>
      <point x="237" y="45"/>
      <point x="203" y="45" type="curve" smooth="yes"/>
      <point x="173" y="45"/>
      <point x="152" y="59"/>
      <point x="152" y="81" type="curve" smooth="yes"/>
      <point x="152" y="93"/>
      <point x="159" y="101"/>
      <point x="169" y="105" type="curve"/>
      <point x="180" y="104"/>
      <point x="194" y="102"/>
      <point x="210" y="102" type="curve" smooth="yes"/>
      <point x="368" y="102"/>
      <point x="415" y="198"/>
      <point x="415" y="277" type="curve" smooth="yes" name="hr04"/>
      <point x="415" y="294"/>
      <point x="414" y="303"/>
      <point x="412" y="312" type="curve"/>
      <point x="486" y="312" type="line"/>
      <point x="496" y="318"/>
      <point x="501" y="336"/>
      <point x="501" y="352" type="curve" smooth="yes"/>
      <point x="501" y="363"/>
      <point x="499" y="371"/>
      <point x="492" y="377" type="curve"/>
    </contour>
    <contour>
      <point x="163" y="270" type="curve" smooth="yes" name="hr05"/>
      <point x="163" y="338"/>
      <point x="193" y="368"/>
      <point x="224" y="368" type="curve" smooth="yes"/>
      <point x="260" y="368"/>
      <point x="289" y="330"/>
      <point x="289" y="249" type="curve" smooth="yes"/>
      <point x="289" y="176"/>
      <point x="263" y="147"/>
      <point x="232" y="147" type="curve" smooth="yes"/>
      <point x="192" y="147"/>
      <point x="163" y="194"/>
    </contour>
    <contour>
      <point x="277" y="-56" type="line" smooth="yes" name="hr06"/>
      <point x="332" y="-56"/>
      <point x="375" y="-79"/>
      <point x="375" y="-137" type="curve" smooth="yes"/>
      <point x="375" y="-185"/>
      <point x="333" y="-216"/>
      <point x="270" y="-216" type="curve" smooth="yes"/>
      <point x="191" y="-216"/>
      <point x="140" y="-172"/>
      <point x="140" y="-104" type="curve" smooth="yes"/>
      <point x="140" y="-91"/>
      <point x="144" y="-78"/>
      <point x="154" y="-69" type="curve" smooth="yes"/>
      <point x="163" y="-62"/>
      <point x="183" y="-56"/>
      <point x="210" y="-56" type="curve" smooth="yes"/>
    </contour>
    <contour>
      <point x="240" y="481" type="curve" smooth="yes"/>
      <point x="326" y="481"/>
      <point x="371" y="540"/>
      <point x="367" y="643" type="curve"/>
      <point x="360" y="648"/>
      <point x="342" y="648"/>
      <point x="336" y="643" type="curve"/>
      <point x="325" y="591"/>
      <point x="286" y="560"/>
      <point x="240" y="560" type="curve" smooth="yes"/>
      <point x="194" y="560"/>
      <point x="155" y="591"/>
      <point x="144" y="643" type="curve"/>
      <point x="138" y="648"/>
      <point x="120" y="648"/>
      <point x="113" y="643" type="curve"/>
      <point x="109" y="540"/>
      <point x="154" y="481"/>
    </contour>
  </outline>
</glyph>
<glyph name="uni0137" format="1">
  <advance width="532"/>
  <unicode hex="0137"/>
  <outline>
    <contour>
      <point x="76" y="116" type="line" smooth="yes" name="hr01"/>
      <point x="76" y="46"/>
      <point x="72" y="38"/>
      <point x="36" y="34" type="curve" smooth="yes"/>
      <point x="17" y="32" type="line"/>
      <point x="9" y="26"/>
      <point x="9" y="3"/>
      <point x="18" y="-3" type="curve"/>
      <point x="53" y="-1"/>
      <point x="94" y="0"/>
      <point x="140" y="0" type="curve" smooth="yes"/>
      <point x="186" y="0"/>
      <point x="228" y="-1"/>
      <point x="260" y="-3" type="curve"/>
      <point x="269" y="3"/>
      <point x="269" y="26"/>
      <point x="261" y="32" type="curve"/>
      <point x="245" y="34" type="line" smooth="yes"/>
      <point x="210" y="38"/>
      <point x="206" y="46"/>
      <point x="206" y="116" type="curve" smooth="yes"/>
      <point x="206" y="174" type="line" smooth="yes"/>
      <point x="206" y="193"/>
      <point x="211" y="198"/>
      <point x="218" y="198" type="curve" smooth="yes"/>
      <point x="228" y="198"/>
      <point x="236" y="194"/>
      <point x="243" y="183" type="curve" smooth="yes"/>
      <point x="314" y="75" type="line" smooth="yes"/>
      <point x="322" y="63"/>
      <point x="331" y="47"/>
      <point x="331" y="43" type="curve" smooth="yes"/>
      <point x="331" y="39"/>
      <point x="325" y="37"/>
      <point x="315" y="35" type="curve" smooth="yes"/>
      <point x="302" y="32" type="line"/>
      <point x="294" y="23"/>
      <point x="296" y="2"/>
      <point x="306" y="-3" type="curve"/>
      <point x="334" y="-1"/>
      <point x="370" y="0"/>
      <point x="429" y="0" type="curve" smooth="yes"/>
      <point x="487" y="0"/>
      <point x="524" y="-1"/>
      <point x="555" y="-3" type="curve"/>
      <point x="565" y="1"/>
      <point x="567" y="25"/>
      <point x="559" y="32" type="curve"/>
      <point x="544" y="35" type="line" smooth="yes"/>
      <point x="518" y="40"/>
      <point x="499" y="45"/>
      <point x="485" y="58" type="curve" smooth="yes"/>
      <point x="460" y="81"/>
      <point x="372" y="217"/>
      <point x="354" y="249" type="curve" smooth="yes"/>
      <point x="349" y="257"/>
      <point x="347" y="263"/>
      <point x="347" y="266" type="curve" smooth="yes"/>
      <point x="347" y="269"/>
      <point x="348" y="273"/>
      <point x="353" y="279" type="curve" smooth="yes"/>
      <point x="367" y="293"/>
      <point x="382" y="308"/>
      <point x="420" y="337" type="curve" smooth="yes" name="hr02"/>
      <point x="447" y="358"/>
      <point x="468" y="368"/>
      <point x="487" y="372" type="curve" smooth="yes"/>
      <point x="519" y="379" type="line"/>
      <point x="526" y="387"/>
      <point x="525" y="409"/>
      <point x="515" y="414" type="curve"/>
      <point x="456" y="405"/>
      <point x="373" y="400"/>
      <point x="326" y="400" type="curve" smooth="yes" name="hr03"/>
      <point x="302" y="400" type="line"/>
      <point x="292" y="396"/>
      <point x="291" y="374"/>
      <point x="300" y="365" type="curve"/>
      <point x="325" y="361" type="line" smooth="yes"/>
      <point x="334" y="360"/>
      <point x="344" y="356"/>
      <point x="344" y="351" type="curve" smooth="yes"/>
      <point x="344" y="345"/>
      <point x="339" y="334"/>
      <point x="320" y="311" type="curve" smooth="yes"/>
      <point x="278" y="262" type="line" smooth="yes"/>
      <point x="258" y="239"/>
      <point x="237" y="234"/>
      <point x="220" y="234" type="curve" smooth="yes"/>
      <point x="209" y="234"/>
      <point x="206" y="237"/>
      <point x="206" y="248" type="curve" smooth="yes"/>
      <point x="206" y="562" type="line" smooth="yes"/>
      <point x="206" y="625"/>
      <point x="207" y="667"/>
      <point x="209" y="708" type="curve"/>
      <point x="205" y="713"/>
      <point x="198" y="715"/>
      <point x="192" y="715" type="curve"/>
      <point x="141" y="693"/>
      <point x="80" y="669"/>
      <point x="39" y="659" type="curve"/>
      <point x="32" y="653"/>
      <point x="32" y="635"/>
      <point x="39" y="629" type="curve"/>
      <point x="56" y="619" type="line" smooth="yes"/>
      <point x="76" y="607"/>
      <point x="76" y="596"/>
      <point x="76" y="556" type="curve" smooth="yes"/>
    </contour>
    <contour>
      <point x="255" y="-45" type="curve" smooth="yes"/>
      <point x="225" y="-45"/>
      <point x="200" y="-67"/>
      <point x="200" y="-95" type="curve" smooth="yes"/>
      <point x="200" y="-112"/>
      <point x="210" y="-126"/>
      <point x="224" y="-130" type="curve" smooth="yes"/>
      <point x="243" y="-135"/>
      <point x="268" y="-149"/>
      <point x="268" y="-180" type="curve" smooth="yes"/>
      <point x="268" y="-214"/>
      <point x="228" y="-241"/>
      <point x="200" y="-251" type="curve"/>
      <point x="191" y="-257"/>
      <point x="194" y="-283"/>
      <point x="208" y="-284" type="curve"/>
      <point x="279" y="-269"/>
      <point x="339" y="-226"/>
      <point x="339" y="-144" type="curve" smooth="yes"/>
      <point x="339" y="-73"/>
      <point x="288" y="-45"/>
    </contour>
  </outline>
</glyph>
<glyph name="uni013C" format="1">
  <advance width="278"/>
  <unicode hex="013C"/>
  <outline>
    <contour>
      <point x="76" y="116" type="line" smooth="yes" name="hr01"/>
      <point x="76" y="46"/>
      <point x="72" y="37"/>
      <point x="39" y="34" type="curve" smooth="yes"/>
      <point x="20" y="32" type="line"/>
      <point x="12" y="26"/>
      <point x="12" y="3"/>
      <point x="21" y="-3" type="curve"/>
      <point x="56" y="-1"/>
      <point x="98" y="0"/>
      <point x="141" y="0" type="curve" smooth="yes"/>
      <point x="186" y="0"/>
      <point x="228" y="-1"/>
      <point x="261" y="-3" type="curve"/>
      <point x="270" y="3"/>
      <point x="270" y="26"/>
      <point x="262" y="32" type="curve"/>
      <point x="245" y="34" type="line" smooth="yes"/>
      <point x="210" y="38"/>
      <point x="206" y="46"/>
      <point x="206" y="116" type="curve" smooth="yes"/>
      <point x="206" y="562" type="line" smooth="yes"/>
      <point x="206" y="625"/>
      <point x="207" y="667"/>
      <point x="209" y="708" type="curve"/>
      <point x="205" y="713"/>
      <point x="198" y="715"/>
      <point x="192" y="715" type="curve"/>
      <point x="142" y="693"/>
      <point x="82" y="669"/>
      <point x="39" y="659" type="curve"/>
      <point x="32" y="653"/>
      <point x="32" y="635"/>
      <point x="39" y="629" type="curve"/>
      <point x="56" y="619" type="line" smooth="yes"/>
      <point x="76" y="607"/>
      <point x="76" y="596"/>
      <point x="76" y="556" type="curve" smooth="yes"/>
    </contour>
    <contour>
      <point x="128" y="-45" type="curve" smooth="yes" name="hr02"/>
      <point x="98" y="-45"/>
      <point x="73" y="-67"/>
      <point x="73" y="-95" type="curve" smooth="yes"/>
      <point x="73" y="-112"/>
      <point x="83" y="-126"/>
      <point x="97" y="-130" type="curve" smooth="yes"/>
      <point x="116" y="-135"/>
      <point x="141" y="-149"/>
      <point x="141" y="-180" type="curve" smooth="yes"/>
      <point x="141" y="-214"/>
      <point x="101" y="-241"/>
      <point x="73" y="-251" type="curve"/>
      <point x="64" y="-257"/>
      <point x="67" y="-283"/>
      <point x="81" y="-284" type="curve"/>
      <point x="152" y="-269"/>
      <point x="212" y="-226"/>
      <point x="212" y="-144" type="curve" smooth="yes"/>
      <point x="212" y="-73"/>
      <point x="161" y="-45"/>
    </contour>
  </outline>
</glyph>
<glyph name="Rcaron" format="1">
  <advance width="664"/>
  <unicode hex="0158"/>
  <outline>
    <contour>
      <point x="114" y="144" type="line" smooth="yes" name="hr01"/>
      <point x="114" y="52"/>
      <point x="108" y="45"/>
      <point x="63" y="37" type="curve" smooth="yes"/>
      <point x="36" y="32" type="line"/>
      <point x="28" y="27"/>
      <point x="28" y="3"/>
      <point x="36" y="-3" type="curve"/>
      <point x="88" y="-1"/>
      <point x="132" y="0"/>
      <point x="182" y="0" type="curve" smooth="yes"/>
      <point x="230" y="0"/>
      <point x="276" y="-1"/>
      <point x="329" y="-3" type="curve"/>
      <point x="336" y="3"/>
      <point x="336" y="27"/>
      <point x="329" y="32" type="curve"/>
      <point x="302" y="37" type="line" smooth="yes"/>
      <point x="257" y="45"/>
      <point x="251" y="52"/>
      <point x="251" y="144" type="curve" smooth="yes"/>
      <point x="251" y="267" type="line" smooth="yes"/>
      <point x="251" y="287"/>
      <point x="253" y="289"/>
      <point x="288" y="289" type="curve" smooth="yes"/>
      <point x="313" y="289"/>
      <point x="329" y="281"/>
      <point x="341" y="254" type="curve" smooth="yes"/>
      <point x="364" y="201"/>
      <point x="387" y="152"/>
      <point x="419" y="99" type="curve" smooth="yes"/>
      <point x="463" y="27"/>
      <point x="521" y="-6"/>
      <point x="613" y="-6" type="curve" smooth="yes" name="hr02"/>
      <point x="644" y="-6"/>
      <point x="676" y="-4"/>
      <point x="692" y="3" type="curve"/>
      <point x="697" y="9"/>
      <point x="697" y="24"/>
      <point x="688" y="29" type="curve"/>
      <point x="673" y="30"/>
      <point x="647" y="36"/>
      <point x="621" y="57" type="curve" smooth="yes"/>
      <point x="573" y="98"/>
      <point x="532" y="173"/>
      <point x="466" y="307" type="curve" smooth="yes"/>
      <point x="461" y="318"/>
      <point x="461" y="324"/>
      <point x="471" y="329" type="curve" smooth="yes"/>
      <point x="517" y="352"/>
      <point x="577" y="390"/>
      <point x="577" y="479" type="curve" smooth="yes"/>
      <point x="577" y="543"/>
      <point x="547" y="593"/>
      <point x="489" y="627" type="curve" smooth="yes"/>
      <point x="451" y="650"/>
      <point x="378" y="663"/>
      <point x="293" y="663" type="curve" smooth="yes"/>
      <point x="198" y="663"/>
      <point x="120" y="659"/>
      <point x="45" y="654" type="curve"/>
      <point x="33" y="649"/>
      <point x="33" y="624"/>
      <point x="43" y="619" type="curve"/>
      <point x="70" y="615" type="line" smooth="yes"/>
      <point x="112" y="609"/>
      <point x="114" y="598"/>
      <point x="114" y="498" type="curve" smooth="yes"/>
    </contour>
    <contour>
      <point x="251" y="566" type="line" smooth="yes"/>
      <point x="251" y="614"/>
      <point x="253" y="617"/>
      <point x="294" y="617" type="curve" smooth="yes"/>
      <point x="372" y="617"/>
      <point x="425" y="559"/>
      <point x="425" y="469" type="curve" smooth="yes"/>
      <point x="425" y="410"/>
      <point x="406" y="378"/>
      <point x="389" y="361" type="curve" smooth="yes"/>
      <point x="370" y="342"/>
      <point x="349" y="333"/>
      <point x="313" y="333" type="curve" smooth="yes"/>
      <point x="254" y="333"/>
      <point x="251" y="336"/>
      <point x="251" y="371" type="curve" smooth="yes"/>
    </contour>
    <contour>
      <point x="164" y="861" type="line"/>
      <point x="156" y="860"/>
      <point x="149" y="847"/>
      <point x="151" y="835" type="curve"/>
      <point x="286" y="718" type="line" smooth="yes"/>
      <point x="300" y="705"/>
      <point x="316" y="704"/>
      <point x="332" y="718" type="curve" smooth="yes"/>
      <point x="467" y="835" type="line"/>
      <point x="469" y="847"/>
      <point x="463" y="861"/>
      <point x="454" y="861" type="curve"/>
      <point x="328" y="807" type="line" smooth="yes"/>
      <point x="313" y="800"/>
      <point x="304" y="801"/>
      <point x="291" y="807" type="curve" smooth="yes"/>
    </contour>
  </outline>
</glyph>
<glyph name="uni021B" format="1">
  <advance width="323"/>
  <unicode hex="021B"/>
  <outline>
    <contour>
      <point x="311" y="346" type="line" name="hr01"/>
      <point x="321" y="352"/>
      <point x="324" y="370"/>
      <point x="324" y="381" type="curve" smooth="yes"/>
      <point x="324" y="390"/>
      <point x="321" y="396"/>
      <point x="316" y="400" type="curve"/>
      <point x="227" y="400" type="line" smooth="yes"/>
      <point x="209" y="400"/>
      <point x="208" y="401"/>
      <point x="208" y="420" type="curve" smooth="yes"/>
      <point x="208" y="495" type="line"/>
      <point x="203" y="503"/>
      <point x="185" y="504"/>
      <point x="178" y="500" type="curve"/>
      <point x="147" y="456"/>
      <point x="122" y="435"/>
      <point x="104" y="422" type="curve" smooth="yes"/>
      <point x="80" y="406"/>
      <point x="52" y="388"/>
      <point x="21" y="377" type="curve"/>
      <point x="13" y="370"/>
      <point x="16" y="350"/>
      <point x="27" y="346" type="curve"/>
      <point x="58" y="346" type="line" smooth="yes"/>
      <point x="76" y="346"/>
      <point x="77" y="344"/>
      <point x="77" y="323" type="curve" smooth="yes"/>
      <point x="77" y="100" type="line" smooth="yes"/>
      <point x="77" y="34"/>
      <point x="106" y="-14"/>
      <point x="189" y="-14" type="curve" smooth="yes"/>
      <point x="251" y="-14"/>
      <point x="305" y="14"/>
      <point x="333" y="44" type="curve"/>
      <point x="335" y="56"/>
      <point x="329" y="67"/>
      <point x="319" y="70" type="curve"/>
      <point x="307" y="62"/>
      <point x="291" y="55"/>
      <point x="277" y="55" type="curve" smooth="yes"/>
      <point x="207" y="55"/>
      <point x="207" y="117"/>
      <point x="207" y="173" type="curve" smooth="yes"/>
      <point x="207" y="323" type="line" smooth="yes"/>
      <point x="207" y="345"/>
      <point x="208" y="346"/>
      <point x="221" y="346" type="curve" smooth="yes"/>
    </contour>
    <contour>
      <point x="181" y="-45" type="curve" smooth="yes" name="hr02"/>
      <point x="151" y="-45"/>
      <point x="126" y="-67"/>
      <point x="126" y="-95" type="curve" smooth="yes"/>
      <point x="126" y="-112"/>
      <point x="136" y="-126"/>
      <point x="150" y="-130" type="curve" smooth="yes"/>
      <point x="169" y="-135"/>
      <point x="194" y="-149"/>
      <point x="194" y="-180" type="curve" smooth="yes"/>
      <point x="194" y="-214"/>
      <point x="154" y="-241"/>
      <point x="126" y="-251" type="curve"/>
      <point x="117" y="-257"/>
      <point x="120" y="-283"/>
      <point x="134" y="-284" type="curve"/>
      <point x="205" y="-269"/>
      <point x="265" y="-226"/>
      <point x="265" y="-144" type="curve" smooth="yes"/>
      <point x="265" y="-73"/>
      <point x="214" y="-45"/>
    </contour>
  </outline>
</glyph>
<glyph name="circumflex" format="1">
  <advance width="380"/>
  <unicode hex="02C6"/>
  <outline>
    <contour>
      <point x="61" y="473" type="line" name="hr01"/>
      <point x="66" y="461"/>
      <point x="79" y="456"/>
      <point x="89" y="455" type="curve"/>
      <point x="169" y="543" type="line" smooth="yes" name="hr02"/>
      <point x="180" y="555"/>
      <point x="187" y="561"/>
      <point x="190" y="561" type="curve" smooth="yes"/>
      <point x="193" y="561"/>
      <point x="198" y="555"/>
      <point x="210" y="542" type="curve" smooth="yes"/>
      <point x="290" y="455" type="line"/>
      <point x="301" y="456"/>
      <point x="314" y="461"/>
      <point x="319" y="473" type="curve"/>
      <point x="213" y="664" type="line" smooth="yes"/>
      <point x="207" y="675"/>
      <point x="202" y="677"/>
      <point x="190" y="677" type="curve" smooth="yes"/>
      <point x="178" y="677"/>
      <point x="173" y="675"/>
      <point x="167" y="664" type="curve" smooth="yes"/>
    </contour>
  </outline>
</glyph>
<glyph name="caron" format="1">
  <advance width="380"/>
  <unicode hex="02C7"/>
  <outline>
    <contour>
      <point x="319" y="660" type="line" name="hr01"/>
      <point x="314" y="672"/>
      <point x="301" y="677"/>
      <point x="291" y="678" type="curve"/>
      <point x="211" y="590" type="line" smooth="yes" name="hr02"/>
      <point x="200" y="578"/>
      <point x="193" y="572"/>
      <point x="190" y="572" type="curve" smooth="yes"/>
      <point x="187" y="572"/>
      <point x="182" y="578"/>
      <point x="170" y="591" type="curve" smooth="yes"/>
      <point x="90" y="678" type="line"/>
      <point x="79" y="677"/>
      <point x="66" y="672"/>
      <point x="61" y="660" type="curve"/>
      <point x="167" y="469" type="line" smooth="yes"/>
      <point x="173" y="458"/>
      <point x="178" y="456"/>
      <point x="190" y="456" type="curve" smooth="yes"/>
      <point x="202" y="456"/>
      <point x="207" y="458"/>
      <point x="213" y="469" type="curve" smooth="yes"/>
    </contour>
  </outline>
</glyph>
<glyph name="ring" format="1">
  <advance width="380"/>
  <unicode hex="02DA"/>
  <outline>
    <contour>
      <point x="190" y="459" type="curve" smooth="yes" name="hr00"/>
      <point x="258" y="459"/>
      <point x="298" y="508"/>
      <point x="298" y="558" type="curve" smooth="yes"/>
      <point x="298" y="608"/>
      <point x="258" y="656"/>
      <point x="190" y="656" type="curve" smooth="yes"/>
      <point x="123" y="656"/>
      <point x="82" y="608"/>
      <point x="82" y="558" type="curve" smooth="yes"/>
      <point x="82" y="508"/>
      <point x="123" y="459"/>
    </contour>
    <contour>
      <point x="190" y="497" type="curve" smooth="yes"/>
      <point x="159" y="497"/>
      <point x="142" y="525"/>
      <point x="142" y="558" type="curve" smooth="yes"/>
      <point x="142" y="591"/>
      <point x="159" y="619"/>
      <point x="190" y="621" type="curve"/>
      <point x="221" y="619"/>
      <point x="238" y="591"/>
      <point x="238" y="558" type="curve" smooth="yes"/>
      <point x="238" y="525"/>
      <point x="221" y="497"/>
    </contour>
  </outline>
</glyph>
<glyph name="hungarumlaut" format="1">
  <advance width="380"/>
  <unicode hex="02DD"/>
  <outline>
    <contour>
      <point x="71" y="473" type="line" name="hr00"/>
      <point x="73" y="461"/>
      <point x="85" y="455"/>
      <point x="99" y="457" type="curve"/>
      <point x="209" y="595" type="line" smooth="yes"/>
      <point x="220" y="609"/>
      <point x="229" y="622"/>
      <point x="229" y="633" type="curve" smooth="yes"/>
      <point x="229" y="644"/>
      <point x="220" y="655"/>
      <point x="202" y="669" type="curve" smooth="yes"/>
      <point x="185" y="681"/>
      <point x="174" y="685"/>
      <point x="163" y="685" type="curve" smooth="yes"/>
      <point x="153" y="685"/>
      <point x="143" y="678"/>
      <point x="135" y="654" type="curve" smooth="yes"/>
    </contour>
    <contour>
      <point x="246" y="473" type="line"/>
      <point x="248" y="461"/>
      <point x="261" y="455"/>
      <point x="275" y="457" type="curve"/>
      <point x="384" y="595" type="line" smooth="yes"/>
      <point x="395" y="609"/>
      <point x="404" y="622"/>
      <point x="404" y="633" type="curve" smooth="yes"/>
      <point x="404" y="644"/>
      <point x="395" y="655"/>
      <point x="377" y="669" type="curve" smooth="yes"/>
      <point x="360" y="681"/>
      <point x="349" y="685"/>
      <point x="338" y="685" type="curve" smooth="yes"/>
      <point x="328" y="685"/>
      <point x="318" y="678"/>
      <point x="310" y="654" type="curve" smooth="yes"/>
    </contour>
  </outline>
</glyph>
<glyph name="quoteleft" format="1">
  <advance width="253"/>
  <unicode hex="2018"/>
  <outline>
    <contour>
      <point x="139" y="414" type="curve" smooth="yes" name="hr00"/>
      <point x="177" y="414"/>
      <point x="208" y="442"/>
      <point x="208" y="476" type="curve" smooth="yes"/>
      <point x="208" y="499"/>
      <point x="195" y="515"/>
      <point x="178" y="520" type="curve" smooth="yes"/>
      <point x="154" y="526"/>
      <point x="123" y="540"/>
      <point x="123" y="582" type="curve" smooth="yes"/>
      <point x="123" y="629"/>
      <point x="172" y="662"/>
      <point x="208" y="675" type="curve"/>
      <point x="219" y="682"/>
      <point x="215" y="704"/>
      <point x="198" y="706" type="curve"/>
      <point x="115" y="687"/>
      <point x="40" y="629"/>
      <point x="40" y="536" type="curve" smooth="yes"/>
      <point x="40" y="449"/>
      <point x="98" y="414"/>
    </contour>
  </outline>
</glyph>
<glyph name="quoteright" format="1">
  <advance width="253"/>
  <unicode hex="2019"/>
  <outline>
    <contour>
      <point x="114" y="700" type="curve" smooth="yes" name="hr00"/>
      <point x="76" y="700"/>
      <point x="45" y="672"/>
      <point x="45" y="638" type="curve" smooth="yes"/>
      <point x="45" y="615"/>
      <point x="58" y="599"/>
      <point x="75" y="594" type="curve" smooth="yes"/>
      <point x="99" y="588"/>
      <point x="130" y="574"/>
      <point x="130" y="532" type="curve" smooth="yes"/>
      <point x="130" y="485"/>
      <point x="81" y="452"/>
      <point x="45" y="439" type="curve"/>
      <point x="34" y="432"/>
      <point x="38" y="410"/>
      <point x="55" y="408" type="curve"/>
      <point x="138" y="427"/>
      <point x="213" y="485"/>
      <point x="213" y="578" type="curve" smooth="yes"/>
      <point x="213" y="665"/>
      <point x="155" y="700"/>
    </contour>
  </outline>
</glyph>
<glyph name="ellipsis" format="1">
  <advance width="1000"/>
  <unicode hex="2026"/>
  <outline>
    <contour>
      <point x="500" y="-14" type="curve" smooth="yes" name="hr00"/>
      <point x="548" y="-14"/>
      <point x="581" y="21"/>
      <point x="581" y="67" type="curve" smooth="yes"/>
      <point x="581" y="110"/>
      <point x="548" y="150"/>
      <point x="500" y="150" type="curve" smooth="yes"/>
      <point x="455" y="150"/>
      <point x="419" y="114"/>
      <point x="419" y="67" type="curve" smooth="yes"/>
      <point x="419" y="18"/>
      <point x="460" y="-14"/>
    </contour>
    <contour>
      <point x="833" y="-14" type="curve" smooth="yes"/>
      <point x="881" y="-14"/>
      <point x="914" y="21"/>
      <point x="914" y="67" type="curve" smooth="yes"/>
      <point x="914" y="110"/>
      <point x="881" y="150"/>
      <point x="833" y="150" type="curve" smooth="yes"/>
      <point x="788" y="150"/>
      <point x="752" y="114"/>
      <point x="752" y="67" type="curve" smooth="yes"/>
      <point x="752" y="18"/>
      <point x="793" y="-14"/>
    </contour>
    <contour>
      <point x="167" y="-14" type="curve" smooth="yes"/>
      <point x="215" y="-14"/>
      <point x="248" y="21"/>
      <point x="248" y="67" type="curve" smooth="yes"/>
      <point x="248" y="110"/>
      <point x="215" y="150"/>
      <point x="167" y="150" type="curve" smooth="yes"/>
      <point x="122" y="150"/>
      <point x="86" y="114"/>
      <point x="86" y="67" type="curve" smooth="yes"/>
      <point x="86" y="18"/>
      <point x="127" y="-14"/>
    </contour>
  </outline>
</glyph>
<glyph name="four.superior" format="1">
  <advance width="400"/>
  <unicode hex="2074"/>
  <outline>
    <contour>
      <point x="200" y="396" type="line" smooth="yes" name="hr00"/>
      <point x="200" y="354"/>
      <point x="200" y="348"/>
      <point x="159" y="346" type="curve" smooth="yes"/>
      <point x="139" y="345" type="line"/>
      <point x="133" y="340"/>
      <point x="133" y="322"/>
      <point x="141" y="318" type="curve"/>
      <point x="170" y="319"/>
      <point x="209" y="320"/>
      <point x="247" y="320" type="curve" smooth="yes"/>
      <point x="285" y="320"/>
      <point x="320" y="319"/>
      <point x="359" y="318" type="curve"/>
      <point x="367" y="323"/>
      <point x="367" y="340"/>
      <point x="360" y="345" type="curve"/>
      <point x="347" y="346" type="line" smooth="yes"/>
      <point x="313" y="349"/>
      <point x="311" y="357"/>
      <point x="311" y="396" type="curve" smooth="yes"/>
      <point x="311" y="410" type="line" smooth="yes"/>
      <point x="311" y="427"/>
      <point x="312" y="428"/>
      <point x="326" y="428" type="curve" smooth="yes"/>
      <point x="370" y="428" type="line"/>
      <point x="381" y="434"/>
      <point x="381" y="462"/>
      <point x="370" y="466" type="curve"/>
      <point x="326" y="466" type="line" smooth="yes"/>
      <point x="312" y="466"/>
      <point x="311" y="468"/>
      <point x="311" y="483" type="curve" smooth="yes"/>
      <point x="311" y="588" type="line" smooth="yes"/>
      <point x="311" y="594"/>
      <point x="308" y="598"/>
      <point x="300" y="598" type="curve" smooth="yes"/>
      <point x="289" y="598"/>
      <point x="238" y="586"/>
      <point x="218" y="580" type="curve" smooth="yes"/>
      <point x="208" y="577"/>
      <point x="200" y="572"/>
      <point x="200" y="558" type="curve" smooth="yes"/>
      <point x="200" y="483" type="line" smooth="yes"/>
      <point x="200" y="468"/>
      <point x="199" y="466"/>
      <point x="185" y="466" type="curve" smooth="yes"/>
      <point x="112" y="466" type="line" smooth="yes"/>
      <point x="94" y="466"/>
      <point x="92" y="471"/>
      <point x="97" y="477" type="curve" smooth="yes"/>
      <point x="293" y="724" type="line" smooth="yes"/>
      <point x="303" y="737"/>
      <point x="301" y="746"/>
      <point x="290" y="746" type="curve" smooth="yes"/>
      <point x="261" y="746" type="line" smooth="yes"/>
      <point x="252" y="746"/>
      <point x="247" y="741"/>
      <point x="241" y="734" type="curve" smooth="yes"/>
      <point x="25" y="451" type="line"/>
      <point x="23" y="442"/>
      <point x="25" y="432"/>
      <point x="32" y="428" type="curve"/>
      <point x="185" y="428" type="line" smooth="yes"/>
      <point x="199" y="428"/>
      <point x="200" y="427"/>
      <point x="200" y="410" type="curve" smooth="yes"/>
    </contour>
  </outline>
</glyph>
<glyph name="seven.superior" format="1">
  <advance width="400"/>
  <unicode hex="2077"/>
  <outline>
    <contour>
      <point x="144" y="706" type="line" smooth="yes" name="hr00"/>
      <point x="108" y="706"/>
      <point x="83" y="707"/>
      <point x="64" y="708" type="curve"/>
      <point x="60" y="685"/>
      <point x="50" y="637"/>
      <point x="32" y="592" type="curve"/>
      <point x="35" y="584"/>
      <point x="57" y="577"/>
      <point x="62" y="586" type="curve"/>
      <point x="75" y="617"/>
      <point x="95" y="624"/>
      <point x="128" y="624" type="curve" smooth="yes"/>
      <point x="236" y="624" type="line" smooth="yes"/>
      <point x="248" y="624"/>
      <point x="255" y="621"/>
      <point x="255" y="615" type="curve" smooth="yes"/>
      <point x="255" y="603"/>
      <point x="249" y="590"/>
      <point x="236" y="569" type="curve" smooth="yes"/>
      <point x="76" y="313" type="line"/>
      <point x="83" y="294"/>
      <point x="100" y="283"/>
      <point x="117" y="288" type="curve"/>
      <point x="305" y="598" type="line" smooth="yes"/>
      <point x="333" y="644"/>
      <point x="353" y="670"/>
      <point x="368" y="697" type="curve"/>
      <point x="368" y="703"/>
      <point x="367" y="707"/>
      <point x="363" y="708" type="curve"/>
      <point x="346" y="706"/>
      <point x="309" y="706"/>
      <point x="268" y="706" type="curve" smooth="yes"/>
    </contour>
  </outline>
</glyph>
<glyph name="n.superior" format="1">
  <advance width="449"/>
  <unicode hex="207F"/>
  <outline>
    <contour>
      <point x="177" y="492" type="line" smooth="yes" name="hr00"/>
      <point x="177" y="518"/>
      <point x="178" y="531"/>
      <point x="186" y="539" type="curve" smooth="yes"/>
      <point x="195" y="548"/>
      <point x="207" y="555"/>
      <point x="225" y="555" type="curve" smooth="yes"/>
      <point x="255" y="555"/>
      <point x="272" y="531"/>
      <point x="272" y="497" type="curve" smooth="yes"/>
      <point x="272" y="381" type="line" smooth="yes"/>
      <point x="272" y="356"/>
      <point x="268" y="346"/>
      <point x="258" y="344" type="curve" smooth="yes"/>
      <point x="247" y="342" type="line"/>
      <point x="239" y="337"/>
      <point x="240" y="316"/>
      <point x="250" y="313" type="curve"/>
      <point x="277" y="315"/>
      <point x="304" y="315"/>
      <point x="329" y="315" type="curve" smooth="yes"/>
      <point x="358" y="315"/>
      <point x="384" y="315"/>
      <point x="420" y="313" type="curve"/>
      <point x="427" y="316"/>
      <point x="428" y="339"/>
      <point x="421" y="342" type="curve"/>
      <point x="403" y="344" type="line" smooth="yes"/>
      <point x="382" y="346"/>
      <point x="379" y="356"/>
      <point x="379" y="401" type="curve" smooth="yes"/>
      <point x="379" y="512" type="line" smooth="yes"/>
      <point x="379" y="568"/>
      <point x="348" y="608"/>
      <point x="279" y="608" type="curve" smooth="yes"/>
      <point x="239" y="608"/>
      <point x="212" y="590"/>
      <point x="184" y="572" type="curve"/>
      <point x="179" y="573"/>
      <point x="177" y="574"/>
      <point x="177" y="579" type="curve" smooth="yes"/>
      <point x="177" y="585"/>
      <point x="178" y="597"/>
      <point x="179" y="610" type="curve"/>
      <point x="178" y="615"/>
      <point x="174" y="618"/>
      <point x="166" y="618" type="curve"/>
      <point x="136" y="605"/>
      <point x="83" y="588"/>
      <point x="42" y="579" type="curve"/>
      <point x="35" y="574"/>
      <point x="35" y="560"/>
      <point x="41" y="555" type="curve"/>
      <point x="50" y="550" type="line" smooth="yes"/>
      <point x="70" y="539"/>
      <point x="70" y="530"/>
      <point x="70" y="502" type="curve" smooth="yes"/>
      <point x="70" y="401" type="line" smooth="yes"/>
      <point x="70" y="356"/>
      <point x="67" y="347"/>
      <point x="45" y="344" type="curve" smooth="yes"/>
      <point x="28" y="342" type="line"/>
      <point x="21" y="337"/>
      <point x="21" y="316"/>
      <point x="30" y="313" type="curve"/>
      <point x="64" y="315"/>
      <point x="91" y="315"/>
      <point x="116" y="315" type="curve" smooth="yes"/>
      <point x="145" y="315"/>
      <point x="172" y="315"/>
      <point x="199" y="313" type="curve"/>
      <point x="208" y="316"/>
      <point x="209" y="338"/>
      <point x="200" y="342" type="curve"/>
      <point x="189" y="344" type="line" smooth="yes"/>
      <point x="180" y="346"/>
      <point x="177" y="356"/>
      <point x="177" y="381" type="curve" smooth="yes"/>
    </contour>
  </outline>
</glyph>
<glyph name="zero.inferior" format="1">
  <advance width="400"/>
  <unicode hex="2080"/>
  <outline>
    <contour>
      <point x="200" y="228" type="curve" smooth="yes" name="hr00"/>
      <point x="85" y="228"/>
      <point x="35" y="123"/>
      <point x="35" y="28" type="curve" smooth="yes"/>
      <point x="35" y="-70"/>
      <point x="85" y="-172"/>
      <point x="200" y="-172" type="curve" smooth="yes"/>
      <point x="316" y="-172"/>
      <point x="366" y="-69"/>
      <point x="366" y="28" type="curve" smooth="yes"/>
      <point x="366" y="123"/>
      <point x="316" y="228"/>
    </contour>
    <contour>
      <point x="200" y="194" type="curve" smooth="yes"/>
      <point x="245" y="194"/>
      <point x="253" y="83"/>
      <point x="253" y="28" type="curve" smooth="yes"/>
      <point x="253" y="-25"/>
      <point x="245" y="-138"/>
      <point x="200" y="-138" type="curve" smooth="yes"/>
      <point x="156" y="-138"/>
      <point x="148" y="-25"/>
      <point x="148" y="28" type="curve" smooth="yes"/>
      <point x="148" y="83"/>
      <point x="156" y="194"/>
    </contour>
  </outline>
</glyph>
<glyph name="nine.inferior" format="1">
  <advance width="400"/>
  <unicode hex="2089"/>
  <outline>
    <contour>
      <point x="151" y="-25" type="curve" smooth="yes" name="hr00"/>
      <point x="176" y="-25"/>
      <point x="205" y="-12"/>
      <point x="217" y="-3" type="curve"/>
      <point x="221" y="3"/>
      <point x="219" y="15"/>
      <point x="212" y="18" type="curve"/>
      <point x="198" y="18" type="line"/>
      <point x="163" y="24"/>
      <point x="141" y="78"/>
      <point x="141" y="120" type="curve" smooth="yes"/>
      <point x="141" y="162"/>
      <point x="158" y="194"/>
      <point x="189" y="194" type="curve" smooth="yes"/>
      <point x="227" y="194"/>
      <point x="243" y="130"/>
      <point x="243" y="64" type="curve" smooth="yes"/>
      <point x="243" y="-49"/>
      <point x="179" y="-139"/>
      <point x="54" y="-171" type="curve"/>
      <point x="44" y="-177"/>
      <point x="48" y="-199"/>
      <point x="59" y="-202" type="curve"/>
      <point x="209" y="-191"/>
      <point x="361" y="-100"/>
      <point x="361" y="65" type="curve" smooth="yes"/>
      <point x="361" y="156"/>
      <point x="306" y="228"/>
      <point x="192" y="228" type="curve" smooth="yes"/>
      <point x="103" y="228"/>
      <point x="35" y="172"/>
      <point x="35" y="85" type="curve" smooth="yes"/>
      <point x="35" y="17"/>
      <point x="85" y="-25"/>
    </contour>
  </outline>
</glyph>
<glyph name="parenleft.inferior" format="1">
  <advance width="240"/>
  <unicode hex="208D"/>
  <outline>
    <contour>
      <point x="36" y="28" type="curve" smooth="yes" name="hr00"/>
      <point x="36" y="-85"/>
      <point x="98" y="-183"/>
      <point x="206" y="-232" type="curve"/>
      <point x="214" y="-231"/>
      <point x="223" y="-222"/>
      <point x="220" y="-212" type="curve"/>
      <point x="177" y="-163"/>
      <point x="133" y="-83"/>
      <point x="133" y="28" type="curve" smooth="yes"/>
      <point x="133" y="139"/>
      <point x="177" y="219"/>
      <point x="220" y="268" type="curve"/>
      <point x="223" y="278"/>
      <point x="214" y="287"/>
      <point x="206" y="288" type="curve"/>
      <point x="98" y="239"/>
      <point x="36" y="141"/>
    </contour>
  </outline>
</glyph>
<glyph name="parenright.inferior" format="1">
  <advance width="240"/>
  <unicode hex="208E"/>
  <outline>
    <contour>
      <point x="204" y="28" type="curve" smooth="yes" name="hr00"/>
      <point x="204" y="141"/>
      <point x="142" y="239"/>
      <point x="34" y="288" type="curve"/>
      <point x="26" y="287"/>
      <point x="17" y="278"/>
      <point x="20" y="268" type="curve"/>
      <point x="63" y="219"/>
      <point x="107" y="139"/>
      <point x="107" y="28" type="curve" smooth="yes"/>
      <point x="107" y="-83"/>
      <point x="63" y="-163"/>
      <point x="20" y="-212" type="curve"/>
      <point x="17" y="-222"/>
      <point x="26" y="-231"/>
      <point x="34" y="-232" type="curve"/>
      <point x="142" y="-183"/>
      <point x="204" y="-85"/>
    </contour>
  </outline>
</glyph>
<glyph name="colonmonetary" format="1">
  <advance width="613"/>
  <unicode hex="20A1"/>
  <outline>
    <contour>
      <point x="237" y="119" type="line" name="hr01"/>
      <point x="202" y="167"/>
      <point x="183" y="236"/>
      <point x="183" y="315" type="curve" smooth="yes"/>
      <point x="183" y="498"/>
      <point x="268" y="581"/>
      <point x="353" y="596" type="curve" name="hr02"/>
    </contour>
    <contour>
      <point x="394" y="598" type="line" name="hr03"/>
      <point x="414" y="597"/>
      <point x="432" y="593"/>
      <point x="448" y="585" type="curve"/>
      <point x="319" y="53" type="line"/>
      <point x="301" y="60"/>
      <point x="284" y="70"/>
      <point x="270" y="83" type="curve"/>
    </contour>
    <contour>
      <point x="515" y="694" type="line" name="hr04"/>
      <point x="507" y="701"/>
      <point x="482" y="701"/>
      <point x="474" y="694" type="curve"/>
      <point x="460" y="634" type="line" name="hr05"/>
      <point x="443" y="636"/>
      <point x="425" y="639"/>
      <point x="404" y="639" type="curve" name="hr06"/>
      <point x="418" y="694" type="line" name="hr07"/>
      <point x="410" y="701"/>
      <point x="385" y="701"/>
      <point x="377" y="694" type="curve"/>
      <point x="363" y="638" type="line" name="hr08"/>
      <point x="284" y="635"/>
      <point x="208" y="608"/>
      <point x="150" y="559" type="curve" smooth="yes"/>
      <point x="90" y="509"/>
      <point x="42" y="426"/>
      <point x="42" y="313" type="curve" smooth="yes"/>
      <point x="42" y="194"/>
      <point x="93" y="78"/>
      <point x="216" y="30" type="curve"/>
      <point x="193" y="-65" type="line"/>
      <point x="202" y="-71"/>
      <point x="225" y="-71"/>
      <point x="234" y="-65" type="curve"/>
      <point x="254" y="16" type="line"/>
      <point x="272" y="11"/>
      <point x="289" y="7"/>
      <point x="307" y="5" type="curve"/>
      <point x="290" y="-65" type="line"/>
      <point x="299" y="-71"/>
      <point x="322" y="-71"/>
      <point x="331" y="-65" type="curve"/>
      <point x="348" y="2" type="line"/>
      <point x="355" y="0"/>
      <point x="364" y="0"/>
      <point x="372" y="0" type="curve" smooth="yes"/>
      <point x="437" y="0"/>
      <point x="492" y="20"/>
      <point x="537" y="31" type="curve"/>
      <point x="549" y="56"/>
      <point x="568" y="111"/>
      <point x="579" y="177" type="curve"/>
      <point x="576" y="187"/>
      <point x="558" y="188"/>
      <point x="550" y="181" type="curve"/>
      <point x="523" y="122"/>
      <point x="464" y="41"/>
      <point x="374" y="41" type="curve" smooth="yes"/>
      <point x="368" y="41"/>
      <point x="363" y="41"/>
      <point x="358" y="43" type="curve"/>
      <point x="483" y="563" type="line"/>
      <point x="508" y="541"/>
      <point x="525" y="509"/>
      <point x="537" y="469" type="curve"/>
      <point x="543" y="460"/>
      <point x="558" y="460"/>
      <point x="567" y="470" type="curve"/>
      <point x="561" y="525"/>
      <point x="555" y="599"/>
      <point x="556" y="613" type="curve" name="hr09"/>
      <point x="545" y="616"/>
      <point x="526" y="621"/>
      <point x="498" y="627" type="curve" name="hr10"/>
    </contour>
  </outline>
</glyph>
<glyph name="franc" format="1">
  <advance width="520"/>
  <unicode hex="20A3"/>
  <outline>
    <contour>
      <point x="26" y="210" type="line" name="hr01"/>
      <point x="18" y="204"/>
      <point x="18" y="171"/>
      <point x="26" y="165" type="curve"/>
      <point x="96" y="165" type="line"/>
      <point x="96" y="137" type="line" smooth="yes"/>
      <point x="96" y="48"/>
      <point x="90" y="42"/>
      <point x="48" y="35" type="curve" smooth="yes"/>
      <point x="16" y="30" type="line"/>
      <point x="9" y="25"/>
      <point x="9" y="3"/>
      <point x="16" y="-3" type="curve"/>
      <point x="73" y="-1"/>
      <point x="121" y="0"/>
      <point x="164" y="0" type="curve" smooth="yes"/>
      <point x="206" y="0"/>
      <point x="253" y="-1"/>
      <point x="311" y="-3" type="curve"/>
      <point x="318" y="3"/>
      <point x="318" y="25"/>
      <point x="311" y="30" type="curve"/>
      <point x="276" y="35" type="line" smooth="yes"/>
      <point x="234" y="41"/>
      <point x="228" y="48"/>
      <point x="228" y="137" type="curve" smooth="yes"/>
      <point x="228" y="165" type="line"/>
      <point x="400" y="165" type="line"/>
      <point x="408" y="179"/>
      <point x="408" y="204"/>
      <point x="400" y="210" type="curve"/>
      <point x="228" y="210" type="line"/>
      <point x="228" y="300" type="line" smooth="yes"/>
      <point x="228" y="325"/>
      <point x="229" y="328"/>
      <point x="254" y="328" type="curve" smooth="yes"/>
      <point x="328" y="328" type="line" smooth="yes"/>
      <point x="378" y="328"/>
      <point x="386" y="321"/>
      <point x="395" y="294" type="curve" smooth="yes"/>
      <point x="402" y="272" type="line"/>
      <point x="409" y="264"/>
      <point x="433" y="265"/>
      <point x="439" y="273" type="curve"/>
      <point x="437" y="302"/>
      <point x="436" y="327"/>
      <point x="436" y="352" type="curve" smooth="yes"/>
      <point x="436" y="378"/>
      <point x="437" y="413"/>
      <point x="439" y="434" type="curve"/>
      <point x="433" y="442"/>
      <point x="409" y="443"/>
      <point x="402" y="434" type="curve"/>
      <point x="398" y="422" type="line" smooth="yes"/>
      <point x="386" y="385"/>
      <point x="378" y="379"/>
      <point x="328" y="379" type="curve" smooth="yes"/>
      <point x="254" y="379" type="line" smooth="yes"/>
      <point x="229" y="379"/>
      <point x="228" y="381"/>
      <point x="228" y="407" type="curve" smooth="yes"/>
      <point x="228" y="544" type="line" smooth="yes"/>
      <point x="228" y="581"/>
      <point x="228" y="583"/>
      <point x="259" y="583" type="curve" smooth="yes"/>
      <point x="333" y="583" type="line" smooth="yes"/>
      <point x="382" y="583"/>
      <point x="410" y="571"/>
      <point x="426" y="551" type="curve" smooth="yes"/>
      <point x="436" y="539"/>
      <point x="449" y="516"/>
      <point x="456" y="497" type="curve"/>
      <point x="465" y="490"/>
      <point x="486" y="491"/>
      <point x="490" y="501" type="curve"/>
      <point x="488" y="545"/>
      <point x="488" y="613"/>
      <point x="488" y="629" type="curve" name="hr02"/>
      <point x="475" y="627"/>
      <point x="421" y="626"/>
      <point x="360" y="626" type="curve" smooth="yes" name="hr03"/>
      <point x="164" y="626" type="line" smooth="yes"/>
      <point x="119" y="626"/>
      <point x="71" y="627"/>
      <point x="31" y="629" type="curve" name="hr04"/>
      <point x="20" y="625"/>
      <point x="20" y="602"/>
      <point x="29" y="596" type="curve"/>
      <point x="48" y="593" type="line" smooth="yes"/>
      <point x="90" y="586"/>
      <point x="96" y="578"/>
      <point x="96" y="490" type="curve" smooth="yes"/>
      <point x="96" y="210" type="line"/>
    </contour>
  </outline>
</glyph>
<glyph name="lira" format="1">
  <advance width="520"/>
  <unicode hex="20A4"/>
  <outline>
    <contour>
      <point x="13" y="377" type="line" name="hr01"/>
      <point x="0" y="364"/>
      <point x="0" y="340"/>
      <point x="8" y="332" type="curve"/>
      <point x="94" y="332" type="line" smooth="yes"/>
      <point x="106" y="332"/>
      <point x="109" y="329"/>
      <point x="109" y="320" type="curve" smooth="yes"/>
      <point x="109" y="303" type="line" smooth="yes" name="hr02"/>
      <point x="109" y="290"/>
      <point x="107" y="287"/>
      <point x="97" y="287" type="curve" smooth="yes"/>
      <point x="13" y="287" type="line"/>
      <point x="0" y="274"/>
      <point x="0" y="250"/>
      <point x="8" y="242" type="curve"/>
      <point x="93" y="242" type="line" smooth="yes"/>
      <point x="104" y="242"/>
      <point x="108" y="240"/>
      <point x="108" y="230" type="curve" smooth="yes"/>
      <point x="106" y="153"/>
      <point x="79" y="102"/>
      <point x="38" y="69" type="curve" smooth="yes"/>
      <point x="11" y="48"/>
      <point x="-12" y="24"/>
      <point x="-12" y="4" type="curve" smooth="yes"/>
      <point x="-12" y="-8"/>
      <point x="-7" y="-14"/>
      <point x="7" y="-14" type="curve" smooth="yes"/>
      <point x="18" y="-14"/>
      <point x="70" y="-1"/>
      <point x="73" y="13" type="curve" smooth="yes"/>
      <point x="75" y="27"/>
      <point x="85" y="51"/>
      <point x="110" y="51" type="curve" smooth="yes"/>
      <point x="143" y="51"/>
      <point x="183" y="28"/>
      <point x="223" y="3" type="curve" smooth="yes"/>
      <point x="272" y="-28"/>
      <point x="303" y="-40"/>
      <point x="339" y="-40" type="curve" smooth="yes" name="hr03"/>
      <point x="425" y="-40"/>
      <point x="499" y="41"/>
      <point x="499" y="100" type="curve" smooth="yes"/>
      <point x="499" y="146"/>
      <point x="471" y="162"/>
      <point x="449" y="162" type="curve" smooth="yes"/>
      <point x="429" y="162"/>
      <point x="406" y="147"/>
      <point x="421" y="109" type="curve" smooth="yes"/>
      <point x="437" y="69"/>
      <point x="439" y="55"/>
      <point x="410" y="55" type="curve" smooth="yes"/>
      <point x="386" y="55"/>
      <point x="348" y="67"/>
      <point x="315" y="84" type="curve" smooth="yes"/>
      <point x="274" y="105"/>
      <point x="239" y="119"/>
      <point x="216" y="122" type="curve" smooth="yes" name="hr04"/>
      <point x="180" y="128"/>
      <point x="163" y="125"/>
      <point x="147" y="123" type="curve"/>
      <point x="146" y="125" type="line"/>
      <point x="195" y="149"/>
      <point x="227" y="177"/>
      <point x="244" y="220" type="curve" smooth="yes"/>
      <point x="249" y="231"/>
      <point x="252" y="235"/>
      <point x="260" y="235" type="curve" smooth="yes"/>
      <point x="393" y="235" type="line"/>
      <point x="402" y="246"/>
      <point x="407" y="270"/>
      <point x="398" y="280" type="curve"/>
      <point x="274" y="280" type="line" smooth="yes"/>
      <point x="256" y="280"/>
      <point x="252" y="282"/>
      <point x="252" y="295" type="curve" smooth="yes"/>
      <point x="252" y="318" type="line" smooth="yes"/>
      <point x="252" y="331"/>
      <point x="256" y="332"/>
      <point x="274" y="332" type="curve" smooth="yes"/>
      <point x="396" y="332" type="line"/>
      <point x="405" y="343"/>
      <point x="410" y="367"/>
      <point x="401" y="377" type="curve"/>
      <point x="273" y="377" type="line" smooth="yes" name="hr05"/>
      <point x="255" y="377"/>
      <point x="252" y="379"/>
      <point x="250" y="392" type="curve" smooth="yes"/>
      <point x="248" y="401"/>
      <point x="246" y="422"/>
      <point x="246" y="458" type="curve" smooth="yes"/>
      <point x="246" y="552"/>
      <point x="275" y="584"/>
      <point x="292" y="584" type="curve" smooth="yes"/>
      <point x="307" y="584"/>
      <point x="327" y="580"/>
      <point x="370" y="545" type="curve" smooth="yes"/>
      <point x="380" y="536"/>
      <point x="385" y="535"/>
      <point x="394" y="535" type="curve" smooth="yes"/>
      <point x="405" y="535"/>
      <point x="430" y="562"/>
      <point x="430" y="592" type="curve" smooth="yes"/>
      <point x="430" y="607"/>
      <point x="426" y="618"/>
      <point x="418" y="625" type="curve"/>
      <point x="405" y="634"/>
      <point x="382" y="640"/>
      <point x="353" y="640" type="curve" smooth="yes"/>
      <point x="217" y="640"/>
      <point x="106" y="539"/>
      <point x="107" y="393" type="curve" smooth="yes"/>
      <point x="107" y="380"/>
      <point x="103" y="377"/>
      <point x="93" y="377" type="curve" smooth="yes"/>
    </contour>
  </outline>
</glyph>
<glyph name="uni2113" format="1">
  <advance width="435"/>
  <unicode hex="2113"/>
  <outline>
    <contour>
      <point x="94" y="256" type="line" name="hr00"/>
      <point x="72" y="238"/>
      <point x="36" y="209"/>
      <point x="8" y="189" type="curve"/>
      <point x="5" y="182"/>
      <point x="23" y="157"/>
      <point x="34" y="157" type="curve"/>
      <point x="51" y="168"/>
      <point x="72" y="183"/>
      <point x="94" y="199" type="curve"/>
      <point x="94" y="182" type="line" smooth="yes"/>
      <point x="94" y="59"/>
      <point x="128" y="-14"/>
      <point x="232" y="-14" type="curve" smooth="yes"/>
      <point x="316" y="-14"/>
      <point x="370" y="26"/>
      <point x="400" y="106" type="curve"/>
      <point x="400" y="116"/>
      <point x="372" y="135"/>
      <point x="366" y="125" type="curve" smooth="yes"/>
      <point x="332" y="67"/>
      <point x="310" y="50"/>
      <point x="280" y="50" type="curve" smooth="yes"/>
      <point x="250" y="50"/>
      <point x="226" y="82"/>
      <point x="226" y="164" type="curve" smooth="yes"/>
      <point x="226" y="278" type="line"/>
      <point x="277" y="320"/>
      <point x="390" y="415"/>
      <point x="390" y="544" type="curve" smooth="yes"/>
      <point x="390" y="626"/>
      <point x="346" y="676"/>
      <point x="273" y="676" type="curve" smooth="yes"/>
      <point x="158" y="676"/>
      <point x="94" y="574"/>
      <point x="94" y="422" type="curve" smooth="yes"/>
    </contour>
    <contour>
      <point x="226" y="505" type="line" smooth="yes"/>
      <point x="226" y="591"/>
      <point x="245" y="634"/>
      <point x="267" y="634" type="curve" smooth="yes"/>
      <point x="311" y="634"/>
      <point x="328" y="588"/>
      <point x="328" y="542" type="curve" smooth="yes"/>
      <point x="328" y="467"/>
      <point x="285" y="395"/>
      <point x="226" y="341" type="curve"/>
    </contour>
  </outline>
</glyph>
<glyph name="estimated" format="1">
  <advance width="810"/>
  <unicode hex="212E"/>
  <outline>
    <contour>
      <point x="770" y="306" type="line" name="hr00"/>
      <point x="770" y="314" type="line" smooth="yes"/>
      <point x="770" y="496"/>
      <point x="606" y="643"/>
      <point x="405" y="643" type="curve" smooth="yes"/>
      <point x="204" y="643"/>
      <point x="40" y="496"/>
      <point x="40" y="314" type="curve" smooth="yes"/>
      <point x="40" y="132"/>
      <point x="204" y="-14"/>
      <point x="405" y="-14" type="curve" smooth="yes"/>
      <point x="523" y="-14"/>
      <point x="628" y="37"/>
      <point x="694" y="114" type="curve"/>
      <point x="641" y="114" type="line"/>
      <point x="584" y="48"/>
      <point x="500" y="6"/>
      <point x="406" y="6" type="curve" smooth="yes"/>
      <point x="318" y="6"/>
      <point x="238" y="43"/>
      <point x="182" y="102" type="curve" smooth="yes"/>
      <point x="177" y="108"/>
      <point x="174" y="115"/>
      <point x="174" y="123" type="curve" smooth="yes"/>
      <point x="174" y="301" type="line" smooth="yes"/>
      <point x="174" y="304"/>
      <point x="176" y="306"/>
      <point x="179" y="306" type="curve" smooth="yes"/>
    </contour>
    <contour>
      <point x="636" y="329" type="line" smooth="yes"/>
      <point x="636" y="326"/>
      <point x="635" y="324"/>
      <point x="632" y="324" type="curve" smooth="yes"/>
      <point x="179" y="324" type="line" smooth="yes"/>
      <point x="176" y="324"/>
      <point x="174" y="326"/>
      <point x="174" y="329" type="curve" smooth="yes"/>
      <point x="174" y="505" type="line" smooth="yes"/>
      <point x="174" y="514"/>
      <point x="177" y="522"/>
      <point x="183" y="528" type="curve" smooth="yes"/>
      <point x="239" y="586"/>
      <point x="318" y="623"/>
      <point x="406" y="623" type="curve" smooth="yes"/>
      <point x="492" y="623"/>
      <point x="571" y="587"/>
      <point x="627" y="530" type="curve" smooth="yes"/>
      <point x="633" y="524"/>
      <point x="636" y="518"/>
      <point x="636" y="509" type="curve" smooth="yes"/>
    </contour>
  </outline>
</glyph>
<glyph name="twothirds" format="1">
  <advance width="840"/>
  <unicode hex="2154"/>
  <outline>
    <contour>
      <point x="197" y="247" type="line" smooth="yes" name="hr01"/>
      <point x="256" y="247"/>
      <point x="284" y="246"/>
      <point x="311" y="245" type="curve"/>
      <point x="324" y="265"/>
      <point x="344" y="319"/>
      <point x="350" y="352" type="curve"/>
      <point x="345" y="357"/>
      <point x="335" y="359"/>
      <point x="327" y="356" type="curve"/>
      <point x="310" y="324"/>
      <point x="289" y="322"/>
      <point x="243" y="322" type="curve" smooth="yes"/>
      <point x="181" y="322" type="line" smooth="yes"/>
      <point x="168" y="322"/>
      <point x="163" y="330"/>
      <point x="173" y="339" type="curve" smooth="yes"/>
      <point x="198" y="360" type="line"/>
      <point x="229" y="383" type="line" smooth="yes"/>
      <point x="307" y="441"/>
      <point x="327" y="486"/>
      <point x="327" y="528" type="curve" smooth="yes"/>
      <point x="327" y="592"/>
      <point x="280" y="640"/>
      <point x="192" y="640" type="curve" smooth="yes"/>
      <point x="131" y="640"/>
      <point x="71" y="607"/>
      <point x="37" y="540" type="curve"/>
      <point x="37" y="524"/>
      <point x="55" y="516"/>
      <point x="65" y="523" type="curve"/>
      <point x="85" y="559"/>
      <point x="113" y="582"/>
      <point x="146" y="582" type="curve" smooth="yes"/>
      <point x="183" y="582"/>
      <point x="205" y="554"/>
      <point x="205" y="513" type="curve" smooth="yes"/>
      <point x="205" y="452"/>
      <point x="166" y="393"/>
      <point x="130" y="355" type="curve" smooth="yes"/>
      <point x="76" y="300"/>
      <point x="52" y="282"/>
      <point x="29" y="264" type="curve"/>
      <point x="27" y="258"/>
      <point x="29" y="249"/>
      <point x="36" y="245" type="curve"/>
      <point x="47" y="246"/>
      <point x="64" y="247"/>
      <point x="101" y="247" type="curve" smooth="yes"/>
    </contour>
    <contour>
      <point x="647" y="630" type="line"/>
      <point x="642" y="647"/>
      <point x="615" y="656"/>
      <point x="600" y="654" type="curve"/>
      <point x="230" y="-16" type="line"/>
      <point x="237" y="-33"/>
      <point x="259" y="-44"/>
      <point x="277" y="-40" type="curve"/>
    </contour>
    <contour>
      <point x="575" y="-39" type="curve" smooth="yes"/>
      <point x="611" y="-39"/>
      <point x="675" y="-27"/>
      <point x="730" y="8" type="curve" smooth="yes"/>
      <point x="788" y="44"/>
      <point x="813" y="85"/>
      <point x="813" y="134" type="curve" smooth="yes"/>
      <point x="813" y="201"/>
      <point x="759" y="226"/>
      <point x="708" y="232" type="curve" smooth="yes"/>
      <point x="700" y="233"/>
      <point x="693" y="238"/>
      <point x="700" y="241" type="curve" smooth="yes"/>
      <point x="764" y="267"/>
      <point x="777" y="290"/>
      <point x="777" y="319" type="curve" smooth="yes" name="hr02"/>
      <point x="777" y="361"/>
      <point x="733" y="393"/>
      <point x="668" y="393" type="curve" smooth="yes"/>
      <point x="611" y="393"/>
      <point x="554" y="362"/>
      <point x="526" y="308" type="curve"/>
      <point x="525" y="296"/>
      <point x="539" y="286"/>
      <point x="551" y="291" type="curve"/>
      <point x="575" y="327"/>
      <point x="603" y="341"/>
      <point x="625" y="341" type="curve" smooth="yes"/>
      <point x="654" y="341"/>
      <point x="670" y="324"/>
      <point x="670" y="301" type="curve" smooth="yes"/>
      <point x="670" y="246"/>
      <point x="585" y="216"/>
      <point x="545" y="201" type="curve"/>
      <point x="537" y="190"/>
      <point x="542" y="169"/>
      <point x="561" y="165" type="curve"/>
      <point x="579" y="181"/>
      <point x="601" y="190"/>
      <point x="628" y="190" type="curve" smooth="yes" name="hr03"/>
      <point x="666" y="190"/>
      <point x="693" y="158"/>
      <point x="693" y="106" type="curve" smooth="yes"/>
      <point x="693" y="31"/>
      <point x="646" y="0"/>
      <point x="618" y="1" type="curve" smooth="yes"/>
      <point x="605" y="1"/>
      <point x="597" y="6"/>
      <point x="589" y="18" type="curve" smooth="yes"/>
      <point x="581" y="29"/>
      <point x="567" y="55"/>
      <point x="542" y="55" type="curve" smooth="yes"/>
      <point x="510" y="55"/>
      <point x="499" y="31"/>
      <point x="499" y="14" type="curve" smooth="yes"/>
      <point x="499" y="-24"/>
      <point x="541" y="-39"/>
    </contour>
  </outline>
</glyph>
<glyph name="seveneighths" format="1">
  <advance width="840"/>
  <unicode hex="215E"/>
  <outline>
    <contour>
      <point x="640" y="-7" type="curve" smooth="yes" name="hr01"/>
      <point x="751" y="-7"/>
      <point x="802" y="41"/>
      <point x="802" y="99" type="curve" smooth="yes" name="hr02"/>
      <point x="802" y="154"/>
      <point x="764" y="187"/>
      <point x="721" y="210" type="curve"/>
      <point x="747" y="221"/>
      <point x="787" y="249"/>
      <point x="787" y="292" type="curve" smooth="yes" name="hr03"/>
      <point x="787" y="358"/>
      <point x="735" y="393"/>
      <point x="649" y="393" type="curve" smooth="yes"/>
      <point x="549" y="393"/>
      <point x="501" y="343"/>
      <point x="501" y="280" type="curve" smooth="yes"/>
      <point x="501" y="240"/>
      <point x="530" y="208"/>
      <point x="569" y="187" type="curve"/>
      <point x="523" y="175"/>
      <point x="488" y="139"/>
      <point x="488" y="95" type="curve" smooth="yes" name="hr04"/>
      <point x="488" y="22"/>
      <point x="556" y="-7"/>
    </contour>
    <contour>
      <point x="614" y="165" type="curve" name="hr05"/>
      <point x="667" y="147"/>
      <point x="702" y="117"/>
      <point x="702" y="76" type="curve" smooth="yes"/>
      <point x="702" y="47"/>
      <point x="680" y="27"/>
      <point x="648" y="27" type="curve" smooth="yes"/>
      <point x="607" y="27"/>
      <point x="581" y="60"/>
      <point x="581" y="98" type="curve" smooth="yes"/>
      <point x="581" y="122"/>
      <point x="593" y="148"/>
    </contour>
    <contour>
      <point x="675" y="235" type="curve" name="hr06"/>
      <point x="615" y="258"/>
      <point x="593" y="280"/>
      <point x="593" y="307" type="curve" smooth="yes"/>
      <point x="593" y="340"/>
      <point x="617" y="359"/>
      <point x="646" y="359" type="curve" smooth="yes"/>
      <point x="673" y="359"/>
      <point x="703" y="335"/>
      <point x="703" y="294" type="curve" smooth="yes"/>
      <point x="703" y="272"/>
      <point x="691" y="249"/>
    </contour>
    <contour>
      <point x="151" y="633" type="line" smooth="yes"/>
      <point x="115" y="633"/>
      <point x="90" y="634"/>
      <point x="71" y="635" type="curve"/>
      <point x="67" y="612"/>
      <point x="57" y="564"/>
      <point x="39" y="519" type="curve"/>
      <point x="42" y="511"/>
      <point x="64" y="504"/>
      <point x="69" y="513" type="curve"/>
      <point x="82" y="544"/>
      <point x="102" y="551"/>
      <point x="135" y="551" type="curve" smooth="yes"/>
      <point x="243" y="551" type="line" smooth="yes"/>
      <point x="255" y="551"/>
      <point x="262" y="548"/>
      <point x="262" y="542" type="curve" smooth="yes"/>
      <point x="262" y="530"/>
      <point x="256" y="517"/>
      <point x="243" y="496" type="curve" smooth="yes"/>
      <point x="83" y="240" type="line"/>
      <point x="90" y="221"/>
      <point x="107" y="210"/>
      <point x="124" y="215" type="curve"/>
      <point x="312" y="525" type="line" smooth="yes"/>
      <point x="340" y="571"/>
      <point x="360" y="597"/>
      <point x="375" y="624" type="curve"/>
      <point x="375" y="630"/>
      <point x="374" y="634"/>
      <point x="370" y="635" type="curve"/>
      <point x="353" y="633"/>
      <point x="316" y="633"/>
      <point x="275" y="633" type="curve" smooth="yes"/>
    </contour>
    <contour>
      <point x="584" y="630" type="line"/>
      <point x="579" y="647"/>
      <point x="552" y="656"/>
      <point x="537" y="654" type="curve"/>
      <point x="167" y="-16" type="line"/>
      <point x="174" y="-33"/>
      <point x="196" y="-44"/>
      <point x="214" y="-40" type="curve"/>
    </contour>
  </outline>
</glyph>
<glyph name="partialdiff" format="1">
  <advance width="548"/>
  <unicode hex="2202"/>
  <outline>
    <contour>
      <point x="254" y="417" type="curve" smooth="yes" name="hr00"/>
      <point x="127" y="417"/>
      <point x="40" y="309"/>
      <point x="40" y="189" type="curve" smooth="yes"/>
      <point x="40" y="76"/>
      <point x="118" y="-14"/>
      <point x="245" y="-14" type="curve" smooth="yes"/>
      <point x="347" y="-14"/>
      <point x="418" y="54"/>
      <point x="455" y="125" type="curve" smooth="yes"/>
      <point x="493" y="198"/>
      <point x="508" y="275"/>
      <point x="508" y="352" type="curve" smooth="yes"/>
      <point x="508" y="530"/>
      <point x="412" y="714"/>
      <point x="222" y="714" type="curve" smooth="yes"/>
      <point x="180" y="714"/>
      <point x="150" y="705"/>
      <point x="127" y="693" type="curve" smooth="yes"/>
      <point x="108" y="684"/>
      <point x="93" y="667"/>
      <point x="93" y="638" type="curve" smooth="yes"/>
      <point x="93" y="602"/>
      <point x="107" y="579"/>
      <point x="132" y="593" type="curve" smooth="yes"/>
      <point x="198" y="629"/>
      <point x="238" y="646"/>
      <point x="268" y="646" type="curve" smooth="yes"/>
      <point x="365" y="646"/>
      <point x="396" y="554"/>
      <point x="394" y="448" type="curve" smooth="yes"/>
      <point x="393" y="397"/>
      <point x="389" y="373"/>
      <point x="384" y="353" type="curve"/>
      <point x="346" y="403"/>
      <point x="305" y="417"/>
    </contour>
    <contour>
      <point x="280" y="358" type="curve" smooth="yes"/>
      <point x="323" y="358"/>
      <point x="359" y="319"/>
      <point x="373" y="297" type="curve"/>
      <point x="360" y="203"/>
      <point x="321" y="32"/>
      <point x="242" y="32" type="curve" smooth="yes"/>
      <point x="201" y="32"/>
      <point x="179" y="84"/>
      <point x="179" y="159" type="curve" smooth="yes"/>
      <point x="179" y="256"/>
      <point x="219" y="358"/>
    </contour>
  </outline>
</glyph>
<glyph name="minus" format="1">
  <advance width="520"/>
  <unicode hex="2212"/>
  <outline>
    <contour>
      <point x="461" y="177" type="line" name="hr00"/>
      <point x="461" y="249" type="line"/>
      <point x="60" y="249" type="line"/>
      <point x="60" y="177" type="line"/>
    </contour>
  </outline>
</glyph>
<glyph name="uni2215" format="1">
  <advance width="100"/>
  <unicode hex="2215"/>
  <outline>
    <contour>
      <point x="259" y="630" type="line" name="hr00"/>
      <point x="254" y="647"/>
      <point x="227" y="656"/>
      <point x="212" y="654" type="curve"/>
      <point x="-158" y="-16" type="line"/>
      <point x="-151" y="-33"/>
      <point x="-129" y="-44"/>
      <point x="-111" y="-40" type="curve"/>
    </contour>
  </outline>
</glyph>
<glyph name="infinity" format="1">
  <advance width="786"/>
  <unicode hex="221E"/>
  <outline>
    <contour>
      <point x="191" y="430" type="curve" smooth="yes" name="hr00"/>
      <point x="113" y="430"/>
      <point x="40" y="365"/>
      <point x="40" y="270" type="curve" smooth="yes"/>
      <point x="40" y="180"/>
      <point x="98" y="101"/>
      <point x="200" y="101" type="curve" smooth="yes"/>
      <point x="308" y="101"/>
      <point x="370" y="184"/>
      <point x="394" y="207" type="curve"/>
      <point x="418" y="186"/>
      <point x="483" y="101"/>
      <point x="586" y="101" type="curve" smooth="yes"/>
      <point x="683" y="101"/>
      <point x="746" y="169"/>
      <point x="746" y="267" type="curve" smooth="yes"/>
      <point x="746" y="360"/>
      <point x="672" y="430"/>
      <point x="594" y="430" type="curve" smooth="yes"/>
      <point x="514" y="431"/>
      <point x="449" y="370"/>
      <point x="395" y="317" type="curve"/>
      <point x="337" y="370"/>
      <point x="287" y="431"/>
    </contour>
    <contour>
      <point x="204" y="357" type="curve" smooth="yes"/>
      <point x="263" y="357"/>
      <point x="314" y="296"/>
      <point x="351" y="256" type="curve"/>
      <point x="311" y="214"/>
      <point x="255" y="168"/>
      <point x="206" y="168" type="curve" smooth="yes"/>
      <point x="159" y="168"/>
      <point x="116" y="205"/>
      <point x="116" y="270" type="curve" smooth="yes"/>
      <point x="116" y="303"/>
      <point x="144" y="357"/>
    </contour>
    <contour>
      <point x="582" y="356" type="curve" smooth="yes"/>
      <point x="639" y="356"/>
      <point x="670" y="308"/>
      <point x="670" y="262" type="curve" smooth="yes"/>
      <point x="670" y="205"/>
      <point x="628" y="169"/>
      <point x="586" y="169" type="curve" smooth="yes"/>
      <point x="526" y="169"/>
      <point x="481" y="224"/>
      <point x="441" y="267" type="curve"/>
      <point x="477" y="298"/>
      <point x="528" y="356"/>
    </contour>
  </outline>
</glyph>
<glyph name="Euro.fitted" format="1">
  <advance width="619"/>
  <unicode hex="E000"/>
  <outline>
    <contour>
      <point x="55" y="391" type="line" name="hr01"/>
      <point x="48" y="385"/>
      <point x="39" y="352"/>
      <point x="46" y="346" type="curve"/>
      <point x="85" y="346" type="line"/>
      <point x="83" y="332"/>
      <point x="81" y="300"/>
      <point x="83" y="286" type="curve"/>
      <point x="36" y="286" type="line"/>
      <point x="29" y="280"/>
      <point x="20" y="247"/>
      <point x="27" y="241" type="curve"/>
      <point x="86" y="241" type="line"/>
      <point x="106" y="79"/>
      <point x="211" y="-14"/>
      <point x="384" y="-14" type="curve" smooth="yes"/>
      <point x="439" y="-14"/>
      <point x="499" y="0"/>
      <point x="518" y="7" type="curve" smooth="yes"/>
      <point x="527" y="10"/>
      <point x="537" y="13"/>
      <point x="547" y="15" type="curve"/>
      <point x="559" y="33"/>
      <point x="575" y="76"/>
      <point x="588" y="139" type="curve"/>
      <point x="583" y="148"/>
      <point x="565" y="151"/>
      <point x="558" y="143" type="curve"/>
      <point x="531" y="101"/>
      <point x="489" y="32"/>
      <point x="407" y="32" type="curve" smooth="yes"/>
      <point x="313" y="32"/>
      <point x="241" y="100"/>
      <point x="229" y="241" type="curve"/>
      <point x="484" y="241" type="line"/>
      <point x="495" y="247"/>
      <point x="500" y="280"/>
      <point x="493" y="286" type="curve"/>
      <point x="225" y="286" type="line"/>
      <point x="224" y="296"/>
      <point x="223" y="337"/>
      <point x="225" y="346" type="curve"/>
      <point x="512" y="346" type="line"/>
      <point x="524" y="352"/>
      <point x="524" y="380"/>
      <point x="522" y="391" type="curve"/>
      <point x="229" y="391" type="line"/>
      <point x="245" y="535"/>
      <point x="316" y="593"/>
      <point x="394" y="593" type="curve" smooth="yes"/>
      <point x="486" y="593"/>
      <point x="524" y="522"/>
      <point x="539" y="478" type="curve"/>
      <point x="545" y="471"/>
      <point x="565" y="472"/>
      <point x="571" y="485" type="curve" name="hr02"/>
      <point x="562" y="535"/>
      <point x="561" y="590"/>
      <point x="559" y="612" type="curve"/>
      <point x="535" y="618" type="line" smooth="yes"/>
      <point x="496" y="629"/>
      <point x="456" y="639"/>
      <point x="399" y="639" type="curve" smooth="yes" name="hr03"/>
      <point x="230" y="639"/>
      <point x="121" y="531"/>
      <point x="92" y="391" type="curve"/>
    </contour>
  </outline>
</glyph>
<glyph name="space_uni0326" format="1">
  <advance width="380"/>
  <unicode hex="F6C3"/>
  <outline>
    <contour>
      <point x="178" y="-45" type="curve" smooth="yes" name="hr00"/>
      <point x="148" y="-45"/>
      <point x="123" y="-67"/>
      <point x="123" y="-95" type="curve" smooth="yes"/>
      <point x="123" y="-112"/>
      <point x="133" y="-126"/>
      <point x="147" y="-130" type="curve" smooth="yes"/>
      <point x="166" y="-135"/>
      <point x="191" y="-149"/>
      <point x="191" y="-180" type="curve" smooth="yes"/>
      <point x="191" y="-214"/>
      <point x="151" y="-241"/>
      <point x="123" y="-251" type="curve"/>
      <point x="114" y="-257"/>
      <point x="117" y="-283"/>
      <point x="131" y="-284" type="curve"/>
      <point x="202" y="-269"/>
      <point x="262" y="-226"/>
      <point x="262" y="-144" type="curve" smooth="yes"/>
      <point x="262" y="-73"/>
      <point x="211" y="-45"/>
    </contour>
  </outline>
</glyph>
<glyph name="caron.cap" format="1">
  <advance width="380"/>
  <unicode hex="F6CA"/>
  <outline>
    <contour>
      <point x="49" y="861" type="line" name="hr00"/>
      <point x="42" y="860"/>
      <point x="35" y="847"/>
      <point x="37" y="835" type="curve"/>
      <point x="165" y="718" type="line" smooth="yes"/>
      <point x="179" y="705"/>
      <point x="194" y="705"/>
      <point x="209" y="718" type="curve" smooth="yes"/>
      <point x="338" y="835" type="line"/>
      <point x="340" y="847"/>
      <point x="334" y="861"/>
      <point x="325" y="861" type="curve"/>
      <point x="205" y="810" type="line" smooth="yes"/>
      <point x="191" y="804"/>
      <point x="183" y="806"/>
      <point x="170" y="811" type="curve" smooth="yes"/>
    </contour>
  </outline>
</glyph>
<glyph name="grave.cap" format="1">
  <advance width="380"/>
  <unicode hex="F6CE"/>
  <outline>
    <contour>
      <point x="110" y="854" type="line" smooth="yes" name="hr00"/>
      <point x="94" y="865"/>
      <point x="84" y="869"/>
      <point x="77" y="869" type="curve" smooth="yes"/>
      <point x="67" y="869"/>
      <point x="55" y="861"/>
      <point x="43" y="838" type="curve" smooth="yes"/>
      <point x="31" y="817"/>
      <point x="31" y="802"/>
      <point x="33" y="795" type="curve" smooth="yes"/>
      <point x="35" y="787"/>
      <point x="45" y="776"/>
      <point x="65" y="770" type="curve" smooth="yes"/>
      <point x="261" y="706" type="line"/>
      <point x="269" y="713"/>
      <point x="275" y="728"/>
      <point x="272" y="736" type="curve"/>
    </contour>
  </outline>
</glyph>
<glyph name="cent.superior" format="1">
  <advance width="400"/>
  <unicode hex="F6E0"/>
  <outline>
    <contour>
      <point x="208" y="406" type="line" name="hr00"/>
      <point x="173" y="426"/>
      <point x="153" y="466"/>
      <point x="153" y="521" type="curve" smooth="yes"/>
      <point x="153" y="573"/>
      <point x="176" y="646"/>
      <point x="241" y="646" type="curve" smooth="yes"/>
      <point x="244" y="646"/>
      <point x="247" y="646"/>
      <point x="248" y="645" type="curve"/>
    </contour>
    <contour>
      <point x="285" y="632" type="line"/>
      <point x="285" y="633"/>
      <point x="285" y="634"/>
      <point x="286" y="634" type="curve" smooth="yes"/>
      <point x="305" y="621"/>
      <point x="320" y="602"/>
      <point x="336" y="587" type="curve" smooth="yes"/>
      <point x="338" y="586"/>
      <point x="343" y="584"/>
      <point x="347" y="584" type="curve" smooth="yes"/>
      <point x="358" y="584"/>
      <point x="371" y="602"/>
      <point x="371" y="624" type="curve" smooth="yes"/>
      <point x="371" y="646"/>
      <point x="359" y="664"/>
      <point x="351" y="670" type="curve"/>
      <point x="336" y="675"/>
      <point x="314" y="679"/>
      <point x="293" y="681" type="curve"/>
      <point x="304" y="745" type="line"/>
      <point x="296" y="754"/>
      <point x="272" y="754"/>
      <point x="265" y="745" type="curve"/>
      <point x="254" y="683" type="line"/>
      <point x="143" y="682"/>
      <point x="38" y="621"/>
      <point x="38" y="498" type="curve" smooth="yes"/>
      <point x="38" y="411"/>
      <point x="100" y="347"/>
      <point x="196" y="336" type="curve"/>
      <point x="183" y="258" type="line"/>
      <point x="189" y="247"/>
      <point x="214" y="247"/>
      <point x="221" y="258" type="curve"/>
      <point x="234" y="335" type="line"/>
      <point x="311" y="337"/>
      <point x="359" y="380"/>
      <point x="383" y="427" type="curve"/>
      <point x="383" y="437"/>
      <point x="372" y="444"/>
      <point x="361" y="443" type="curve"/>
      <point x="345" y="414"/>
      <point x="307" y="390"/>
      <point x="269" y="390" type="curve" smooth="yes"/>
      <point x="260" y="390"/>
      <point x="252" y="391"/>
      <point x="244" y="393" type="curve"/>
    </contour>
  </outline>
</glyph>
<glyph name="s.superior" format="1">
  <advance width="310"/>
  <unicode hex="F6F2"/>
  <outline>
    <contour>
      <point x="171" y="608" type="curve" smooth="yes" name="hr00"/>
      <point x="95" y="608"/>
      <point x="40" y="575"/>
      <point x="40" y="514" type="curve" smooth="yes"/>
      <point x="40" y="462"/>
      <point x="89" y="438"/>
      <point x="131" y="424" type="curve" smooth="yes"/>
      <point x="177" y="408"/>
      <point x="187" y="394"/>
      <point x="187" y="376" type="curve" smooth="yes"/>
      <point x="187" y="358"/>
      <point x="173" y="344"/>
      <point x="150" y="344" type="curve" smooth="yes"/>
      <point x="108" y="344"/>
      <point x="75" y="376"/>
      <point x="60" y="418" type="curve"/>
      <point x="56" y="425"/>
      <point x="35" y="425"/>
      <point x="30" y="416" type="curve"/>
      <point x="29" y="391"/>
      <point x="35" y="346"/>
      <point x="44" y="334" type="curve"/>
      <point x="63" y="320"/>
      <point x="95" y="308"/>
      <point x="143" y="308" type="curve" smooth="yes"/>
      <point x="222" y="308"/>
      <point x="280" y="341"/>
      <point x="280" y="406" type="curve" smooth="yes"/>
      <point x="280" y="450"/>
      <point x="252" y="486"/>
      <point x="196" y="504" type="curve" smooth="yes"/>
      <point x="152" y="518"/>
      <point x="131" y="527"/>
      <point x="131" y="546" type="curve" smooth="yes"/>
      <point x="131" y="561"/>
      <point x="145" y="572"/>
      <point x="168" y="572" type="curve" smooth="yes"/>
      <point x="196" y="572"/>
      <point x="222" y="554"/>
      <point x="239" y="513" type="curve"/>
      <point x="245" y="506"/>
      <point x="265" y="508"/>
      <point x="271" y="516" type="curve"/>
      <point x="272" y="544"/>
      <point x="266" y="574"/>
      <point x="259" y="590" type="curve"/>
      <point x="247" y="595"/>
      <point x="213" y="608"/>
    </contour>
  </outline>
</glyph>
<glyph name="three.oldstyle" format="1">
  <advance width="416"/>
  <unicode hex="F733"/>
  <outline>
    <contour>
      <point x="237" y="17" type="curve" smooth="yes" name="hr01"/>
      <point x="237" y="-93"/>
      <point x="185" y="-120"/>
      <point x="128" y="-120" type="curve" smooth="yes"/>
      <point x="97" y="-120"/>
      <point x="68" y="-110"/>
      <point x="55" y="-110" type="curve" smooth="yes"/>
      <point x="40" y="-110"/>
      <point x="31" y="-123"/>
      <point x="31" y="-141" type="curve" smooth="yes"/>
      <point x="31" y="-163"/>
      <point x="46" y="-188"/>
      <point x="79" y="-188" type="curve" smooth="yes"/>
      <point x="126" y="-188"/>
      <point x="199" y="-161"/>
      <point x="258" y="-118" type="curve" smooth="yes"/>
      <point x="325" y="-69"/>
      <point x="370" y="-3"/>
      <point x="370" y="74" type="curve" smooth="yes"/>
      <point x="370" y="135"/>
      <point x="334" y="188"/>
      <point x="269" y="204" type="curve" smooth="yes"/>
      <point x="258" y="207"/>
      <point x="252" y="211"/>
      <point x="252" y="215" type="curve" smooth="yes" name="hr02"/>
      <point x="252" y="219"/>
      <point x="253" y="224"/>
      <point x="266" y="230" type="curve" smooth="yes"/>
      <point x="328" y="260"/>
      <point x="350" y="298"/>
      <point x="350" y="329" type="curve" smooth="yes"/>
      <point x="350" y="397"/>
      <point x="297" y="442"/>
      <point x="215" y="442" type="curve" smooth="yes"/>
      <point x="128" y="442"/>
      <point x="70" y="386"/>
      <point x="39" y="326" type="curve"/>
      <point x="39" y="309"/>
      <point x="54" y="297"/>
      <point x="70" y="301" type="curve"/>
      <point x="104" y="355"/>
      <point x="130" y="369"/>
      <point x="155" y="369" type="curve" smooth="yes"/>
      <point x="191" y="369"/>
      <point x="213" y="340"/>
      <point x="213" y="306" type="curve" smooth="yes"/>
      <point x="213" y="224"/>
      <point x="131" y="191"/>
      <point x="65" y="164" type="curve"/>
      <point x="57" y="142"/>
      <point x="68" y="114"/>
      <point x="86" y="116" type="curve"/>
      <point x="106" y="133"/>
      <point x="131" y="148"/>
      <point x="151" y="148" type="curve" smooth="yes" name="hr03"/>
      <point x="164" y="148"/>
      <point x="182" y="142"/>
      <point x="194" y="133" type="curve" smooth="yes"/>
      <point x="219" y="112"/>
      <point x="237" y="71"/>
    </contour>
  </outline>
</glyph>
<glyph name="five.oldstyle" format="1">
  <advance width="409"/>
  <unicode hex="F735"/>
  <outline>
    <contour>
      <point x="299" y="322" type="line" smooth="yes" name="hr01"/>
      <point x="354" y="328"/>
      <point x="376" y="406"/>
      <point x="384" y="431" type="curve" name="hr02"/>
      <point x="385" y="438"/>
      <point x="378" y="444"/>
      <point x="368" y="444" type="curve"/>
      <point x="356" y="436"/>
      <point x="336" y="432"/>
      <point x="313" y="430" type="curve" smooth="yes" name="hr03"/>
      <point x="209" y="419" type="line" smooth="yes"/>
      <point x="183" y="416"/>
      <point x="158" y="412"/>
      <point x="144" y="407" type="curve" smooth="yes"/>
      <point x="109" y="395"/>
      <point x="55" y="282"/>
      <point x="55" y="226" type="curve" smooth="yes"/>
      <point x="55" y="172"/>
      <point x="107" y="146"/>
      <point x="129" y="134" type="curve" smooth="yes"/>
      <point x="181" y="107"/>
      <point x="222" y="67"/>
      <point x="222" y="6" type="curve" smooth="yes"/>
      <point x="222" y="-94"/>
      <point x="115" y="-144"/>
      <point x="58" y="-163" type="curve"/>
      <point x="49" y="-173"/>
      <point x="53" y="-195"/>
      <point x="70" y="-198" type="curve"/>
      <point x="168" y="-176"/>
      <point x="338" y="-102"/>
      <point x="338" y="49" type="curve" smooth="yes"/>
      <point x="338" y="127"/>
      <point x="298" y="192"/>
      <point x="190" y="241" type="curve" smooth="yes" name="hr04"/>
      <point x="133" y="267"/>
      <point x="120" y="279"/>
      <point x="120" y="288" type="curve" smooth="yes"/>
      <point x="120" y="300"/>
      <point x="128" y="304"/>
      <point x="164" y="308" type="curve" smooth="yes"/>
    </contour>
  </outline>
</glyph>
<glyph name="seven.oldstyle" format="1">
  <advance width="504"/>
  <unicode hex="F737"/>
  <outline>
    <contour>
      <point x="170" y="428" type="line" smooth="yes" name="hr01"/>
      <point x="132" y="428"/>
      <point x="90" y="429"/>
      <point x="69" y="431" type="curve" name="hr02"/>
      <point x="60" y="393"/>
      <point x="41" y="329"/>
      <point x="18" y="281" type="curve" name="hr03"/>
      <point x="21" y="271"/>
      <point x="36" y="261"/>
      <point x="48" y="266" type="curve"/>
      <point x="76" y="313"/>
      <point x="90" y="324"/>
      <point x="155" y="324" type="curve" smooth="yes"/>
      <point x="325" y="324" type="line" smooth="yes"/>
      <point x="344" y="324"/>
      <point x="352" y="320"/>
      <point x="352" y="309" type="curve" smooth="yes"/>
      <point x="352" y="295"/>
      <point x="341" y="271"/>
      <point x="323" y="241" type="curve" smooth="yes"/>
      <point x="76" y="-169" type="line"/>
      <point x="81" y="-185"/>
      <point x="100" y="-198"/>
      <point x="116" y="-198" type="curve" smooth="yes"/>
      <point x="122" y="-198"/>
      <point x="126" y="-199"/>
      <point x="129" y="-197" type="curve"/>
      <point x="361" y="194" type="line" smooth="yes"/>
      <point x="424" y="301"/>
      <point x="469" y="375"/>
      <point x="498" y="415" type="curve" name="hr04"/>
      <point x="499" y="421"/>
      <point x="496" y="429"/>
      <point x="491" y="431" type="curve"/>
      <point x="476" y="427"/>
      <point x="404" y="428"/>
      <point x="345" y="428" type="curve" smooth="yes" name="hr05"/>
    </contour>
  </outline>
</glyph>
<glyph name="nine.oldstyle" format="1">
  <advance width="511"/>
  <unicode hex="F739"/>
  <outline>
    <contour>
      <point x="42" y="-198" type="curve" name="hr00"/>
      <point x="164" y="-191"/>
      <point x="261" y="-145"/>
      <point x="327" y="-88" type="curve" smooth="yes"/>
      <point x="426" y="-1"/>
      <point x="466" y="115"/>
      <point x="466" y="218" type="curve" smooth="yes"/>
      <point x="466" y="350"/>
      <point x="397" y="442"/>
      <point x="260" y="442" type="curve" smooth="yes"/>
      <point x="137" y="442"/>
      <point x="39" y="360"/>
      <point x="39" y="240" type="curve" smooth="yes"/>
      <point x="39" y="150"/>
      <point x="98" y="87"/>
      <point x="194" y="87" type="curve" smooth="yes"/>
      <point x="225" y="87"/>
      <point x="256" y="102"/>
      <point x="274" y="113" type="curve"/>
      <point x="277" y="121"/>
      <point x="277" y="133"/>
      <point x="271" y="139" type="curve"/>
      <point x="257" y="138"/>
      <point x="244" y="137"/>
      <point x="231" y="146" type="curve" smooth="yes"/>
      <point x="190" y="172"/>
      <point x="175" y="234"/>
      <point x="175" y="282" type="curve" smooth="yes"/>
      <point x="175" y="348"/>
      <point x="202" y="396"/>
      <point x="248" y="396" type="curve" smooth="yes"/>
      <point x="292" y="396"/>
      <point x="327" y="336"/>
      <point x="327" y="237" type="curve" smooth="yes"/>
      <point x="327" y="43"/>
      <point x="230" y="-59"/>
      <point x="182" y="-99" type="curve" smooth="yes"/>
      <point x="149" y="-127"/>
      <point x="100" y="-151"/>
      <point x="37" y="-168" type="curve"/>
      <point x="32" y="-175"/>
      <point x="33" y="-193"/>
    </contour>
  </outline>
</glyph>
<glyph name="at.cap" format="1">
  <advance width="769"/>
  <outline>
    <contour>
      <point x="441" y="676" type="curve" smooth="yes" name="hr00"/>
      <point x="229" y="676"/>
      <point x="40" y="530"/>
      <point x="40" y="297" type="curve" smooth="yes"/>
      <point x="40" y="84"/>
      <point x="206" y="-15"/>
      <point x="382" y="-15" type="curve" smooth="yes"/>
      <point x="440" y="-15"/>
      <point x="517" y="-2"/>
      <point x="577" y="31" type="curve"/>
      <point x="583" y="40"/>
      <point x="578" y="59"/>
      <point x="568" y="63" type="curve"/>
      <point x="536" y="50"/>
      <point x="490" y="30"/>
      <point x="414" y="30" type="curve" smooth="yes"/>
      <point x="196" y="30"/>
      <point x="135" y="187"/>
      <point x="135" y="296" type="curve" smooth="yes"/>
      <point x="135" y="470"/>
      <point x="256" y="631"/>
      <point x="441" y="631" type="curve" smooth="yes"/>
      <point x="574" y="631"/>
      <point x="681" y="542"/>
      <point x="681" y="404" type="curve" smooth="yes"/>
      <point x="681" y="285"/>
      <point x="587" y="216"/>
      <point x="506" y="216" type="curve" smooth="yes"/>
      <point x="485" y="216"/>
      <point x="483" y="225"/>
      <point x="492" y="250" type="curve" smooth="yes"/>
      <point x="505" y="283"/>
      <point x="593" y="487"/>
      <point x="605" y="517" type="curve"/>
      <point x="593" y="526"/>
      <point x="573" y="531"/>
      <point x="552" y="531" type="curve" smooth="yes"/>
      <point x="546" y="531"/>
      <point x="541" y="530"/>
      <point x="536" y="529" type="curve"/>
      <point x="512" y="484" type="line"/>
      <point x="507" y="494"/>
      <point x="494" y="500"/>
      <point x="478" y="500" type="curve" smooth="yes"/>
      <point x="403" y="500"/>
      <point x="326" y="432"/>
      <point x="281" y="376" type="curve" smooth="yes"/>
      <point x="224" y="303"/>
      <point x="205" y="239"/>
      <point x="205" y="220" type="curve" smooth="yes"/>
      <point x="205" y="198"/>
      <point x="219" y="176"/>
      <point x="249" y="176" type="curve" smooth="yes"/>
      <point x="291" y="176"/>
      <point x="379" y="230"/>
      <point x="430" y="292" type="curve"/>
      <point x="432" y="291" type="line"/>
      <point x="411" y="236" type="line" smooth="yes"/>
      <point x="406" y="222"/>
      <point x="402" y="213"/>
      <point x="402" y="204" type="curve" smooth="yes"/>
      <point x="402" y="196"/>
      <point x="411" y="176"/>
      <point x="469" y="176" type="curve" smooth="yes"/>
      <point x="638" y="176"/>
      <point x="734" y="276"/>
      <point x="734" y="406" type="curve" smooth="yes"/>
      <point x="734" y="548"/>
      <point x="631" y="676"/>
    </contour>
    <contour>
      <point x="379" y="274" type="curve" smooth="yes"/>
      <point x="343" y="241"/>
      <point x="327" y="236"/>
      <point x="319" y="236" type="curve" smooth="yes"/>
      <point x="313" y="236"/>
      <point x="309" y="240"/>
      <point x="309" y="250" type="curve" smooth="yes"/>
      <point x="309" y="288"/>
      <point x="357" y="388"/>
      <point x="410" y="436" type="curve" smooth="yes"/>
      <point x="435" y="458"/>
      <point x="451" y="467"/>
      <point x="459" y="467" type="curve" smooth="yes"/>
      <point x="475" y="467"/>
      <point x="484" y="455"/>
      <point x="489" y="442" type="curve"/>
      <point x="478" y="405"/>
      <point x="419" y="311"/>
    </contour>
  </outline>
</glyph>
<glyph name="braceright.cap" format="1">
  <advance width="340"/>
  <outline>
    <contour>
      <point x="101" y="222" type="curve" smooth="yes" name="hr01"/>
      <point x="101" y="153"/>
      <point x="120" y="85"/>
      <point x="120" y="17" type="curve" smooth="yes" name="hr02"/>
      <point x="120" y="-19"/>
      <point x="110" y="-57"/>
      <point x="36" y="-70" type="curve"/>
      <point x="30" y="-76"/>
      <point x="32" y="-95"/>
      <point x="38" y="-98" type="curve"/>
      <point x="129" y="-98"/>
      <point x="207" y="-85"/>
      <point x="207" y="33" type="curve" smooth="yes"/>
      <point x="207" y="99"/>
      <point x="191" y="174"/>
      <point x="191" y="237" type="curve" smooth="yes" name="hr03"/>
      <point x="191" y="265"/>
      <point x="195" y="309"/>
      <point x="279" y="315" type="curve"/>
      <point x="286" y="323"/>
      <point x="286" y="336"/>
      <point x="279" y="341" type="curve" name="hr04"/>
      <point x="189" y="347"/>
      <point x="191" y="388"/>
      <point x="191" y="419" type="curve" smooth="yes" name="hr05"/>
      <point x="191" y="482"/>
      <point x="207" y="557"/>
      <point x="207" y="623" type="curve" smooth="yes"/>
      <point x="207" y="741"/>
      <point x="123" y="754"/>
      <point x="38" y="754" type="curve" name="hr06"/>
      <point x="32" y="751"/>
      <point x="30" y="732"/>
      <point x="36" y="726" type="curve"/>
      <point x="110" y="713"/>
      <point x="120" y="669"/>
      <point x="120" y="639" type="curve" smooth="yes"/>
      <point x="120" y="571"/>
      <point x="101" y="503"/>
      <point x="101" y="434" type="curve" smooth="yes" name="hr07"/>
      <point x="101" y="379"/>
      <point x="124" y="343"/>
      <point x="176" y="330" type="curve"/>
      <point x="176" y="326" type="line"/>
      <point x="124" y="313"/>
      <point x="101" y="277"/>
    </contour>
  </outline>
</glyph>
<glyph name="bracketright.cap" format="1">
  <advance width="340"/>
  <outline>
    <contour>
      <point x="219" y="748" type="line" name="hr00"/>
      <point x="196" y="749"/>
      <point x="174" y="749"/>
      <point x="141" y="749" type="curve" smooth="yes"/>
      <point x="86" y="749"/>
      <point x="46" y="747"/>
      <point x="31" y="745" type="curve"/>
      <point x="23" y="741"/>
      <point x="23" y="718"/>
      <point x="30" y="714" type="curve"/>
      <point x="99" y="703" type="line" smooth="yes"/>
      <point x="131" y="698"/>
      <point x="137" y="683"/>
      <point x="137" y="543" type="curve" smooth="yes"/>
      <point x="137" y="113" type="line" smooth="yes"/>
      <point x="137" y="-27"/>
      <point x="131" y="-42"/>
      <point x="99" y="-47" type="curve" smooth="yes"/>
      <point x="30" y="-58" type="line"/>
      <point x="23" y="-62"/>
      <point x="23" y="-85"/>
      <point x="31" y="-89" type="curve"/>
      <point x="46" y="-91"/>
      <point x="86" y="-93"/>
      <point x="141" y="-93" type="curve" smooth="yes"/>
      <point x="174" y="-93"/>
      <point x="196" y="-93"/>
      <point x="219" y="-92" type="curve"/>
    </contour>
  </outline>
</glyph>
<glyph name="cent.denominator" format="1">
  <advance width="400"/>
  <outline>
    <contour>
      <point x="208" y="91" type="line" name="hr00"/>
      <point x="173" y="111"/>
      <point x="153" y="151"/>
      <point x="153" y="206" type="curve" smooth="yes"/>
      <point x="153" y="258"/>
      <point x="176" y="331"/>
      <point x="241" y="331" type="curve" smooth="yes"/>
      <point x="244" y="331"/>
      <point x="247" y="331"/>
      <point x="248" y="330" type="curve"/>
    </contour>
    <contour>
      <point x="285" y="317" type="line"/>
      <point x="285" y="318"/>
      <point x="285" y="319"/>
      <point x="286" y="319" type="curve" smooth="yes"/>
      <point x="305" y="306"/>
      <point x="320" y="287"/>
      <point x="336" y="272" type="curve" smooth="yes"/>
      <point x="338" y="271"/>
      <point x="343" y="269"/>
      <point x="347" y="269" type="curve" smooth="yes"/>
      <point x="358" y="269"/>
      <point x="371" y="287"/>
      <point x="371" y="309" type="curve" smooth="yes"/>
      <point x="371" y="331"/>
      <point x="359" y="349"/>
      <point x="351" y="355" type="curve"/>
      <point x="336" y="360"/>
      <point x="314" y="364"/>
      <point x="293" y="366" type="curve"/>
      <point x="304" y="430" type="line"/>
      <point x="296" y="439"/>
      <point x="272" y="439"/>
      <point x="265" y="430" type="curve"/>
      <point x="254" y="368" type="line"/>
      <point x="143" y="367"/>
      <point x="38" y="306"/>
      <point x="38" y="183" type="curve" smooth="yes"/>
      <point x="38" y="96"/>
      <point x="100" y="32"/>
      <point x="196" y="21" type="curve"/>
      <point x="183" y="-57" type="line"/>
      <point x="189" y="-68"/>
      <point x="214" y="-68"/>
      <point x="221" y="-57" type="curve"/>
      <point x="234" y="20" type="line"/>
      <point x="311" y="22"/>
      <point x="359" y="65"/>
      <point x="383" y="112" type="curve"/>
      <point x="383" y="122"/>
      <point x="372" y="129"/>
      <point x="361" y="128" type="curve"/>
      <point x="345" y="99"/>
      <point x="307" y="75"/>
      <point x="269" y="75" type="curve" smooth="yes"/>
      <point x="260" y="75"/>
      <point x="252" y="76"/>
      <point x="244" y="78" type="curve"/>
    </contour>
  </outline>
</glyph>
<glyph name="cent.numerator" format="1">
  <advance width="400"/>
  <outline>
    <contour>
      <point x="208" y="338" type="line" name="hr00"/>
      <point x="173" y="358"/>
      <point x="153" y="398"/>
      <point x="153" y="453" type="curve" smooth="yes"/>
      <point x="153" y="505"/>
      <point x="176" y="578"/>
      <point x="241" y="578" type="curve" smooth="yes"/>
      <point x="244" y="578"/>
      <point x="247" y="578"/>
      <point x="248" y="577" type="curve"/>
    </contour>
    <contour>
      <point x="285" y="564" type="line"/>
      <point x="285" y="565"/>
      <point x="285" y="566"/>
      <point x="286" y="566" type="curve" smooth="yes"/>
      <point x="305" y="553"/>
      <point x="320" y="534"/>
      <point x="336" y="519" type="curve" smooth="yes"/>
      <point x="338" y="518"/>
      <point x="343" y="516"/>
      <point x="347" y="516" type="curve" smooth="yes"/>
      <point x="358" y="516"/>
      <point x="371" y="534"/>
      <point x="371" y="556" type="curve" smooth="yes"/>
      <point x="371" y="578"/>
      <point x="359" y="596"/>
      <point x="351" y="602" type="curve"/>
      <point x="336" y="607"/>
      <point x="314" y="611"/>
      <point x="293" y="613" type="curve"/>
      <point x="304" y="677" type="line"/>
      <point x="296" y="686"/>
      <point x="272" y="686"/>
      <point x="265" y="677" type="curve"/>
      <point x="254" y="615" type="line"/>
      <point x="143" y="614"/>
      <point x="38" y="553"/>
      <point x="38" y="430" type="curve" smooth="yes"/>
      <point x="38" y="343"/>
      <point x="100" y="279"/>
      <point x="196" y="268" type="curve"/>
      <point x="183" y="190" type="line"/>
      <point x="189" y="179"/>
      <point x="214" y="179"/>
      <point x="221" y="190" type="curve"/>
      <point x="234" y="267" type="line"/>
      <point x="311" y="269"/>
      <point x="359" y="312"/>
      <point x="383" y="359" type="curve"/>
      <point x="383" y="369"/>
      <point x="372" y="376"/>
      <point x="361" y="375" type="curve"/>
      <point x="345" y="346"/>
      <point x="307" y="322"/>
      <point x="269" y="322" type="curve" smooth="yes"/>
      <point x="260" y="322"/>
      <point x="252" y="323"/>
      <point x="244" y="325" type="curve"/>
    </contour>
  </outline>
</glyph>
<glyph name="circumflex.cap" format="1">
  <advance width="380"/>
  <outline>
    <contour>
      <point x="323" y="706" type="line" name="hr00"/>
      <point x="330" y="707"/>
      <point x="340" y="719"/>
      <point x="336" y="730" type="curve"/>
      <point x="209" y="849" type="line" smooth="yes"/>
      <point x="195" y="862"/>
      <point x="176" y="863"/>
      <point x="162" y="849" type="curve" smooth="yes"/>
      <point x="35" y="730" type="line"/>
      <point x="31" y="719"/>
      <point x="40" y="706"/>
      <point x="49" y="706" type="curve"/>
      <point x="169" y="757" type="line"/>
      <point x="180" y="763"/>
      <point x="191" y="762"/>
      <point x="202" y="756" type="curve"/>
    </contour>
  </outline>
</glyph>
<glyph name="colonmonetary.taboldstyle" format="1">
  <advance width="510"/>
  <outline>
    <contour>
      <point x="201" y="93" type="line" name="hr01"/>
      <point x="172" y="131"/>
      <point x="159" y="193"/>
      <point x="159" y="251" type="curve" smooth="yes"/>
      <point x="159" y="394"/>
      <point x="236" y="465"/>
      <point x="295" y="478" type="curve"/>
    </contour>
    <contour>
      <point x="332" y="480" type="line"/>
      <point x="350" y="479"/>
      <point x="367" y="477"/>
      <point x="381" y="474" type="curve"/>
      <point x="274" y="45" type="line"/>
      <point x="258" y="49"/>
      <point x="243" y="56"/>
      <point x="230" y="65" type="curve"/>
    </contour>
    <contour>
      <point x="438" y="564" type="line"/>
      <point x="432" y="569"/>
      <point x="409" y="569"/>
      <point x="403" y="564" type="curve"/>
      <point x="390" y="514" type="line"/>
      <point x="376" y="516"/>
      <point x="359" y="518"/>
      <point x="341" y="518" type="curve"/>
      <point x="352" y="564" type="line"/>
      <point x="345" y="569"/>
      <point x="323" y="569"/>
      <point x="316" y="564" type="curve"/>
      <point x="305" y="518" type="line"/>
      <point x="144" y="510"/>
      <point x="24" y="409"/>
      <point x="24" y="256" type="curve" smooth="yes"/>
      <point x="24" y="141"/>
      <point x="78" y="59"/>
      <point x="182" y="18" type="curve" name="hr02"/>
      <point x="163" y="-58" type="line"/>
      <point x="172" y="-63"/>
      <point x="192" y="-63"/>
      <point x="201" y="-58" type="curve"/>
      <point x="216" y="9" type="line"/>
      <point x="232" y="4"/>
      <point x="249" y="1"/>
      <point x="264" y="-1" type="curve"/>
      <point x="250" y="-58" type="line" name="hr03"/>
      <point x="258" y="-63"/>
      <point x="279" y="-63"/>
      <point x="287" y="-58" type="curve"/>
      <point x="301" y="-4" type="line"/>
      <point x="307" y="-5"/>
      <point x="314" y="-5"/>
      <point x="320" y="-5" type="curve" smooth="yes"/>
      <point x="368" y="-5"/>
      <point x="433" y="11"/>
      <point x="463" y="23" type="curve"/>
      <point x="472" y="40"/>
      <point x="491" y="86"/>
      <point x="496" y="119" type="curve"/>
      <point x="492" y="129"/>
      <point x="477" y="131"/>
      <point x="468" y="123" type="curve"/>
      <point x="434" y="72"/>
      <point x="392" y="39"/>
      <point x="310" y="39" type="curve"/>
      <point x="413" y="456" type="line"/>
      <point x="435" y="439"/>
      <point x="447" y="411"/>
      <point x="454" y="397" type="curve" smooth="yes"/>
      <point x="459" y="389"/>
      <point x="474" y="389"/>
      <point x="485" y="397" type="curve"/>
      <point x="478" y="425"/>
      <point x="472" y="485"/>
      <point x="468" y="499" type="curve"/>
      <point x="459" y="500"/>
      <point x="441" y="503"/>
      <point x="425" y="508" type="curve"/>
    </contour>
  </outline>
</glyph>
<glyph name="exclamdown.cap" format="1">
  <advance width="254"/>
  <outline>
    <contour>
      <point x="127" y="-10" type="curve" smooth="yes" name="hr00"/>
      <point x="179" y="-10"/>
      <point x="207" y="-1"/>
      <point x="207" y="33" type="curve" smooth="yes"/>
      <point x="207" y="49"/>
      <point x="201" y="80"/>
      <point x="191" y="150" type="curve" smooth="yes"/>
      <point x="149" y="431" type="line"/>
      <point x="137" y="439"/>
      <point x="117" y="439"/>
      <point x="105" y="431" type="curve"/>
      <point x="63" y="150" type="line" smooth="yes"/>
      <point x="53" y="80"/>
      <point x="47" y="49"/>
      <point x="47" y="33" type="curve" smooth="yes"/>
      <point x="47" y="-1"/>
      <point x="75" y="-10"/>
    </contour>
    <contour>
      <point x="127" y="650" type="curve" smooth="yes"/>
      <point x="87" y="650"/>
      <point x="46" y="618"/>
      <point x="46" y="569" type="curve" smooth="yes"/>
      <point x="46" y="522"/>
      <point x="82" y="486"/>
      <point x="127" y="486" type="curve" smooth="yes"/>
      <point x="175" y="486"/>
      <point x="208" y="526"/>
      <point x="208" y="569" type="curve" smooth="yes"/>
      <point x="208" y="615"/>
      <point x="175" y="650"/>
    </contour>
  </outline>
</glyph>
